<mxfile host="app.diagrams.net" agent="Mozilla/5.0 (Windows NT 10.0; Win64; x64) AppleWebKit/537.36 (KHTML, like Gecko) Chrome/128.0.0.0 YaBrowser/24.10.0.0 Safari/537.36" version="24.8.6">
  <diagram name="Страница — 1" id="bSJZbhXd8VlQ9XZKoLv6">
    <mxGraphModel dx="3160" dy="2642" grid="1" gridSize="10" guides="1" tooltips="1" connect="1" arrows="1" fold="1" page="1" pageScale="1" pageWidth="827" pageHeight="1169" math="0" shadow="0">
      <root>
        <mxCell id="0" />
        <mxCell id="1" parent="0" />
        <mxCell id="CBX8Peww-ikw76v_2hch-1" value="Item&lt;div&gt;&lt;br&gt;&lt;/div&gt;" style="swimlane;fontStyle=1;align=center;verticalAlign=top;childLayout=stackLayout;horizontal=1;startSize=26;horizontalStack=0;resizeParent=1;resizeParentMax=0;resizeLast=0;collapsible=1;marginBottom=0;whiteSpace=wrap;html=1;" parent="1" vertex="1">
          <mxGeometry x="150" y="60" width="200" height="320" as="geometry">
            <mxRectangle x="70" y="60" width="60" height="40" as="alternateBounds" />
          </mxGeometry>
        </mxCell>
        <mxCell id="CBX8Peww-ikw76v_2hch-2" value="- _id: int&lt;div&gt;- _name: string&lt;/div&gt;&lt;div&gt;- _info: string&lt;/div&gt;&lt;div&gt;- _ cost: double&lt;/div&gt;&lt;div&gt;- _&lt;u&gt;allItemCount&lt;/u&gt;&lt;/div&gt;" style="text;strokeColor=none;fillColor=none;align=left;verticalAlign=top;spacingLeft=4;spacingRight=4;overflow=hidden;rotatable=0;points=[[0,0.5],[1,0.5]];portConstraint=eastwest;whiteSpace=wrap;html=1;" parent="CBX8Peww-ikw76v_2hch-1" vertex="1">
          <mxGeometry y="26" width="200" height="74" as="geometry" />
        </mxCell>
        <mxCell id="CBX8Peww-ikw76v_2hch-3" value="" style="line;strokeWidth=1;fillColor=none;align=left;verticalAlign=middle;spacingTop=-1;spacingLeft=3;spacingRight=3;rotatable=0;labelPosition=right;points=[];portConstraint=eastwest;strokeColor=inherit;" parent="CBX8Peww-ikw76v_2hch-1" vertex="1">
          <mxGeometry y="100" width="200" height="10" as="geometry" />
        </mxCell>
        <mxCell id="CBX8Peww-ikw76v_2hch-4" value="&lt;div&gt;+ Category {get;set;}: Category&lt;/div&gt;+ Id {get;}: int&lt;div&gt;+ Name {get;set;}: string&lt;/div&gt;&lt;div&gt;+ Info {get;set;}: string&lt;/div&gt;&lt;div&gt;+ Cost {get;set;}: double&lt;/div&gt;&lt;div&gt;+ Item(name: string,info: string, cost: double)&lt;/div&gt;&lt;div&gt;+ ToString(): string&lt;/div&gt;&lt;div&gt;+Clone(): object&lt;/div&gt;&lt;div&gt;+Equals(other:object): bool&lt;/div&gt;&lt;div&gt;+CompareTo(item2: Item?): int&lt;/div&gt;&lt;div&gt;+ NameChanged: EventHandler&lt;br&gt;&lt;/div&gt;&lt;div&gt;+ InfoChanged: EventHandler&lt;br&gt;&lt;/div&gt;&lt;div&gt;+ CostChanged: EventHandler&lt;br&gt;&lt;/div&gt;&lt;div&gt;&lt;span style=&quot;color: rgba(0, 0, 0, 0); font-family: monospace; font-size: 0px; text-wrap: nowrap;&quot;&gt;%3CmxGraphModel%3E%3Croot%3E%3CmxCell%20id%3D%220%22%2F%3E%3CmxCell%20id%3D%221%22%20parent%3D%220%22%2F%3E%3CmxCell%20id%3D%222%22%20value%3D%22MainForm%22%20style%3D%22html%3D1%3BwhiteSpace%3Dwrap%3B%22%20vertex%3D%221%22%20parent%3D%221%22%3E%3CmxGeometry%20x%3D%22535%22%20y%3D%222190%22%20width%3D%22110%22%20height%3D%2250%22%20as%3D%22geometry%22%2F%3E%3C%2FmxCell%3E%3CmxCell%20id%3D%223%22%20value%3D%22Program%22%20style%3D%22html%3D1%3BwhiteSpace%3Dwrap%3B%22%20vertex%3D%221%22%20parent%3D%221%22%3E%3CmxGeometry%20x%3D%22535%22%20y%3D%222070%22%20width%3D%22110%22%20height%3D%2250%22%20as%3D%22geometry%22%2F%3E%3C%2FmxCell%3E%3CmxCell%20id%3D%224%22%20value%3D%22OrdersTab%22%20style%3D%22html%3D1%3BwhiteSpace%3Dwrap%3B%22%20vertex%3D%221%22%20parent%3D%221%22%3E%3CmxGeometry%20x%3D%22750%22%20y%3D%222300%22%20width%3D%22110%22%20height%3D%2250%22%20as%3D%22geometry%22%2F%3E%3C%2FmxCell%3E%3CmxCell%20id%3D%225%22%20value%3D%22ItemsTab%22%20style%3D%22html%3D1%3BwhiteSpace%3Dwrap%3B%22%20vertex%3D%221%22%20parent%3D%221%22%3E%3CmxGeometry%20x%3D%22315%22%20y%3D%222300%22%20width%3D%22110%22%20height%3D%2250%22%20as%3D%22geometry%22%2F%3E%3C%2FmxCell%3E%3CmxCell%20id%3D%226%22%20value%3D%22DiscountsTab%22%20style%3D%22html%3D1%3BwhiteSpace%3Dwrap%3B%22%20vertex%3D%221%22%20parent%3D%221%22%3E%3CmxGeometry%20x%3D%22460%22%20y%3D%222430%22%20width%3D%22110%22%20height%3D%2250%22%20as%3D%22geometry%22%2F%3E%3C%2FmxCell%3E%3CmxCell%20id%3D%227%22%20value%3D%22CustomersTab%22%20style%3D%22html%3D1%3BwhiteSpace%3Dwrap%3B%22%20vertex%3D%221%22%20parent%3D%221%22%3E%3CmxGeometry%20x%3D%22460%22%20y%3D%222300%22%20width%3D%22110%22%20height%3D%2250%22%20as%3D%22geometry%22%2F%3E%3C%2FmxCell%3E%3CmxCell%20id%3D%228%22%20value%3D%22CartsTab%22%20style%3D%22html%3D1%3BwhiteSpace%3Dwrap%3B%22%20vertex%3D%221%22%20parent%3D%221%22%3E%3CmxGeometry%20x%3D%22610%22%20y%3D%222300%22%20width%3D%22110%22%20height%3D%2250%22%20as%3D%22geometry%22%2F%3E%3C%2FmxCell%3E%3CmxCell%20id%3D%229%22%20value%3D%22CartDiscountPanel%22%20style%3D%22html%3D1%3BwhiteSpace%3Dwrap%3B%22%20vertex%3D%221%22%20parent%3D%221%22%3E%3CmxGeometry%20x%3D%22750%22%20y%3D%222430%22%20width%3D%22110%22%20height%3D%2250%22%20as%3D%22geometry%22%2F%3E%3C%2FmxCell%3E%3CmxCell%20id%3D%2210%22%20value%3D%22AddDiscountForm%22%20style%3D%22html%3D1%3BwhiteSpace%3Dwrap%3B%22%20vertex%3D%221%22%20parent%3D%221%22%3E%3CmxGeometry%20x%3D%22595%22%20y%3D%222430%22%20width%3D%22110%22%20height%3D%2250%22%20as%3D%22geometry%22%2F%3E%3C%2FmxCell%3E%3CmxCell%20id%3D%2211%22%20value%3D%22AddressControl%22%20style%3D%22html%3D1%3BwhiteSpace%3Dwrap%3B%22%20vertex%3D%221%22%20parent%3D%221%22%3E%3CmxGeometry%20x%3D%22315%22%20y%3D%222430%22%20width%3D%22110%22%20height%3D%2250%22%20as%3D%22geometry%22%2F%3E%3C%2FmxCell%3E%3CmxCell%20id%3D%2212%22%20value%3D%22DataTools%22%20style%3D%22html%3D1%3BwhiteSpace%3Dwrap%3B%22%20vertex%3D%221%22%20parent%3D%221%22%3E%3CmxGeometry%20x%3D%22130.00000000000006%22%20y%3D%222430%22%20width%3D%22110%22%20height%3D%2250%22%20as%3D%22geometry%22%2F%3E%3C%2FmxCell%3E%3CmxCell%20id%3D%2213%22%20value%3D%22IdGenerator%22%20style%3D%22html%3D1%3BwhiteSpace%3Dwrap%3B%22%20vertex%3D%221%22%20parent%3D%221%22%3E%3CmxGeometry%20x%3D%22-59.99999999999994%22%20y%3D%222740%22%20width%3D%22110%22%20height%3D%2250%22%20as%3D%22geometry%22%2F%3E%3C%2FmxCell%3E%3CmxCell%20id%3D%2214%22%20value%3D%22ValueValidator%22%20style%3D%22html%3D1%3BwhiteSpace%3Dwrap%3B%22%20vertex%3D%221%22%20parent%3D%221%22%3E%3CmxGeometry%20x%3D%22-49.99999999999994%22%20y%3D%222645%22%20width%3D%22110%22%20height%3D%2250%22%20as%3D%22geometry%22%2F%3E%3C%2FmxCell%3E%3CmxCell%20id%3D%2215%22%20value%3D%22Store%22%20style%3D%22html%3D1%3BwhiteSpace%3Dwrap%3B%22%20vertex%3D%221%22%20parent%3D%221%22%3E%3CmxGeometry%20x%3D%22-59.99999999999994%22%20y%3D%222835%22%20width%3D%22110%22%20height%3D%2250%22%20as%3D%22geometry%22%2F%3E%3C%2FmxCell%3E%3CmxCell%20id%3D%2216%22%20value%3D%22Item%22%20style%3D%22html%3D1%3BwhiteSpace%3Dwrap%3B%22%20vertex%3D%221%22%20parent%3D%221%22%3E%3CmxGeometry%20x%3D%22100.00000000000006%22%20y%3D%223080%22%20width%3D%22110%22%20height%3D%2250%22%20as%3D%22geometry%22%2F%3E%3C%2FmxCell%3E%3CmxCell%20id%3D%2217%22%20value%3D%22IDiscount%22%20style%3D%22html%3D1%3BwhiteSpace%3Dwrap%3B%22%20vertex%3D%221%22%20parent%3D%221%22%3E%3CmxGeometry%20x%3D%22468.12000000000006%22%20y%3D%223030%22%20width%3D%22110%22%20height%3D%2250%22%20as%3D%22geometry%22%2F%3E%3C%2FmxCell%3E%3CmxCell%20id%3D%2218%22%20value%3D%22Customer%22%20style%3D%22html%3D1%3BwhiteSpace%3Dwrap%3B%22%20vertex%3D%221%22%20parent%3D%221%22%3E%3CmxGeometry%20x%3D%22210.00000000000006%22%20y%3D%222690%22%20width%3D%22110%22%20height%3D%2250%22%20as%3D%22geometry%22%2F%3E%3C%2FmxCell%3E%3CmxCell%20id%3D%2219%22%20value%3D%22Cart%22%20style%3D%22html%3D1%3BwhiteSpace%3Dwrap%3B%22%20vertex%3D%221%22%20parent%3D%221%22%3E%3CmxGeometry%20x%3D%22210.00000000000006%22%20y%3D%222880%22%20width%3D%22110%22%20height%3D%2250%22%20as%3D%22geometry%22%2F%3E%3C%2FmxCell%3E%3CmxCell%20id%3D%2220%22%20value%3D%22Address%22%20style%3D%22html%3D1%3BwhiteSpace%3Dwrap%3B%22%20vertex%3D%221%22%20parent%3D%221%22%3E%3CmxGeometry%20x%3D%22315.00000000000006%22%20y%3D%222530%22%20width%3D%22110%22%20height%3D%2250%22%20as%3D%22geometry%22%2F%3E%3C%2FmxCell%3E%3CmxCell%20id%3D%2221%22%20value%3D%22Order%22%20style%3D%22html%3D1%3BwhiteSpace%3Dwrap%3B%22%20vertex%3D%221%22%20parent%3D%221%22%3E%3CmxGeometry%20x%3D%22430.00000000000006%22%20y%3D%222690%22%20width%3D%22110%22%20height%3D%2250%22%20as%3D%22geometry%22%2F%3E%3C%2FmxCell%3E%3CmxCell%20id%3D%2222%22%20value%3D%22%26amp%3Blt%3Buse%26amp%3Bgt%3B%22%20style%3D%22html%3D1%3BverticalAlign%3Dbottom%3BendArrow%3Dopen%3Bcurved%3D0%3Brounded%3D0%3BendFill%3D0%3BentryX%3D0.5%3BentryY%3D0%3BentryDx%3D0%3BentryDy%3D0%3BexitX%3D0.5%3BexitY%3D1%3BexitDx%3D0%3BexitDy%3D0%3B%22%20edge%3D%221%22%20source%3D%223%22%20target%3D%222%22%20parent%3D%221%22%3E%3CmxGeometry%20x%3D%220.1429%22%20y%3D%2220%22%20width%3D%2280%22%20relative%3D%221%22%20as%3D%22geometry%22%3E%3CmxPoint%20x%3D%22550%22%20y%3D%222140%22%20as%3D%22sourcePoint%22%2F%3E%3CmxPoint%20x%3D%22630%22%20y%3D%222140%22%20as%3D%22targetPoint%22%2F%3E%3CmxPoint%20as%3D%22offset%22%2F%3E%3C%2FmxGeometry%3E%3C%2FmxCell%3E%3CmxCell%20id%3D%2223%22%20value%3D%22%22%20style%3D%22html%3D1%3BverticalAlign%3Dbottom%3BendArrow%3Dopen%3Bcurved%3D0%3Brounded%3D0%3BendFill%3D0%3BentryX%3D0.5%3BentryY%3D0%3BentryDx%3D0%3BentryDy%3D0%3BexitX%3D0.5%3BexitY%3D1%3BexitDx%3D0%3BexitDy%3D0%3B%22%20edge%3D%221%22%20source%3D%222%22%20parent%3D%221%22%3E%3CmxGeometry%20x%3D%220.037%22%20y%3D%2220%22%20width%3D%2280%22%20relative%3D%221%22%20as%3D%22geometry%22%3E%3CmxPoint%20x%3D%22514.5%22%20y%3D%222230%22%20as%3D%22sourcePoint%22%2F%3E%3CmxPoint%20x%3D%22514.5%22%20y%3D%222300%22%20as%3D%22targetPoint%22%2F%3E%3CmxPoint%20as%3D%22offset%22%2F%3E%3CArray%20as%3D%22points%22%3E%3CmxPoint%20x%3D%22590%22%20y%3D%222270%22%2F%3E%3CmxPoint%20x%3D%22515%22%20y%3D%222270%22%2F%3E%3C%2FArray%3E%3C%2FmxGeometry%3E%3C%2FmxCell%3E%3CmxCell%20id%3D%2224%22%20value%3D%22%22%20style%3D%22html%3D1%3BverticalAlign%3Dbottom%3BendArrow%3Dopen%3Bcurved%3D0%3Brounded%3D0%3BendFill%3D0%3BentryX%3D0.5%3BentryY%3D0%3BentryDx%3D0%3BentryDy%3D0%3B%22%20edge%3D%221%22%20parent%3D%221%22%3E%3CmxGeometry%20x%3D%220.037%22%20y%3D%22-20%22%20width%3D%2280%22%20relative%3D%221%22%20as%3D%22geometry%22%3E%3CmxPoint%20x%3D%22590%22%20y%3D%222240%22%20as%3D%22sourcePoint%22%2F%3E%3CmxPoint%20x%3D%22664.5%22%20y%3D%222300%22%20as%3D%22targetPoint%22%2F%3E%3CmxPoint%20as%3D%22offset%22%2F%3E%3CArray%20as%3D%22points%22%3E%3CmxPoint%20x%3D%22590%22%20y%3D%222270%22%2F%3E%3CmxPoint%20x%3D%22665%22%20y%3D%222270%22%2F%3E%3C%2FArray%3E%3C%2FmxGeometry%3E%3C%2FmxCell%3E%3CmxCell%20id%3D%2225%22%20value%3D%22%26amp%3Blt%3Buse%26amp%3Bgt%3B%22%20style%3D%22html%3D1%3BverticalAlign%3Dbottom%3BendArrow%3Dopen%3Bcurved%3D0%3Brounded%3D0%3BendFill%3D0%3BentryX%3D0.5%3BentryY%3D0%3BentryDx%3D0%3BentryDy%3D0%3B%22%20edge%3D%221%22%20parent%3D%221%22%3E%3CmxGeometry%20x%3D%22-0.6364%22%20y%3D%2210%22%20width%3D%2280%22%20relative%3D%221%22%20as%3D%22geometry%22%3E%3CmxPoint%20x%3D%22590%22%20y%3D%222240%22%20as%3D%22sourcePoint%22%2F%3E%3CmxPoint%20x%3D%22805%22%20y%3D%222300%22%20as%3D%22targetPoint%22%2F%3E%3CmxPoint%20as%3D%22offset%22%2F%3E%3CArray%20as%3D%22points%22%3E%3CmxPoint%20x%3D%22590%22%20y%3D%222270%22%2F%3E%3CmxPoint%20x%3D%22805%22%20y%3D%222270%22%2F%3E%3C%2FArray%3E%3C%2FmxGeometry%3E%3C%2FmxCell%3E%3CmxCell%20id%3D%2226%22%20value%3D%22%22%20style%3D%22html%3D1%3BverticalAlign%3Dbottom%3BendArrow%3Dopen%3Bcurved%3D0%3Brounded%3D0%3BendFill%3D0%3BentryX%3D0.5%3BentryY%3D0%3BentryDx%3D0%3BentryDy%3D0%3B%22%20edge%3D%221%22%20parent%3D%221%22%3E%3CmxGeometry%20x%3D%220.1429%22%20y%3D%2220%22%20width%3D%2280%22%20relative%3D%221%22%20as%3D%22geometry%22%3E%3CmxPoint%20x%3D%22590%22%20y%3D%222240%22%20as%3D%22sourcePoint%22%2F%3E%3CmxPoint%20x%3D%22370%22%20y%3D%222300%22%20as%3D%22targetPoint%22%2F%3E%3CmxPoint%20as%3D%22offset%22%2F%3E%3CArray%20as%3D%22points%22%3E%3CmxPoint%20x%3D%22590%22%20y%3D%222270%22%2F%3E%3CmxPoint%20x%3D%22370%22%20y%3D%222270%22%2F%3E%3C%2FArray%3E%3C%2FmxGeometry%3E%3C%2FmxCell%3E%3CmxCell%20id%3D%2227%22%20value%3D%22%26amp%3Blt%3Buse%26amp%3Bgt%3B%22%20style%3D%22html%3D1%3BverticalAlign%3Dbottom%3BendArrow%3Dopen%3Bcurved%3D0%3Brounded%3D0%3BendFill%3D0%3BentryX%3D0.5%3BentryY%3D0%3BentryDx%3D0%3BentryDy%3D0%3BexitX%3D0.5%3BexitY%3D1%3BexitDx%3D0%3BexitDy%3D0%3B%22%20edge%3D%221%22%20source%3D%228%22%20parent%3D%221%22%3E%3CmxGeometry%20x%3D%22-0.7273%22%20y%3D%2215%22%20width%3D%2280%22%20relative%3D%221%22%20as%3D%22geometry%22%3E%3CmxPoint%20x%3D%22590%22%20y%3D%222370%22%20as%3D%22sourcePoint%22%2F%3E%3CmxPoint%20x%3D%22805%22%20y%3D%222430%22%20as%3D%22targetPoint%22%2F%3E%3CmxPoint%20as%3D%22offset%22%2F%3E%3CArray%20as%3D%22points%22%3E%3CmxPoint%20x%3D%22665%22%20y%3D%222400%22%2F%3E%3CmxPoint%20x%3D%22805%22%20y%3D%222400%22%2F%3E%3C%2FArray%3E%3C%2FmxGeometry%3E%3C%2FmxCell%3E%3CmxCell%20id%3D%2228%22%20value%3D%22%26amp%3Blt%3Buse%26amp%3Bgt%3B%22%20style%3D%22html%3D1%3BverticalAlign%3Dbottom%3BendArrow%3Dopen%3Bcurved%3D0%3Brounded%3D0%3BendFill%3D0%3BentryX%3D0.5%3BentryY%3D0%3BentryDx%3D0%3BentryDy%3D0%3BexitX%3D0.5%3BexitY%3D1%3BexitDx%3D0%3BexitDy%3D0%3B%22%20edge%3D%221%22%20target%3D%2210%22%20parent%3D%221%22%3E%3CmxGeometry%20x%3D%22-0.3631%22%20y%3D%2220%22%20width%3D%2280%22%20relative%3D%221%22%20as%3D%22geometry%22%3E%3CmxPoint%20x%3D%22519.94%22%20y%3D%222350%22%20as%3D%22sourcePoint%22%2F%3E%3CmxPoint%20x%3D%22659.94%22%20y%3D%222430%22%20as%3D%22targetPoint%22%2F%3E%3CmxPoint%20as%3D%22offset%22%2F%3E%3CArray%20as%3D%22points%22%3E%3CmxPoint%20x%3D%22519.94%22%20y%3D%222400%22%2F%3E%3CmxPoint%20x%3D%22650%22%20y%3D%222400%22%2F%3E%3C%2FArray%3E%3C%2FmxGeometry%3E%3C%2FmxCell%3E%3CmxCell%20id%3D%2229%22%20value%3D%22%22%20style%3D%22html%3D1%3BverticalAlign%3Dbottom%3BendArrow%3Dopen%3Bcurved%3D0%3Brounded%3D0%3BendFill%3D0%3BentryX%3D0.5%3BentryY%3D0%3BentryDx%3D0%3BentryDy%3D0%3B%22%20edge%3D%221%22%20parent%3D%221%22%3E%3CmxGeometry%20x%3D%220.1429%22%20y%3D%2220%22%20width%3D%2280%22%20relative%3D%221%22%20as%3D%22geometry%22%3E%3CmxPoint%20x%3D%22520%22%20y%3D%222350%22%20as%3D%22sourcePoint%22%2F%3E%3CmxPoint%20x%3D%22370%22%20y%3D%222430%22%20as%3D%22targetPoint%22%2F%3E%3CmxPoint%20as%3D%22offset%22%2F%3E%3CArray%20as%3D%22points%22%3E%3CmxPoint%20x%3D%22520%22%20y%3D%222400%22%2F%3E%3CmxPoint%20x%3D%22370%22%20y%3D%222400%22%2F%3E%3C%2FArray%3E%3C%2FmxGeometry%3E%3C%2FmxCell%3E%3CmxCell%20id%3D%2230%22%20value%3D%22%22%20style%3D%22html%3D1%3BverticalAlign%3Dbottom%3BendArrow%3Dopen%3Bcurved%3D0%3Brounded%3D0%3BendFill%3D0%3BentryX%3D0.5%3BentryY%3D0%3BentryDx%3D0%3BentryDy%3D0%3B%22%20edge%3D%221%22%20parent%3D%221%22%3E%3CmxGeometry%20x%3D%220.1429%22%20y%3D%2220%22%20width%3D%2280%22%20relative%3D%221%22%20as%3D%22geometry%22%3E%3CmxPoint%20x%3D%22520%22%20y%3D%222350%22%20as%3D%22sourcePoint%22%2F%3E%3CmxPoint%20x%3D%22519.94%22%20y%3D%222430%22%20as%3D%22targetPoint%22%2F%3E%3CmxPoint%20as%3D%22offset%22%2F%3E%3C%2FmxGeometry%3E%3C%2FmxCell%3E%3CmxCell%20id%3D%2231%22%20value%3D%22%26amp%3Blt%3Buse%26amp%3Bgt%3B%22%20style%3D%22html%3D1%3BverticalAlign%3Dbottom%3BendArrow%3Dopen%3Bcurved%3D0%3Brounded%3D0%3BendFill%3D0%3BentryX%3D0.5%3BentryY%3D0%3BentryDx%3D0%3BentryDy%3D0%3BexitX%3D0.5%3BexitY%3D1%3BexitDx%3D0%3BexitDy%3D0%3B%22%20edge%3D%221%22%20source%3D%225%22%20parent%3D%221%22%3E%3CmxGeometry%20x%3D%22-0.5385%22%20y%3D%22-10%22%20width%3D%2280%22%20relative%3D%221%22%20as%3D%22geometry%22%3E%3CmxPoint%20x%3D%2250%22%20y%3D%222350%22%20as%3D%22sourcePoint%22%2F%3E%3CmxPoint%20x%3D%22190%22%20y%3D%222430%22%20as%3D%22targetPoint%22%2F%3E%3CmxPoint%20as%3D%22offset%22%2F%3E%3CArray%20as%3D%22points%22%3E%3CmxPoint%20x%3D%22370%22%20y%3D%222390%22%2F%3E%3CmxPoint%20x%3D%22190%22%20y%3D%222390%22%2F%3E%3C%2FArray%3E%3C%2FmxGeometry%3E%3C%2FmxCell%3E%3CmxCell%20id%3D%2232%22%20value%3D%221%22%20style%3D%22endArrow%3Dopen%3Bhtml%3D1%3BendSize%3D12%3BstartArrow%3DdiamondThin%3BstartSize%3D14%3BstartFill%3D1%3BedgeStyle%3DorthogonalEdgeStyle%3Balign%3Dleft%3BverticalAlign%3Dbottom%3Brounded%3D0%3BexitX%3D0.5%3BexitY%3D1%3BexitDx%3D0%3BexitDy%3D0%3B%22%20edge%3D%221%22%20source%3D%2211%22%20parent%3D%221%22%3E%3CmxGeometry%20x%3D%22-0.2082%22%20y%3D%2210%22%20relative%3D%221%22%20as%3D%22geometry%22%3E%3CmxPoint%20x%3D%22370%22%20y%3D%222600%22%20as%3D%22sourcePoint%22%2F%3E%3CmxPoint%20x%3D%22370%22%20y%3D%222530%22%20as%3D%22targetPoint%22%2F%3E%3CmxPoint%20as%3D%22offset%22%2F%3E%3C%2FmxGeometry%3E%3C%2FmxCell%3E%3CmxCell%20id%3D%2233%22%20value%3D%221%22%20style%3D%22edgeLabel%3Bhtml%3D1%3Balign%3Dcenter%3BverticalAlign%3Dmiddle%3Bresizable%3D0%3Bpoints%3D%5B%5D%3Brotation%3D0%3B%22%20connectable%3D%220%22%20vertex%3D%221%22%20parent%3D%221%22%3E%3CmxGeometry%20x%3D%22339.9957797360771%22%20y%3D%222510.001872082444%22%20as%3D%22geometry%22%3E%3CmxPoint%20x%3D%2245%22%20y%3D%2212.000000000000004%22%20as%3D%22offset%22%2F%3E%3C%2FmxGeometry%3E%3C%2FmxCell%3E%3CmxCell%20id%3D%2234%22%20value%3D%221%22%20style%3D%22endArrow%3Dopen%3Bhtml%3D1%3BendSize%3D12%3BstartArrow%3DdiamondThin%3BstartSize%3D14%3BstartFill%3D1%3BedgeStyle%3DorthogonalEdgeStyle%3Balign%3Dleft%3BverticalAlign%3Dbottom%3Brounded%3D0%3BexitX%3D0.5%3BexitY%3D0%3BexitDx%3D0%3BexitDy%3D0%3BentryX%3D0.5%3BentryY%3D1%3BentryDx%3D0%3BentryDy%3D0%3B%22%20edge%3D%221%22%20source%3D%2218%22%20target%3D%2220%22%20parent%3D%221%22%3E%3CmxGeometry%20x%3D%22-0.907%22%20y%3D%22-5%22%20relative%3D%221%22%20as%3D%22geometry%22%3E%3CmxPoint%20x%3D%22339.15999999999997%22%20y%3D%222600%22%20as%3D%22sourcePoint%22%2F%3E%3CmxPoint%20x%3D%22339.15999999999997%22%20y%3D%222650%22%20as%3D%22targetPoint%22%2F%3E%3CmxPoint%20y%3D%22-1%22%20as%3D%22offset%22%2F%3E%3C%2FmxGeometry%3E%3C%2FmxCell%3E%3CmxCell%20id%3D%2235%22%20value%3D%221%22%20style%3D%22edgeLabel%3Bhtml%3D1%3Balign%3Dcenter%3BverticalAlign%3Dmiddle%3Bresizable%3D0%3Bpoints%3D%5B%5D%3Brotation%3D0%3B%22%20connectable%3D%220%22%20vertex%3D%221%22%20parent%3D%221%22%3E%3CmxGeometry%20x%3D%22339.99577973607705%22%20y%3D%222580.001872082444%22%20as%3D%22geometry%22%3E%3CmxPoint%20x%3D%2245%22%20y%3D%2212.000000000000004%22%20as%3D%22offset%22%2F%3E%3C%2FmxGeometry%3E%3C%2FmxCell%3E%3CmxCell%20id%3D%2236%22%20value%3D%221%22%20style%3D%22endArrow%3Dopen%3Bhtml%3D1%3BendSize%3D12%3BstartArrow%3DdiamondThin%3BstartSize%3D14%3BstartFill%3D1%3BedgeStyle%3DorthogonalEdgeStyle%3Balign%3Dleft%3BverticalAlign%3Dbottom%3Brounded%3D0%3BexitX%3D0.5%3BexitY%3D0%3BexitDx%3D0%3BexitDy%3D0%3BentryX%3D0.5%3BentryY%3D1%3BentryDx%3D0%3BentryDy%3D0%3B%22%20edge%3D%221%22%20source%3D%2221%22%20target%3D%2220%22%20parent%3D%221%22%3E%3CmxGeometry%20x%3D%22-1%22%20y%3D%22-15%22%20relative%3D%221%22%20as%3D%22geometry%22%3E%3CmxPoint%20x%3D%22275%22%20y%3D%222700%22%20as%3D%22sourcePoint%22%2F%3E%3CmxPoint%20x%3D%22380%22%20y%3D%222590%22%20as%3D%22targetPoint%22%2F%3E%3CmxPoint%20as%3D%22offset%22%2F%3E%3C%2FmxGeometry%3E%3C%2FmxCell%3E%3CmxCell%20id%3D%2237%22%20value%3D%221%22%20style%3D%22endArrow%3Dopen%3Bhtml%3D1%3BendSize%3D12%3BstartArrow%3DdiamondThin%3BstartSize%3D14%3BstartFill%3D1%3BedgeStyle%3DorthogonalEdgeStyle%3Balign%3Dleft%3BverticalAlign%3Dbottom%3Brounded%3D0%3BexitX%3D0.5%3BexitY%3D1%3BexitDx%3D0%3BexitDy%3D0%3BentryX%3D0.5%3BentryY%3D0%3BentryDx%3D0%3BentryDy%3D0%3B%22%20edge%3D%221%22%20source%3D%2218%22%20target%3D%2219%22%20parent%3D%221%22%3E%3CmxGeometry%20x%3D%22-0.7143%22%20y%3D%22-15%22%20relative%3D%221%22%20as%3D%22geometry%22%3E%3CmxPoint%20x%3D%22264.44%22%20y%3D%222819.44%22%20as%3D%22sourcePoint%22%2F%3E%3CmxPoint%20x%3D%22369.44%22%20y%3D%222709.44%22%20as%3D%22targetPoint%22%2F%3E%3CmxPoint%20as%3D%22offset%22%2F%3E%3C%2FmxGeometry%3E%3C%2FmxCell%3E%3CmxCell%20id%3D%2238%22%20value%3D%221%22%20style%3D%22edgeLabel%3Bhtml%3D1%3Balign%3Dcenter%3BverticalAlign%3Dmiddle%3Bresizable%3D0%3Bpoints%3D%5B%5D%3Brotation%3D0%3B%22%20connectable%3D%220%22%20vertex%3D%221%22%20parent%3D%221%22%3E%3CmxGeometry%20x%3D%22209.99577973607705%22%20y%3D%222860.001872082444%22%20as%3D%22geometry%22%3E%3CmxPoint%20x%3D%2245%22%20y%3D%2212.000000000000004%22%20as%3D%22offset%22%2F%3E%3C%2FmxGeometry%3E%3C%2FmxCell%3E%3CmxCell%20id%3D%2239%22%20value%3D%221%22%20style%3D%22endArrow%3Dopen%3Bhtml%3D1%3BendSize%3D12%3BstartArrow%3DdiamondThin%3BstartSize%3D14%3BstartFill%3D0%3BedgeStyle%3DorthogonalEdgeStyle%3Balign%3Dleft%3BverticalAlign%3Dbottom%3Brounded%3D0%3BentryX%3D0.5%3BentryY%3D0%3BentryDx%3D0%3BentryDy%3D0%3BexitX%3D0.75%3BexitY%3D1%3BexitDx%3D0%3BexitDy%3D0%3B%22%20edge%3D%221%22%20source%3D%2218%22%20target%3D%2217%22%20parent%3D%221%22%3E%3CmxGeometry%20x%3D%22-0.9231%22%20y%3D%227%22%20relative%3D%221%22%20as%3D%22geometry%22%3E%3CmxPoint%20x%3D%22800%22%20y%3D%222218.5%22%20as%3D%22sourcePoint%22%2F%3E%3CmxPoint%20x%3D%22974%22%20y%3D%223471.5%22%20as%3D%22targetPoint%22%2F%3E%3CArray%20as%3D%22points%22%3E%3CmxPoint%20x%3D%22293%22%20y%3D%222850%22%2F%3E%3CmxPoint%20x%3D%22523%22%20y%3D%222850%22%2F%3E%3C%2FArray%3E%3CmxPoint%20as%3D%22offset%22%2F%3E%3C%2FmxGeometry%3E%3C%2FmxCell%3E%3CmxCell%20id%3D%2240%22%20value%3D%22n%22%20style%3D%22edgeLabel%3Bhtml%3D1%3Balign%3Dcenter%3BverticalAlign%3Dmiddle%3Bresizable%3D0%3Bpoints%3D%5B%5D%3Brotation%3D0%3B%22%20connectable%3D%220%22%20vertex%3D%221%22%20parent%3D%221%22%3E%3CmxGeometry%20x%3D%22484.995779736077%22%20y%3D%223000.001872082444%22%20as%3D%22geometry%22%3E%3CmxPoint%20x%3D%2245%22%20y%3D%2212.000000000000004%22%20as%3D%22offset%22%2F%3E%3C%2FmxGeometry%3E%3C%2FmxCell%3E%3CmxCell%20id%3D%2241%22%20value%3D%221%22%20style%3D%22endArrow%3Dopen%3Bhtml%3D1%3BendSize%3D12%3BstartArrow%3DdiamondThin%3BstartSize%3D14%3BstartFill%3D0%3BedgeStyle%3DorthogonalEdgeStyle%3Balign%3Dleft%3BverticalAlign%3Dbottom%3Brounded%3D0%3BentryX%3D0.5%3BentryY%3D0%3BentryDx%3D0%3BentryDy%3D0%3BexitX%3D0.75%3BexitY%3D1%3BexitDx%3D0%3BexitDy%3D0%3B%22%20edge%3D%221%22%20target%3D%2216%22%20parent%3D%221%22%3E%3CmxGeometry%20x%3D%22-0.8462%22%20y%3D%225%22%20relative%3D%221%22%20as%3D%22geometry%22%3E%3CmxPoint%20x%3D%22265%22%20y%3D%222930%22%20as%3D%22sourcePoint%22%2F%3E%3CmxPoint%20x%3D%22495%22%20y%3D%223220%22%20as%3D%22targetPoint%22%2F%3E%3CArray%20as%3D%22points%22%3E%3CmxPoint%20x%3D%22265%22%20y%3D%222970%22%2F%3E%3CmxPoint%20x%3D%22155%22%20y%3D%222970%22%2F%3E%3C%2FArray%3E%3CmxPoint%20as%3D%22offset%22%2F%3E%3C%2FmxGeometry%3E%3C%2FmxCell%3E%3CmxCell%20id%3D%2242%22%20value%3D%22n%22%20style%3D%22edgeLabel%3Bhtml%3D1%3Balign%3Dcenter%3BverticalAlign%3Dmiddle%3Bresizable%3D0%3Bpoints%3D%5B%5D%3Brotation%3D0%3B%22%20connectable%3D%220%22%20vertex%3D%221%22%20parent%3D%221%22%3E%3CmxGeometry%20x%3D%22129.995779736077%22%20y%3D%223055.001872082444%22%20as%3D%22geometry%22%3E%3CmxPoint%20x%3D%2245%22%20y%3D%2212.000000000000004%22%20as%3D%22offset%22%2F%3E%3C%2FmxGeometry%3E%3C%2FmxCell%3E%3CmxCell%20id%3D%2243%22%20value%3D%221%22%20style%3D%22endArrow%3Dopen%3Bhtml%3D1%3BendSize%3D12%3BstartArrow%3DdiamondThin%3BstartSize%3D14%3BstartFill%3D0%3BedgeStyle%3DorthogonalEdgeStyle%3Balign%3Dleft%3BverticalAlign%3Dbottom%3Brounded%3D0%3BexitX%3D0.5%3BexitY%3D1%3BexitDx%3D0%3BexitDy%3D0%3B%22%20edge%3D%221%22%20source%3D%2221%22%20parent%3D%221%22%3E%3CmxGeometry%20x%3D%22-0.937%22%20y%3D%225%22%20relative%3D%221%22%20as%3D%22geometry%22%3E%3CmxPoint%20x%3D%22300%22%20y%3D%222930%22%20as%3D%22sourcePoint%22%2F%3E%3CmxPoint%20x%3D%22190%22%20y%3D%223080%22%20as%3D%22targetPoint%22%2F%3E%3CArray%20as%3D%22points%22%3E%3CmxPoint%20x%3D%22485%22%20y%3D%222980%22%2F%3E%3CmxPoint%20x%3D%22190%22%20y%3D%222980%22%2F%3E%3C%2FArray%3E%3CmxPoint%20as%3D%22offset%22%2F%3E%3C%2FmxGeometry%3E%3C%2FmxCell%3E%3CmxCell%20id%3D%2244%22%20value%3D%22n%22%20style%3D%22edgeLabel%3Bhtml%3D1%3Balign%3Dcenter%3BverticalAlign%3Dmiddle%3Bresizable%3D0%3Bpoints%3D%5B%5D%3Brotation%3D0%3B%22%20connectable%3D%220%22%20vertex%3D%221%22%20parent%3D%221%22%3E%3CmxGeometry%20x%3D%22159.995779736077%22%20y%3D%223055.001872082444%22%20as%3D%22geometry%22%3E%3CmxPoint%20x%3D%2245%22%20y%3D%2212.000000000000004%22%20as%3D%22offset%22%2F%3E%3C%2FmxGeometry%3E%3C%2FmxCell%3E%3CmxCell%20id%3D%2245%22%20value%3D%221%22%20style%3D%22endArrow%3Dopen%3Bhtml%3D1%3BendSize%3D12%3BstartArrow%3DdiamondThin%3BstartSize%3D14%3BstartFill%3D1%3BedgeStyle%3DorthogonalEdgeStyle%3Balign%3Dleft%3BverticalAlign%3Dbottom%3Brounded%3D0%3BexitX%3D0.25%3BexitY%3D1%3BexitDx%3D0%3BexitDy%3D0%3BentryX%3D1%3BentryY%3D0.5%3BentryDx%3D0%3BentryDy%3D0%3B%22%20edge%3D%221%22%20source%3D%227%22%20target%3D%2218%22%20parent%3D%221%22%3E%3CmxGeometry%20x%3D%22-0.8215%22%20y%3D%22-10%22%20relative%3D%221%22%20as%3D%22geometry%22%3E%3CmxPoint%20x%3D%22439.47%22%20y%3D%222440%22%20as%3D%22sourcePoint%22%2F%3E%3CmxPoint%20x%3D%22439.47%22%20y%3D%222580%22%20as%3D%22targetPoint%22%2F%3E%3CmxPoint%20as%3D%22offset%22%2F%3E%3CArray%20as%3D%22points%22%3E%3CmxPoint%20x%3D%22488%22%20y%3D%222380%22%2F%3E%3CmxPoint%20x%3D%22450%22%20y%3D%222380%22%2F%3E%3CmxPoint%20x%3D%22450%22%20y%3D%222620%22%2F%3E%3CmxPoint%20x%3D%22410%22%20y%3D%222620%22%2F%3E%3CmxPoint%20x%3D%22410%22%20y%3D%222715%22%2F%3E%3C%2FArray%3E%3C%2FmxGeometry%3E%3C%2FmxCell%3E%3CmxCell%20id%3D%2246%22%20value%3D%22n%22%20style%3D%22edgeLabel%3Bhtml%3D1%3Balign%3Dcenter%3BverticalAlign%3Dmiddle%3Bresizable%3D0%3Bpoints%3D%5B%5D%3Brotation%3D0%3B%22%20connectable%3D%220%22%20vertex%3D%221%22%20parent%3D%221%22%3E%3CmxGeometry%20x%3D%22289.995779736077%22%20y%3D%222720.001872082444%22%20as%3D%22geometry%22%3E%3CmxPoint%20x%3D%2245%22%20y%3D%2212.000000000000004%22%20as%3D%22offset%22%2F%3E%3C%2FmxGeometry%3E%3C%2FmxCell%3E%3CmxCell%20id%3D%2247%22%20value%3D%22n%22%20style%3D%22edgeLabel%3Bhtml%3D1%3Balign%3Dcenter%3BverticalAlign%3Dmiddle%3Bresizable%3D0%3Bpoints%3D%5B%5D%3Brotation%3D0%3B%22%20connectable%3D%220%22%20vertex%3D%221%22%20parent%3D%221%22%3E%3CmxGeometry%20x%3D%22529.995779736077%22%20y%3D%223000.001872082444%22%20as%3D%22geometry%22%3E%3CmxPoint%20x%3D%2245%22%20y%3D%2212.000000000000004%22%20as%3D%22offset%22%2F%3E%3C%2FmxGeometry%3E%3C%2FmxCell%3E%3CmxCell%20id%3D%2248%22%20value%3D%221%22%20style%3D%22endArrow%3Dopen%3Bhtml%3D1%3BendSize%3D12%3BstartArrow%3DdiamondThin%3BstartSize%3D14%3BstartFill%3D0%3BedgeStyle%3DorthogonalEdgeStyle%3Balign%3Dleft%3BverticalAlign%3Dbottom%3Brounded%3D0%3BentryX%3D0.75%3BentryY%3D0%3BentryDx%3D0%3BentryDy%3D0%3BexitX%3D0.75%3BexitY%3D1%3BexitDx%3D0%3BexitDy%3D0%3B%22%20edge%3D%221%22%20target%3D%2217%22%20parent%3D%221%22%3E%3CmxGeometry%20x%3D%22-0.9231%22%20y%3D%227%22%20relative%3D%221%22%20as%3D%22geometry%22%3E%3CmxPoint%20x%3D%22519.95%22%20y%3D%222480%22%20as%3D%22sourcePoint%22%2F%3E%3CmxPoint%20x%3D%22749.95%22%20y%3D%222770%22%20as%3D%22targetPoint%22%2F%3E%3CArray%20as%3D%22points%22%3E%3CmxPoint%20x%3D%22520%22%20y%3D%222590%22%2F%3E%3CmxPoint%20x%3D%22551%22%20y%3D%222590%22%2F%3E%3C%2FArray%3E%3CmxPoint%20as%3D%22offset%22%2F%3E%3C%2FmxGeometry%3E%3C%2FmxCell%3E%3CmxCell%20id%3D%2249%22%20value%3D%221%22%20style%3D%22endArrow%3Dopen%3Bhtml%3D1%3BendSize%3D12%3BstartArrow%3DdiamondThin%3BstartSize%3D14%3BstartFill%3D0%3BedgeStyle%3DorthogonalEdgeStyle%3Balign%3Dleft%3BverticalAlign%3Dbottom%3Brounded%3D0%3BentryX%3D0.75%3BentryY%3D0%3BentryDx%3D0%3BentryDy%3D0%3BexitX%3D0.75%3BexitY%3D1%3BexitDx%3D0%3BexitDy%3D0%3B%22%20edge%3D%221%22%20target%3D%2218%22%20parent%3D%221%22%3E%3CmxGeometry%20x%3D%22-0.9446%22%20y%3D%225%22%20relative%3D%221%22%20as%3D%22geometry%22%3E%3CmxPoint%20x%3D%22805%22%20y%3D%222480%22%20as%3D%22sourcePoint%22%2F%3E%3CmxPoint%20x%3D%221035%22%20y%3D%222770%22%20as%3D%22targetPoint%22%2F%3E%3CArray%20as%3D%22points%22%3E%3CmxPoint%20x%3D%22805%22%20y%3D%222650%22%2F%3E%3CmxPoint%20x%3D%22293%22%20y%3D%222650%22%2F%3E%3C%2FArray%3E%3CmxPoint%20as%3D%22offset%22%2F%3E%3C%2FmxGeometry%3E%3C%2FmxCell%3E%3CmxCell%20id%3D%2250%22%20value%3D%221%22%20style%3D%22endArrow%3Dopen%3Bhtml%3D1%3BendSize%3D12%3BstartArrow%3DdiamondThin%3BstartSize%3D14%3BstartFill%3D0%3BedgeStyle%3DorthogonalEdgeStyle%3Balign%3Dleft%3BverticalAlign%3Dbottom%3Brounded%3D0%3BentryX%3D0.25%3BentryY%3D1%3BentryDx%3D0%3BentryDy%3D0%3BexitX%3D1%3BexitY%3D0.25%3BexitDx%3D0%3BexitDy%3D0%3B%22%20edge%3D%221%22%20source%3D%224%22%20target%3D%2218%22%20parent%3D%221%22%3E%3CmxGeometry%20x%3D%22-0.9838%22%20y%3D%225%22%20relative%3D%221%22%20as%3D%22geometry%22%3E%3CmxPoint%20x%3D%22920%22%20y%3D%222310%22%20as%3D%22sourcePoint%22%2F%3E%3CmxPoint%20x%3D%22951.05%22%20y%3D%222860%22%20as%3D%22targetPoint%22%2F%3E%3CArray%20as%3D%22points%22%3E%3CmxPoint%20x%3D%22920%22%20y%3D%222312%22%2F%3E%3CmxPoint%20x%3D%22920%22%20y%3D%222780%22%2F%3E%3CmxPoint%20x%3D%22237%22%20y%3D%222780%22%2F%3E%3C%2FArray%3E%3CmxPoint%20x%3D%22-1%22%20as%3D%22offset%22%2F%3E%3C%2FmxGeometry%3E%3C%2FmxCell%3E%3CmxCell%20id%3D%2251%22%20value%3D%22n%22%20style%3D%22edgeLabel%3Bhtml%3D1%3Balign%3Dcenter%3BverticalAlign%3Dmiddle%3Bresizable%3D0%3Bpoints%3D%5B%5D%3Brotation%3D0%3B%22%20connectable%3D%220%22%20vertex%3D%221%22%20parent%3D%221%22%3E%3CmxGeometry%20x%3D%22169.995779736077%22%20y%3D%222740.001872082444%22%20as%3D%22geometry%22%3E%3CmxPoint%20x%3D%2245%22%20y%3D%2212.000000000000004%22%20as%3D%22offset%22%2F%3E%3C%2FmxGeometry%3E%3C%2FmxCell%3E%3CmxCell%20id%3D%2252%22%20value%3D%221%22%20style%3D%22endArrow%3Dopen%3Bhtml%3D1%3BendSize%3D12%3BstartArrow%3DdiamondThin%3BstartSize%3D14%3BstartFill%3D0%3BedgeStyle%3DorthogonalEdgeStyle%3Balign%3Dleft%3BverticalAlign%3Dbottom%3Brounded%3D0%3BentryX%3D1%3BentryY%3D0.5%3BentryDx%3D0%3BentryDy%3D0%3BexitX%3D1%3BexitY%3D0.5%3BexitDx%3D0%3BexitDy%3D0%3B%22%20edge%3D%221%22%20target%3D%2221%22%20parent%3D%221%22%3E%3CmxGeometry%20x%3D%22-0.9838%22%20y%3D%225%22%20relative%3D%221%22%20as%3D%22geometry%22%3E%3CmxPoint%20x%3D%22862%22%20y%3D%222338%22%20as%3D%22sourcePoint%22%2F%3E%3CmxPoint%20x%3D%22240%22%20y%3D%222753%22%20as%3D%22targetPoint%22%2F%3E%3CArray%20as%3D%22points%22%3E%3CmxPoint%20x%3D%22900%22%20y%3D%222338%22%2F%3E%3CmxPoint%20x%3D%22900%22%20y%3D%222715%22%2F%3E%3C%2FArray%3E%3CmxPoint%20x%3D%22-1%22%20as%3D%22offset%22%2F%3E%3C%2FmxGeometry%3E%3C%2FmxCell%3E%3CmxCell%20id%3D%2253%22%20value%3D%221%22%20style%3D%22edgeLabel%3Bhtml%3D1%3Balign%3Dcenter%3BverticalAlign%3Dmiddle%3Bresizable%3D0%3Bpoints%3D%5B%5D%3Brotation%3D0%3B%22%20connectable%3D%220%22%20vertex%3D%221%22%20parent%3D%221%22%3E%3CmxGeometry%20x%3D%22514.9957797360771%22%20y%3D%222690.001872082444%22%20as%3D%22geometry%22%3E%3CmxPoint%20x%3D%2245%22%20y%3D%2212.000000000000004%22%20as%3D%22offset%22%2F%3E%3C%2FmxGeometry%3E%3C%2FmxCell%3E%3CmxCell%20id%3D%2254%22%20value%3D%221%22%20style%3D%22endArrow%3Dopen%3Bhtml%3D1%3BendSize%3D12%3BstartArrow%3DdiamondThin%3BstartSize%3D14%3BstartFill%3D1%3BedgeStyle%3DorthogonalEdgeStyle%3Balign%3Dleft%3BverticalAlign%3Dbottom%3Brounded%3D0%3BexitX%3D0%3BexitY%3D0.5%3BexitDx%3D0%3BexitDy%3D0%3BentryX%3D0.182%3BentryY%3D-0.018%3BentryDx%3D0%3BentryDy%3D0%3BentryPerimeter%3D0%3B%22%20edge%3D%221%22%20source%3D%225%22%20target%3D%2216%22%20parent%3D%221%22%3E%3CmxGeometry%20x%3D%22-0.9684%22%20y%3D%2225%22%20relative%3D%221%22%20as%3D%22geometry%22%3E%3CmxPoint%20x%3D%22330%22%20y%3D%222350%22%20as%3D%22sourcePoint%22%2F%3E%3CmxPoint%20x%3D%22162%22%20y%3D%222715%22%20as%3D%22targetPoint%22%2F%3E%3CmxPoint%20as%3D%22offset%22%2F%3E%3CArray%20as%3D%22points%22%3E%3CmxPoint%20x%3D%22250%22%20y%3D%222325%22%2F%3E%3CmxPoint%20x%3D%22250%22%20y%3D%222620%22%2F%3E%3CmxPoint%20x%3D%22120%22%20y%3D%222620%22%2F%3E%3C%2FArray%3E%3C%2FmxGeometry%3E%3C%2FmxCell%3E%3CmxCell%20id%3D%2255%22%20value%3D%22n%22%20style%3D%22edgeLabel%3Bhtml%3D1%3Balign%3Dcenter%3BverticalAlign%3Dmiddle%3Bresizable%3D0%3Bpoints%3D%5B%5D%3Brotation%3D0%3B%22%20connectable%3D%220%22%20vertex%3D%221%22%20parent%3D%221%22%3E%3CmxGeometry%20x%3D%2259.995779736077%22%20y%3D%223055.001872082444%22%20as%3D%22geometry%22%3E%3CmxPoint%20x%3D%2245%22%20y%3D%2212.000000000000004%22%20as%3D%22offset%22%2F%3E%3C%2FmxGeometry%3E%3C%2FmxCell%3E%3CmxCell%20id%3D%2256%22%20value%3D%221%22%20style%3D%22endArrow%3Dopen%3Bhtml%3D1%3BendSize%3D12%3BstartArrow%3DdiamondThin%3BstartSize%3D14%3BstartFill%3D0%3BedgeStyle%3DorthogonalEdgeStyle%3Balign%3Dleft%3BverticalAlign%3Dbottom%3Brounded%3D0%3BentryX%3D1%3BentryY%3D0.5%3BentryDx%3D0%3BentryDy%3D0%3BexitX%3D0%3BexitY%3D0.5%3BexitDx%3D0%3BexitDy%3D0%3B%22%20edge%3D%221%22%20source%3D%227%22%20target%3D%2216%22%20parent%3D%221%22%3E%3CmxGeometry%20x%3D%22-0.9231%22%20y%3D%227%22%20relative%3D%221%22%20as%3D%22geometry%22%3E%3CmxPoint%20x%3D%22438.95000000000005%22%20y%3D%222338%22%20as%3D%22sourcePoint%22%2F%3E%3CmxPoint%20x%3D%22470%22%20y%3D%222888%22%20as%3D%22targetPoint%22%2F%3E%3CArray%20as%3D%22points%22%3E%3CmxPoint%20x%3D%22430%22%20y%3D%222325%22%2F%3E%3CmxPoint%20x%3D%22430%22%20y%3D%223105%22%2F%3E%3C%2FArray%3E%3CmxPoint%20as%3D%22offset%22%2F%3E%3C%2FmxGeometry%3E%3C%2FmxCell%3E%3CmxCell%20id%3D%2257%22%20value%3D%22n%22%20style%3D%22edgeLabel%3Bhtml%3D1%3Balign%3Dcenter%3BverticalAlign%3Dmiddle%3Bresizable%3D0%3Bpoints%3D%5B%5D%3Brotation%3D0%3B%22%20connectable%3D%220%22%20vertex%3D%221%22%20parent%3D%221%22%3E%3CmxGeometry%20x%3D%22169.995779736077%22%20y%3D%223080.001872082444%22%20as%3D%22geometry%22%3E%3CmxPoint%20x%3D%2245%22%20y%3D%2212.000000000000004%22%20as%3D%22offset%22%2F%3E%3C%2FmxGeometry%3E%3C%2FmxCell%3E%3CmxCell%20id%3D%2258%22%20value%3D%221%22%20style%3D%22endArrow%3Dopen%3Bhtml%3D1%3BendSize%3D12%3BstartArrow%3DdiamondThin%3BstartSize%3D14%3BstartFill%3D0%3BedgeStyle%3DorthogonalEdgeStyle%3Balign%3Dleft%3BverticalAlign%3Dbottom%3Brounded%3D0%3BexitX%3D0%3BexitY%3D0.5%3BexitDx%3D0%3BexitDy%3D0%3B%22%20edge%3D%221%22%20source%3D%228%22%20parent%3D%221%22%3E%3CmxGeometry%20x%3D%22-0.9231%22%20y%3D%227%22%20relative%3D%221%22%20as%3D%22geometry%22%3E%3CmxPoint%20x%3D%22455%22%20y%3D%222365%22%20as%3D%22sourcePoint%22%2F%3E%3CmxPoint%20x%3D%22195%22%20y%3D%223130%22%20as%3D%22targetPoint%22%2F%3E%3CArray%20as%3D%22points%22%3E%3CmxPoint%20x%3D%22590%22%20y%3D%222325%22%2F%3E%3CmxPoint%20x%3D%22590%22%20y%3D%223170%22%2F%3E%3CmxPoint%20x%3D%22195%22%20y%3D%223170%22%2F%3E%3C%2FArray%3E%3CmxPoint%20as%3D%22offset%22%2F%3E%3C%2FmxGeometry%3E%3C%2FmxCell%3E%3CmxCell%20id%3D%2259%22%20value%3D%22n%22%20style%3D%22edgeLabel%3Bhtml%3D1%3Balign%3Dcenter%3BverticalAlign%3Dmiddle%3Bresizable%3D0%3Bpoints%3D%5B%5D%3Brotation%3D0%3B%22%20connectable%3D%220%22%20vertex%3D%221%22%20parent%3D%221%22%3E%3CmxGeometry%20x%3D%22139.995779736077%22%20y%3D%223130.001872082444%22%20as%3D%22geometry%22%3E%3CmxPoint%20x%3D%2245%22%20y%3D%2212.000000000000004%22%20as%3D%22offset%22%2F%3E%3C%2FmxGeometry%3E%3C%2FmxCell%3E%3CmxCell%20id%3D%2260%22%20value%3D%221%22%20style%3D%22endArrow%3Dopen%3Bhtml%3D1%3BendSize%3D12%3BstartArrow%3DdiamondThin%3BstartSize%3D14%3BstartFill%3D0%3BedgeStyle%3DorthogonalEdgeStyle%3Balign%3Dleft%3BverticalAlign%3Dbottom%3Brounded%3D0%3BexitX%3D0.5%3BexitY%3D1%3BexitDx%3D0%3BexitDy%3D0%3BentryX%3D1%3BentryY%3D0.25%3BentryDx%3D0%3BentryDy%3D0%3B%22%20edge%3D%221%22%20target%3D%2218%22%20parent%3D%221%22%3E%3CmxGeometry%20x%3D%22-0.937%22%20y%3D%225%22%20relative%3D%221%22%20as%3D%22geometry%22%3E%3CmxPoint%20x%3D%22625%22%20y%3D%222350%22%20as%3D%22sourcePoint%22%2F%3E%3CmxPoint%20x%3D%22330%22%20y%3D%222690%22%20as%3D%22targetPoint%22%2F%3E%3CArray%20as%3D%22points%22%3E%3CmxPoint%20x%3D%22625%22%20y%3D%222380%22%2F%3E%3CmxPoint%20x%3D%22590%22%20y%3D%222380%22%2F%3E%3CmxPoint%20x%3D%22590%22%20y%3D%222640%22%2F%3E%3CmxPoint%20x%3D%22350%22%20y%3D%222640%22%2F%3E%3CmxPoint%20x%3D%22350%22%20y%3D%222703%22%2F%3E%3C%2FArray%3E%3CmxPoint%20as%3D%22offset%22%2F%3E%3C%2FmxGeometry%3E%3C%2FmxCell%3E%3CmxCell%20id%3D%2261%22%20value%3D%221%22%20style%3D%22edgeLabel%3Bhtml%3D1%3Balign%3Dcenter%3BverticalAlign%3Dmiddle%3Bresizable%3D0%3Bpoints%3D%5B%5D%3Brotation%3D0%3B%22%20connectable%3D%220%22%20vertex%3D%221%22%20parent%3D%221%22%3E%3CmxGeometry%20x%3D%22259.99577973607705%22%20y%3D%222670.001872082444%22%20as%3D%22geometry%22%3E%3CmxPoint%20x%3D%2245%22%20y%3D%2212.000000000000004%22%20as%3D%22offset%22%2F%3E%3C%2FmxGeometry%3E%3C%2FmxCell%3E%3CmxCell%20id%3D%2262%22%20value%3D%22n%22%20style%3D%22edgeLabel%3Bhtml%3D1%3Balign%3Dcenter%3BverticalAlign%3Dmiddle%3Bresizable%3D0%3Bpoints%3D%5B%5D%3Brotation%3D0%3B%22%20connectable%3D%220%22%20vertex%3D%221%22%20parent%3D%221%22%3E%3CmxGeometry%20x%3D%22279.99577973607705%22%20y%3D%222680.001872082444%22%20as%3D%22geometry%22%3E%3CmxPoint%20x%3D%2245%22%20y%3D%2212.000000000000004%22%20as%3D%22offset%22%2F%3E%3C%2FmxGeometry%3E%3C%2FmxCell%3E%3CmxCell%20id%3D%2263%22%20value%3D%221%22%20style%3D%22endArrow%3Dopen%3Bhtml%3D1%3BendSize%3D12%3BstartArrow%3DdiamondThin%3BstartSize%3D14%3BstartFill%3D1%3BedgeStyle%3DorthogonalEdgeStyle%3Balign%3Dleft%3BverticalAlign%3Dbottom%3Brounded%3D0%3BexitX%3D1%3BexitY%3D0.5%3BexitDx%3D0%3BexitDy%3D0%3BentryX%3D0%3BentryY%3D0.5%3BentryDx%3D0%3BentryDy%3D0%3B%22%20edge%3D%221%22%20source%3D%2215%22%20target%3D%2218%22%20parent%3D%221%22%3E%3CmxGeometry%20x%3D%22-0.9344%22%20relative%3D%221%22%20as%3D%22geometry%22%3E%3CmxPoint%20x%3D%22-60%22%20y%3D%222550%22%20as%3D%22sourcePoint%22%2F%3E%3CmxPoint%20x%3D%22-120%22%20y%3D%222550%22%20as%3D%22targetPoint%22%2F%3E%3CmxPoint%20x%3D%22-1%22%20as%3D%22offset%22%2F%3E%3CArray%20as%3D%22points%22%3E%3CmxPoint%20x%3D%22160%22%20y%3D%222860%22%2F%3E%3CmxPoint%20x%3D%22160%22%20y%3D%222715%22%2F%3E%3C%2FArray%3E%3C%2FmxGeometry%3E%3C%2FmxCell%3E%3CmxCell%20id%3D%2264%22%20value%3D%221%22%20style%3D%22endArrow%3Dopen%3Bhtml%3D1%3BendSize%3D12%3BstartArrow%3DdiamondThin%3BstartSize%3D14%3BstartFill%3D1%3BedgeStyle%3DorthogonalEdgeStyle%3Balign%3Dleft%3BverticalAlign%3Dbottom%3Brounded%3D0%3BexitX%3D1%3BexitY%3D0.5%3BexitDx%3D0%3BexitDy%3D0%3BentryX%3D0%3BentryY%3D0.5%3BentryDx%3D0%3BentryDy%3D0%3B%22%20edge%3D%221%22%20target%3D%2216%22%20parent%3D%221%22%3E%3CmxGeometry%20x%3D%22-0.9344%22%20relative%3D%221%22%20as%3D%22geometry%22%3E%3CmxPoint%20x%3D%2250%22%20y%3D%222879.94%22%20as%3D%22sourcePoint%22%2F%3E%3CmxPoint%20x%3D%22210%22%20y%3D%222734.94%22%20as%3D%22targetPoint%22%2F%3E%3CmxPoint%20x%3D%22-1%22%20as%3D%22offset%22%2F%3E%3CArray%20as%3D%22points%22%3E%3CmxPoint%20x%3D%2280%22%20y%3D%222880%22%2F%3E%3CmxPoint%20x%3D%2280%22%20y%3D%223105%22%2F%3E%3C%2FArray%3E%3C%2FmxGeometry%3E%3C%2FmxCell%3E%3CmxCell%20id%3D%2265%22%20value%3D%22n%22%20style%3D%22edgeLabel%3Bhtml%3D1%3Balign%3Dcenter%3BverticalAlign%3Dmiddle%3Bresizable%3D0%3Bpoints%3D%5B%5D%3Brotation%3D0%3B%22%20connectable%3D%220%22%20vertex%3D%221%22%20parent%3D%221%22%3E%3CmxGeometry%20x%3D%2239.995779736077%22%20y%3D%223105.001872082444%22%20as%3D%22geometry%22%3E%3CmxPoint%20x%3D%2245%22%20y%3D%2212.000000000000004%22%20as%3D%22offset%22%2F%3E%3C%2FmxGeometry%3E%3C%2FmxCell%3E%3CmxCell%20id%3D%2266%22%20value%3D%22n%22%20style%3D%22edgeLabel%3Bhtml%3D1%3Balign%3Dcenter%3BverticalAlign%3Dmiddle%3Bresizable%3D0%3Bpoints%3D%5B%5D%3Brotation%3D0%3B%22%20connectable%3D%220%22%20vertex%3D%221%22%20parent%3D%221%22%3E%3CmxGeometry%20x%3D%22154.995779736077%22%20y%3D%222690.001872082444%22%20as%3D%22geometry%22%3E%3CmxPoint%20x%3D%2245%22%20y%3D%2212.000000000000004%22%20as%3D%22offset%22%2F%3E%3C%2FmxGeometry%3E%3C%2FmxCell%3E%3CmxCell%20id%3D%2267%22%20value%3D%22%26amp%3Blt%3Buse%26amp%3Bgt%3B%22%20style%3D%22html%3D1%3BverticalAlign%3Dbottom%3BendArrow%3Dopen%3Bcurved%3D0%3Brounded%3D0%3BendFill%3D0%3BentryX%3D1%3BentryY%3D0.5%3BentryDx%3D0%3BentryDy%3D0%3BexitX%3D0%3BexitY%3D0.75%3BexitDx%3D0%3BexitDy%3D0%3B%22%20edge%3D%221%22%20source%3D%2218%22%20target%3D%2213%22%20parent%3D%221%22%3E%3CmxGeometry%20x%3D%220.1429%22%20y%3D%2220%22%20width%3D%2280%22%20relative%3D%221%22%20as%3D%22geometry%22%3E%3CmxPoint%20x%3D%2250%22%20y%3D%222690%22%20as%3D%22sourcePoint%22%2F%3E%3CmxPoint%20x%3D%2250%22%20y%3D%222760%22%20as%3D%22targetPoint%22%2F%3E%3CmxPoint%20as%3D%22offset%22%2F%3E%3CArray%20as%3D%22points%22%3E%3CmxPoint%20x%3D%22150%22%20y%3D%222730%22%2F%3E%3CmxPoint%20x%3D%22150%22%20y%3D%222765%22%2F%3E%3C%2FArray%3E%3C%2FmxGeometry%3E%3C%2FmxCell%3E%3CmxCell%20id%3D%2268%22%20value%3D%22%26amp%3Blt%3Buse%26amp%3Bgt%3B%22%20style%3D%22html%3D1%3BverticalAlign%3Dbottom%3BendArrow%3Dopen%3Bcurved%3D0%3Brounded%3D0%3BendFill%3D0%3BentryX%3D1%3BentryY%3D0.75%3BentryDx%3D0%3BentryDy%3D0%3BexitX%3D0%3BexitY%3D0%3BexitDx%3D0%3BexitDy%3D0%3B%22%20edge%3D%221%22%20source%3D%2216%22%20target%3D%2213%22%20parent%3D%221%22%3E%3CmxGeometry%20x%3D%220.8851%22%20y%3D%2222%22%20width%3D%2280%22%20relative%3D%221%22%20as%3D%22geometry%22%3E%3CmxPoint%20x%3D%22100%22%20y%3D%222770%22%20as%3D%22sourcePoint%22%2F%3E%3CmxPoint%20x%3D%22100%22%20y%3D%222840%22%20as%3D%22targetPoint%22%2F%3E%3CmxPoint%20as%3D%22offset%22%2F%3E%3CArray%20as%3D%22points%22%3E%3CmxPoint%20x%3D%22100%22%20y%3D%222778%22%2F%3E%3C%2FArray%3E%3C%2FmxGeometry%3E%3C%2FmxCell%3E%3CmxCell%20id%3D%2269%22%20value%3D%22%26amp%3Blt%3Buse%26amp%3Bgt%3B%22%20style%3D%22html%3D1%3BverticalAlign%3Dbottom%3BendArrow%3Dopen%3Bcurved%3D0%3Brounded%3D0%3BendFill%3D0%3BentryX%3D0.5%3BentryY%3D0%3BentryDx%3D0%3BentryDy%3D0%3BexitX%3D0.25%3BexitY%3D0%3BexitDx%3D0%3BexitDy%3D0%3B%22%20edge%3D%221%22%20source%3D%2218%22%20parent%3D%221%22%3E%3CmxGeometry%20x%3D%220.6154%22%20y%3D%2220%22%20width%3D%2280%22%20relative%3D%221%22%20as%3D%22geometry%22%3E%3CmxPoint%20x%3D%22-30%22%20y%3D%222575%22%20as%3D%22sourcePoint%22%2F%3E%3CmxPoint%20x%3D%22-30%22%20y%3D%222645%22%20as%3D%22targetPoint%22%2F%3E%3CmxPoint%20x%3D%22-1%22%20as%3D%22offset%22%2F%3E%3CArray%20as%3D%22points%22%3E%3CmxPoint%20x%3D%22237%22%20y%3D%222580%22%2F%3E%3CmxPoint%20x%3D%22-30%22%20y%3D%222580%22%2F%3E%3C%2FArray%3E%3C%2FmxGeometry%3E%3C%2FmxCell%3E%3CmxCell%20id%3D%2270%22%20value%3D%22%26amp%3Blt%3Buse%26amp%3Bgt%3B%22%20style%3D%22html%3D1%3BverticalAlign%3Dbottom%3BendArrow%3Dopen%3Bcurved%3D0%3Brounded%3D0%3BendFill%3D0%3BentryX%3D0.5%3BentryY%3D0%3BentryDx%3D0%3BentryDy%3D0%3BexitX%3D0%3BexitY%3D0.5%3BexitDx%3D0%3BexitDy%3D0%3B%22%20edge%3D%221%22%20source%3D%2220%22%20parent%3D%221%22%3E%3CmxGeometry%20x%3D%220.1429%22%20y%3D%2220%22%20width%3D%2280%22%20relative%3D%221%22%20as%3D%22geometry%22%3E%3CmxPoint%20x%3D%2210%22%20y%3D%222575%22%20as%3D%22sourcePoint%22%2F%3E%3CmxPoint%20x%3D%2210%22%20y%3D%222645%22%20as%3D%22targetPoint%22%2F%3E%3CmxPoint%20as%3D%22offset%22%2F%3E%3CArray%20as%3D%22points%22%3E%3CmxPoint%20x%3D%2210%22%20y%3D%222555%22%2F%3E%3C%2FArray%3E%3C%2FmxGeometry%3E%3C%2FmxCell%3E%3CmxCell%20id%3D%2271%22%20value%3D%22%26amp%3Blt%3Buse%26amp%3Bgt%3B%22%20style%3D%22html%3D1%3BverticalAlign%3Dbottom%3BendArrow%3Dopen%3Bcurved%3D0%3Brounded%3D0%3BendFill%3D0%3BentryX%3D0.5%3BentryY%3D0%3BentryDx%3D0%3BentryDy%3D0%3BexitX%3D0.335%3BexitY%3D-0.012%3BexitDx%3D0%3BexitDy%3D0%3BexitPerimeter%3D0%3B%22%20edge%3D%221%22%20source%3D%2216%22%20parent%3D%221%22%3E%3CmxGeometry%20x%3D%220.1429%22%20y%3D%2220%22%20width%3D%2280%22%20relative%3D%221%22%20as%3D%22geometry%22%3E%3CmxPoint%20x%3D%2248.82000000000005%22%20y%3D%222575%22%20as%3D%22sourcePoint%22%2F%3E%3CmxPoint%20x%3D%2248.82000000000005%22%20y%3D%222645%22%20as%3D%22targetPoint%22%2F%3E%3CmxPoint%20as%3D%22offset%22%2F%3E%3CArray%20as%3D%22points%22%3E%3CmxPoint%20x%3D%22140%22%20y%3D%222600%22%2F%3E%3CmxPoint%20x%3D%2250%22%20y%3D%222600%22%2F%3E%3C%2FArray%3E%3C%2FmxGeometry%3E%3C%2FmxCell%3E%3C%2Froot%3E%3C%2FmxGraphModel%3E&lt;/span&gt;&lt;br&gt;&lt;/div&gt;&lt;div&gt;&lt;span style=&quot;color: rgba(0, 0, 0, 0); font-family: monospace; font-size: 0px; text-wrap: nowrap;&quot;&gt;%3CmxGraphModel%3E%3Croot%3E%3CmxCell%20id%3D%220%22%2F%3E%3CmxCell%20id%3D%221%22%20parent%3D%220%22%2F%3E%3CmxCell%20id%3D%222%22%20value%3D%22MainForm%22%20style%3D%22html%3D1%3BwhiteSpace%3Dwrap%3B%22%20vertex%3D%221%22%20parent%3D%221%22%3E%3CmxGeometry%20x%3D%22535%22%20y%3D%222190%22%20width%3D%22110%22%20height%3D%2250%22%20as%3D%22geometry%22%2F%3E%3C%2FmxCell%3E%3CmxCell%20id%3D%223%22%20value%3D%22Program%22%20style%3D%22html%3D1%3BwhiteSpace%3Dwrap%3B%22%20vertex%3D%221%22%20parent%3D%221%22%3E%3CmxGeometry%20x%3D%22535%22%20y%3D%222070%22%20width%3D%22110%22%20height%3D%2250%22%20as%3D%22geometry%22%2F%3E%3C%2FmxCell%3E%3CmxCell%20id%3D%224%22%20value%3D%22OrdersTab%22%20style%3D%22html%3D1%3BwhiteSpace%3Dwrap%3B%22%20vertex%3D%221%22%20parent%3D%221%22%3E%3CmxGeometry%20x%3D%22750%22%20y%3D%222300%22%20width%3D%22110%22%20height%3D%2250%22%20as%3D%22geometry%22%2F%3E%3C%2FmxCell%3E%3CmxCell%20id%3D%225%22%20value%3D%22ItemsTab%22%20style%3D%22html%3D1%3BwhiteSpace%3Dwrap%3B%22%20vertex%3D%221%22%20parent%3D%221%22%3E%3CmxGeometry%20x%3D%22315%22%20y%3D%222300%22%20width%3D%22110%22%20height%3D%2250%22%20as%3D%22geometry%22%2F%3E%3C%2FmxCell%3E%3CmxCell%20id%3D%226%22%20value%3D%22DiscountsTab%22%20style%3D%22html%3D1%3BwhiteSpace%3Dwrap%3B%22%20vertex%3D%221%22%20parent%3D%221%22%3E%3CmxGeometry%20x%3D%22460%22%20y%3D%222430%22%20width%3D%22110%22%20height%3D%2250%22%20as%3D%22geometry%22%2F%3E%3C%2FmxCell%3E%3CmxCell%20id%3D%227%22%20value%3D%22CustomersTab%22%20style%3D%22html%3D1%3BwhiteSpace%3Dwrap%3B%22%20vertex%3D%221%22%20parent%3D%221%22%3E%3CmxGeometry%20x%3D%22460%22%20y%3D%222300%22%20width%3D%22110%22%20height%3D%2250%22%20as%3D%22geometry%22%2F%3E%3C%2FmxCell%3E%3CmxCell%20id%3D%228%22%20value%3D%22CartsTab%22%20style%3D%22html%3D1%3BwhiteSpace%3Dwrap%3B%22%20vertex%3D%221%22%20parent%3D%221%22%3E%3CmxGeometry%20x%3D%22610%22%20y%3D%222300%22%20width%3D%22110%22%20height%3D%2250%22%20as%3D%22geometry%22%2F%3E%3C%2FmxCell%3E%3CmxCell%20id%3D%229%22%20value%3D%22CartDiscountPanel%22%20style%3D%22html%3D1%3BwhiteSpace%3Dwrap%3B%22%20vertex%3D%221%22%20parent%3D%221%22%3E%3CmxGeometry%20x%3D%22750%22%20y%3D%222430%22%20width%3D%22110%22%20height%3D%2250%22%20as%3D%22geometry%22%2F%3E%3C%2FmxCell%3E%3CmxCell%20id%3D%2210%22%20value%3D%22AddDiscountForm%22%20style%3D%22html%3D1%3BwhiteSpace%3Dwrap%3B%22%20vertex%3D%221%22%20parent%3D%221%22%3E%3CmxGeometry%20x%3D%22595%22%20y%3D%222430%22%20width%3D%22110%22%20height%3D%2250%22%20as%3D%22geometry%22%2F%3E%3C%2FmxCell%3E%3CmxCell%20id%3D%2211%22%20value%3D%22AddressControl%22%20style%3D%22html%3D1%3BwhiteSpace%3Dwrap%3B%22%20vertex%3D%221%22%20parent%3D%221%22%3E%3CmxGeometry%20x%3D%22315%22%20y%3D%222430%22%20width%3D%22110%22%20height%3D%2250%22%20as%3D%22geometry%22%2F%3E%3C%2FmxCell%3E%3CmxCell%20id%3D%2212%22%20value%3D%22DataTools%22%20style%3D%22html%3D1%3BwhiteSpace%3Dwrap%3B%22%20vertex%3D%221%22%20parent%3D%221%22%3E%3CmxGeometry%20x%3D%22130.00000000000006%22%20y%3D%222430%22%20width%3D%22110%22%20height%3D%2250%22%20as%3D%22geometry%22%2F%3E%3C%2FmxCell%3E%3CmxCell%20id%3D%2213%22%20value%3D%22IdGenerator%22%20style%3D%22html%3D1%3BwhiteSpace%3Dwrap%3B%22%20vertex%3D%221%22%20parent%3D%221%22%3E%3CmxGeometry%20x%3D%22-59.99999999999994%22%20y%3D%222740%22%20width%3D%22110%22%20height%3D%2250%22%20as%3D%22geometry%22%2F%3E%3C%2FmxCell%3E%3CmxCell%20id%3D%2214%22%20value%3D%22ValueValidator%22%20style%3D%22html%3D1%3BwhiteSpace%3Dwrap%3B%22%20vertex%3D%221%22%20parent%3D%221%22%3E%3CmxGeometry%20x%3D%22-49.99999999999994%22%20y%3D%222645%22%20width%3D%22110%22%20height%3D%2250%22%20as%3D%22geometry%22%2F%3E%3C%2FmxCell%3E%3CmxCell%20id%3D%2215%22%20value%3D%22Store%22%20style%3D%22html%3D1%3BwhiteSpace%3Dwrap%3B%22%20vertex%3D%221%22%20parent%3D%221%22%3E%3CmxGeometry%20x%3D%22-59.99999999999994%22%20y%3D%222835%22%20width%3D%22110%22%20height%3D%2250%22%20as%3D%22geometry%22%2F%3E%3C%2FmxCell%3E%3CmxCell%20id%3D%2216%22%20value%3D%22Item%22%20style%3D%22html%3D1%3BwhiteSpace%3Dwrap%3B%22%20vertex%3D%221%22%20parent%3D%221%22%3E%3CmxGeometry%20x%3D%22100.00000000000006%22%20y%3D%223080%22%20width%3D%22110%22%20height%3D%2250%22%20as%3D%22geometry%22%2F%3E%3C%2FmxCell%3E%3CmxCell%20id%3D%2217%22%20value%3D%22IDiscount%22%20style%3D%22html%3D1%3BwhiteSpace%3Dwrap%3B%22%20vertex%3D%221%22%20parent%3D%221%22%3E%3CmxGeometry%20x%3D%22468.12000000000006%22%20y%3D%223030%22%20width%3D%22110%22%20height%3D%2250%22%20as%3D%22geometry%22%2F%3E%3C%2FmxCell%3E%3CmxCell%20id%3D%2218%22%20value%3D%22Customer%22%20style%3D%22html%3D1%3BwhiteSpace%3Dwrap%3B%22%20vertex%3D%221%22%20parent%3D%221%22%3E%3CmxGeometry%20x%3D%22210.00000000000006%22%20y%3D%222690%22%20width%3D%22110%22%20height%3D%2250%22%20as%3D%22geometry%22%2F%3E%3C%2FmxCell%3E%3CmxCell%20id%3D%2219%22%20value%3D%22Cart%22%20style%3D%22html%3D1%3BwhiteSpace%3Dwrap%3B%22%20vertex%3D%221%22%20parent%3D%221%22%3E%3CmxGeometry%20x%3D%22210.00000000000006%22%20y%3D%222880%22%20width%3D%22110%22%20height%3D%2250%22%20as%3D%22geometry%22%2F%3E%3C%2FmxCell%3E%3CmxCell%20id%3D%2220%22%20value%3D%22Address%22%20style%3D%22html%3D1%3BwhiteSpace%3Dwrap%3B%22%20vertex%3D%221%22%20parent%3D%221%22%3E%3CmxGeometry%20x%3D%22315.00000000000006%22%20y%3D%222530%22%20width%3D%22110%22%20height%3D%2250%22%20as%3D%22geometry%22%2F%3E%3C%2FmxCell%3E%3CmxCell%20id%3D%2221%22%20value%3D%22Order%22%20style%3D%22html%3D1%3BwhiteSpace%3Dwrap%3B%22%20vertex%3D%221%22%20parent%3D%221%22%3E%3CmxGeometry%20x%3D%22430.00000000000006%22%20y%3D%222690%22%20width%3D%22110%22%20height%3D%2250%22%20as%3D%22geometry%22%2F%3E%3C%2FmxCell%3E%3CmxCell%20id%3D%2222%22%20value%3D%22%26amp%3Blt%3Buse%26amp%3Bgt%3B%22%20style%3D%22html%3D1%3BverticalAlign%3Dbottom%3BendArrow%3Dopen%3Bcurved%3D0%3Brounded%3D0%3BendFill%3D0%3BentryX%3D0.5%3BentryY%3D0%3BentryDx%3D0%3BentryDy%3D0%3BexitX%3D0.5%3BexitY%3D1%3BexitDx%3D0%3BexitDy%3D0%3B%22%20edge%3D%221%22%20source%3D%223%22%20target%3D%222%22%20parent%3D%221%22%3E%3CmxGeometry%20x%3D%220.1429%22%20y%3D%2220%22%20width%3D%2280%22%20relative%3D%221%22%20as%3D%22geometry%22%3E%3CmxPoint%20x%3D%22550%22%20y%3D%222140%22%20as%3D%22sourcePoint%22%2F%3E%3CmxPoint%20x%3D%22630%22%20y%3D%222140%22%20as%3D%22targetPoint%22%2F%3E%3CmxPoint%20as%3D%22offset%22%2F%3E%3C%2FmxGeometry%3E%3C%2FmxCell%3E%3CmxCell%20id%3D%2223%22%20value%3D%22%22%20style%3D%22html%3D1%3BverticalAlign%3Dbottom%3BendArrow%3Dopen%3Bcurved%3D0%3Brounded%3D0%3BendFill%3D0%3BentryX%3D0.5%3BentryY%3D0%3BentryDx%3D0%3BentryDy%3D0%3BexitX%3D0.5%3BexitY%3D1%3BexitDx%3D0%3BexitDy%3D0%3B%22%20edge%3D%221%22%20source%3D%222%22%20parent%3D%221%22%3E%3CmxGeometry%20x%3D%220.037%22%20y%3D%2220%22%20width%3D%2280%22%20relative%3D%221%22%20as%3D%22geometry%22%3E%3CmxPoint%20x%3D%22514.5%22%20y%3D%222230%22%20as%3D%22sourcePoint%22%2F%3E%3CmxPoint%20x%3D%22514.5%22%20y%3D%222300%22%20as%3D%22targetPoint%22%2F%3E%3CmxPoint%20as%3D%22offset%22%2F%3E%3CArray%20as%3D%22points%22%3E%3CmxPoint%20x%3D%22590%22%20y%3D%222270%22%2F%3E%3CmxPoint%20x%3D%22515%22%20y%3D%222270%22%2F%3E%3C%2FArray%3E%3C%2FmxGeometry%3E%3C%2FmxCell%3E%3CmxCell%20id%3D%2224%22%20value%3D%22%22%20style%3D%22html%3D1%3BverticalAlign%3Dbottom%3BendArrow%3Dopen%3Bcurved%3D0%3Brounded%3D0%3BendFill%3D0%3BentryX%3D0.5%3BentryY%3D0%3BentryDx%3D0%3BentryDy%3D0%3B%22%20edge%3D%221%22%20parent%3D%221%22%3E%3CmxGeometry%20x%3D%220.037%22%20y%3D%22-20%22%20width%3D%2280%22%20relative%3D%221%22%20as%3D%22geometry%22%3E%3CmxPoint%20x%3D%22590%22%20y%3D%222240%22%20as%3D%22sourcePoint%22%2F%3E%3CmxPoint%20x%3D%22664.5%22%20y%3D%222300%22%20as%3D%22targetPoint%22%2F%3E%3CmxPoint%20as%3D%22offset%22%2F%3E%3CArray%20as%3D%22points%22%3E%3CmxPoint%20x%3D%22590%22%20y%3D%222270%22%2F%3E%3CmxPoint%20x%3D%22665%22%20y%3D%222270%22%2F%3E%3C%2FArray%3E%3C%2FmxGeometry%3E%3C%2FmxCell%3E%3CmxCell%20id%3D%2225%22%20value%3D%22%26amp%3Blt%3Buse%26amp%3Bgt%3B%22%20style%3D%22html%3D1%3BverticalAlign%3Dbottom%3BendArrow%3Dopen%3Bcurved%3D0%3Brounded%3D0%3BendFill%3D0%3BentryX%3D0.5%3BentryY%3D0%3BentryDx%3D0%3BentryDy%3D0%3B%22%20edge%3D%221%22%20parent%3D%221%22%3E%3CmxGeometry%20x%3D%22-0.6364%22%20y%3D%2210%22%20width%3D%2280%22%20relative%3D%221%22%20as%3D%22geometry%22%3E%3CmxPoint%20x%3D%22590%22%20y%3D%222240%22%20as%3D%22sourcePoint%22%2F%3E%3CmxPoint%20x%3D%22805%22%20y%3D%222300%22%20as%3D%22targetPoint%22%2F%3E%3CmxPoint%20as%3D%22offset%22%2F%3E%3CArray%20as%3D%22points%22%3E%3CmxPoint%20x%3D%22590%22%20y%3D%222270%22%2F%3E%3CmxPoint%20x%3D%22805%22%20y%3D%222270%22%2F%3E%3C%2FArray%3E%3C%2FmxGeometry%3E%3C%2FmxCell%3E%3CmxCell%20id%3D%2226%22%20value%3D%22%22%20style%3D%22html%3D1%3BverticalAlign%3Dbottom%3BendArrow%3Dopen%3Bcurved%3D0%3Brounded%3D0%3BendFill%3D0%3BentryX%3D0.5%3BentryY%3D0%3BentryDx%3D0%3BentryDy%3D0%3B%22%20edge%3D%221%22%20parent%3D%221%22%3E%3CmxGeometry%20x%3D%220.1429%22%20y%3D%2220%22%20width%3D%2280%22%20relative%3D%221%22%20as%3D%22geometry%22%3E%3CmxPoint%20x%3D%22590%22%20y%3D%222240%22%20as%3D%22sourcePoint%22%2F%3E%3CmxPoint%20x%3D%22370%22%20y%3D%222300%22%20as%3D%22targetPoint%22%2F%3E%3CmxPoint%20as%3D%22offset%22%2F%3E%3CArray%20as%3D%22points%22%3E%3CmxPoint%20x%3D%22590%22%20y%3D%222270%22%2F%3E%3CmxPoint%20x%3D%22370%22%20y%3D%222270%22%2F%3E%3C%2FArray%3E%3C%2FmxGeometry%3E%3C%2FmxCell%3E%3CmxCell%20id%3D%2227%22%20value%3D%22%26amp%3Blt%3Buse%26amp%3Bgt%3B%22%20style%3D%22html%3D1%3BverticalAlign%3Dbottom%3BendArrow%3Dopen%3Bcurved%3D0%3Brounded%3D0%3BendFill%3D0%3BentryX%3D0.5%3BentryY%3D0%3BentryDx%3D0%3BentryDy%3D0%3BexitX%3D0.5%3BexitY%3D1%3BexitDx%3D0%3BexitDy%3D0%3B%22%20edge%3D%221%22%20source%3D%228%22%20parent%3D%221%22%3E%3CmxGeometry%20x%3D%22-0.7273%22%20y%3D%2215%22%20width%3D%2280%22%20relative%3D%221%22%20as%3D%22geometry%22%3E%3CmxPoint%20x%3D%22590%22%20y%3D%222370%22%20as%3D%22sourcePoint%22%2F%3E%3CmxPoint%20x%3D%22805%22%20y%3D%222430%22%20as%3D%22targetPoint%22%2F%3E%3CmxPoint%20as%3D%22offset%22%2F%3E%3CArray%20as%3D%22points%22%3E%3CmxPoint%20x%3D%22665%22%20y%3D%222400%22%2F%3E%3CmxPoint%20x%3D%22805%22%20y%3D%222400%22%2F%3E%3C%2FArray%3E%3C%2FmxGeometry%3E%3C%2FmxCell%3E%3CmxCell%20id%3D%2228%22%20value%3D%22%26amp%3Blt%3Buse%26amp%3Bgt%3B%22%20style%3D%22html%3D1%3BverticalAlign%3Dbottom%3BendArrow%3Dopen%3Bcurved%3D0%3Brounded%3D0%3BendFill%3D0%3BentryX%3D0.5%3BentryY%3D0%3BentryDx%3D0%3BentryDy%3D0%3BexitX%3D0.5%3BexitY%3D1%3BexitDx%3D0%3BexitDy%3D0%3B%22%20edge%3D%221%22%20target%3D%2210%22%20parent%3D%221%22%3E%3CmxGeometry%20x%3D%22-0.3631%22%20y%3D%2220%22%20width%3D%2280%22%20relative%3D%221%22%20as%3D%22geometry%22%3E%3CmxPoint%20x%3D%22519.94%22%20y%3D%222350%22%20as%3D%22sourcePoint%22%2F%3E%3CmxPoint%20x%3D%22659.94%22%20y%3D%222430%22%20as%3D%22targetPoint%22%2F%3E%3CmxPoint%20as%3D%22offset%22%2F%3E%3CArray%20as%3D%22points%22%3E%3CmxPoint%20x%3D%22519.94%22%20y%3D%222400%22%2F%3E%3CmxPoint%20x%3D%22650%22%20y%3D%222400%22%2F%3E%3C%2FArray%3E%3C%2FmxGeometry%3E%3C%2FmxCell%3E%3CmxCell%20id%3D%2229%22%20value%3D%22%22%20style%3D%22html%3D1%3BverticalAlign%3Dbottom%3BendArrow%3Dopen%3Bcurved%3D0%3Brounded%3D0%3BendFill%3D0%3BentryX%3D0.5%3BentryY%3D0%3BentryDx%3D0%3BentryDy%3D0%3B%22%20edge%3D%221%22%20parent%3D%221%22%3E%3CmxGeometry%20x%3D%220.1429%22%20y%3D%2220%22%20width%3D%2280%22%20relative%3D%221%22%20as%3D%22geometry%22%3E%3CmxPoint%20x%3D%22520%22%20y%3D%222350%22%20as%3D%22sourcePoint%22%2F%3E%3CmxPoint%20x%3D%22370%22%20y%3D%222430%22%20as%3D%22targetPoint%22%2F%3E%3CmxPoint%20as%3D%22offset%22%2F%3E%3CArray%20as%3D%22points%22%3E%3CmxPoint%20x%3D%22520%22%20y%3D%222400%22%2F%3E%3CmxPoint%20x%3D%22370%22%20y%3D%222400%22%2F%3E%3C%2FArray%3E%3C%2FmxGeometry%3E%3C%2FmxCell%3E%3CmxCell%20id%3D%2230%22%20value%3D%22%22%20style%3D%22html%3D1%3BverticalAlign%3Dbottom%3BendArrow%3Dopen%3Bcurved%3D0%3Brounded%3D0%3BendFill%3D0%3BentryX%3D0.5%3BentryY%3D0%3BentryDx%3D0%3BentryDy%3D0%3B%22%20edge%3D%221%22%20parent%3D%221%22%3E%3CmxGeometry%20x%3D%220.1429%22%20y%3D%2220%22%20width%3D%2280%22%20relative%3D%221%22%20as%3D%22geometry%22%3E%3CmxPoint%20x%3D%22520%22%20y%3D%222350%22%20as%3D%22sourcePoint%22%2F%3E%3CmxPoint%20x%3D%22519.94%22%20y%3D%222430%22%20as%3D%22targetPoint%22%2F%3E%3CmxPoint%20as%3D%22offset%22%2F%3E%3C%2FmxGeometry%3E%3C%2FmxCell%3E%3CmxCell%20id%3D%2231%22%20value%3D%22%26amp%3Blt%3Buse%26amp%3Bgt%3B%22%20style%3D%22html%3D1%3BverticalAlign%3Dbottom%3BendArrow%3Dopen%3Bcurved%3D0%3Brounded%3D0%3BendFill%3D0%3BentryX%3D0.5%3BentryY%3D0%3BentryDx%3D0%3BentryDy%3D0%3BexitX%3D0.5%3BexitY%3D1%3BexitDx%3D0%3BexitDy%3D0%3B%22%20edge%3D%221%22%20source%3D%225%22%20parent%3D%221%22%3E%3CmxGeometry%20x%3D%22-0.5385%22%20y%3D%22-10%22%20width%3D%2280%22%20relative%3D%221%22%20as%3D%22geometry%22%3E%3CmxPoint%20x%3D%2250%22%20y%3D%222350%22%20as%3D%22sourcePoint%22%2F%3E%3CmxPoint%20x%3D%22190%22%20y%3D%222430%22%20as%3D%22targetPoint%22%2F%3E%3CmxPoint%20as%3D%22offset%22%2F%3E%3CArray%20as%3D%22points%22%3E%3CmxPoint%20x%3D%22370%22%20y%3D%222390%22%2F%3E%3CmxPoint%20x%3D%22190%22%20y%3D%222390%22%2F%3E%3C%2FArray%3E%3C%2FmxGeometry%3E%3C%2FmxCell%3E%3CmxCell%20id%3D%2232%22%20value%3D%221%22%20style%3D%22endArrow%3Dopen%3Bhtml%3D1%3BendSize%3D12%3BstartArrow%3DdiamondThin%3BstartSize%3D14%3BstartFill%3D1%3BedgeStyle%3DorthogonalEdgeStyle%3Balign%3Dleft%3BverticalAlign%3Dbottom%3Brounded%3D0%3BexitX%3D0.5%3BexitY%3D1%3BexitDx%3D0%3BexitDy%3D0%3B%22%20edge%3D%221%22%20source%3D%2211%22%20parent%3D%221%22%3E%3CmxGeometry%20x%3D%22-0.2082%22%20y%3D%2210%22%20relative%3D%221%22%20as%3D%22geometry%22%3E%3CmxPoint%20x%3D%22370%22%20y%3D%222600%22%20as%3D%22sourcePoint%22%2F%3E%3CmxPoint%20x%3D%22370%22%20y%3D%222530%22%20as%3D%22targetPoint%22%2F%3E%3CmxPoint%20as%3D%22offset%22%2F%3E%3C%2FmxGeometry%3E%3C%2FmxCell%3E%3CmxCell%20id%3D%2233%22%20value%3D%221%22%20style%3D%22edgeLabel%3Bhtml%3D1%3Balign%3Dcenter%3BverticalAlign%3Dmiddle%3Bresizable%3D0%3Bpoints%3D%5B%5D%3Brotation%3D0%3B%22%20connectable%3D%220%22%20vertex%3D%221%22%20parent%3D%221%22%3E%3CmxGeometry%20x%3D%22339.9957797360771%22%20y%3D%222510.001872082444%22%20as%3D%22geometry%22%3E%3CmxPoint%20x%3D%2245%22%20y%3D%2212.000000000000004%22%20as%3D%22offset%22%2F%3E%3C%2FmxGeometry%3E%3C%2FmxCell%3E%3CmxCell%20id%3D%2234%22%20value%3D%221%22%20style%3D%22endArrow%3Dopen%3Bhtml%3D1%3BendSize%3D12%3BstartArrow%3DdiamondThin%3BstartSize%3D14%3BstartFill%3D1%3BedgeStyle%3DorthogonalEdgeStyle%3Balign%3Dleft%3BverticalAlign%3Dbottom%3Brounded%3D0%3BexitX%3D0.5%3BexitY%3D0%3BexitDx%3D0%3BexitDy%3D0%3BentryX%3D0.5%3BentryY%3D1%3BentryDx%3D0%3BentryDy%3D0%3B%22%20edge%3D%221%22%20source%3D%2218%22%20target%3D%2220%22%20parent%3D%221%22%3E%3CmxGeometry%20x%3D%22-0.907%22%20y%3D%22-5%22%20relative%3D%221%22%20as%3D%22geometry%22%3E%3CmxPoint%20x%3D%22339.15999999999997%22%20y%3D%222600%22%20as%3D%22sourcePoint%22%2F%3E%3CmxPoint%20x%3D%22339.15999999999997%22%20y%3D%222650%22%20as%3D%22targetPoint%22%2F%3E%3CmxPoint%20y%3D%22-1%22%20as%3D%22offset%22%2F%3E%3C%2FmxGeometry%3E%3C%2FmxCell%3E%3CmxCell%20id%3D%2235%22%20value%3D%221%22%20style%3D%22edgeLabel%3Bhtml%3D1%3Balign%3Dcenter%3BverticalAlign%3Dmiddle%3Bresizable%3D0%3Bpoints%3D%5B%5D%3Brotation%3D0%3B%22%20connectable%3D%220%22%20vertex%3D%221%22%20parent%3D%221%22%3E%3CmxGeometry%20x%3D%22339.99577973607705%22%20y%3D%222580.001872082444%22%20as%3D%22geometry%22%3E%3CmxPoint%20x%3D%2245%22%20y%3D%2212.000000000000004%22%20as%3D%22offset%22%2F%3E%3C%2FmxGeometry%3E%3C%2FmxCell%3E%3CmxCell%20id%3D%2236%22%20value%3D%221%22%20style%3D%22endArrow%3Dopen%3Bhtml%3D1%3BendSize%3D12%3BstartArrow%3DdiamondThin%3BstartSize%3D14%3BstartFill%3D1%3BedgeStyle%3DorthogonalEdgeStyle%3Balign%3Dleft%3BverticalAlign%3Dbottom%3Brounded%3D0%3BexitX%3D0.5%3BexitY%3D0%3BexitDx%3D0%3BexitDy%3D0%3BentryX%3D0.5%3BentryY%3D1%3BentryDx%3D0%3BentryDy%3D0%3B%22%20edge%3D%221%22%20source%3D%2221%22%20target%3D%2220%22%20parent%3D%221%22%3E%3CmxGeometry%20x%3D%22-1%22%20y%3D%22-15%22%20relative%3D%221%22%20as%3D%22geometry%22%3E%3CmxPoint%20x%3D%22275%22%20y%3D%222700%22%20as%3D%22sourcePoint%22%2F%3E%3CmxPoint%20x%3D%22380%22%20y%3D%222590%22%20as%3D%22targetPoint%22%2F%3E%3CmxPoint%20as%3D%22offset%22%2F%3E%3C%2FmxGeometry%3E%3C%2FmxCell%3E%3CmxCell%20id%3D%2237%22%20value%3D%221%22%20style%3D%22endArrow%3Dopen%3Bhtml%3D1%3BendSize%3D12%3BstartArrow%3DdiamondThin%3BstartSize%3D14%3BstartFill%3D1%3BedgeStyle%3DorthogonalEdgeStyle%3Balign%3Dleft%3BverticalAlign%3Dbottom%3Brounded%3D0%3BexitX%3D0.5%3BexitY%3D1%3BexitDx%3D0%3BexitDy%3D0%3BentryX%3D0.5%3BentryY%3D0%3BentryDx%3D0%3BentryDy%3D0%3B%22%20edge%3D%221%22%20source%3D%2218%22%20target%3D%2219%22%20parent%3D%221%22%3E%3CmxGeometry%20x%3D%22-0.7143%22%20y%3D%22-15%22%20relative%3D%221%22%20as%3D%22geometry%22%3E%3CmxPoint%20x%3D%22264.44%22%20y%3D%222819.44%22%20as%3D%22sourcePoint%22%2F%3E%3CmxPoint%20x%3D%22369.44%22%20y%3D%222709.44%22%20as%3D%22targetPoint%22%2F%3E%3CmxPoint%20as%3D%22offset%22%2F%3E%3C%2FmxGeometry%3E%3C%2FmxCell%3E%3CmxCell%20id%3D%2238%22%20value%3D%221%22%20style%3D%22edgeLabel%3Bhtml%3D1%3Balign%3Dcenter%3BverticalAlign%3Dmiddle%3Bresizable%3D0%3Bpoints%3D%5B%5D%3Brotation%3D0%3B%22%20connectable%3D%220%22%20vertex%3D%221%22%20parent%3D%221%22%3E%3CmxGeometry%20x%3D%22209.99577973607705%22%20y%3D%222860.001872082444%22%20as%3D%22geometry%22%3E%3CmxPoint%20x%3D%2245%22%20y%3D%2212.000000000000004%22%20as%3D%22offset%22%2F%3E%3C%2FmxGeometry%3E%3C%2FmxCell%3E%3CmxCell%20id%3D%2239%22%20value%3D%221%22%20style%3D%22endArrow%3Dopen%3Bhtml%3D1%3BendSize%3D12%3BstartArrow%3DdiamondThin%3BstartSize%3D14%3BstartFill%3D0%3BedgeStyle%3DorthogonalEdgeStyle%3Balign%3Dleft%3BverticalAlign%3Dbottom%3Brounded%3D0%3BentryX%3D0.5%3BentryY%3D0%3BentryDx%3D0%3BentryDy%3D0%3BexitX%3D0.75%3BexitY%3D1%3BexitDx%3D0%3BexitDy%3D0%3B%22%20edge%3D%221%22%20source%3D%2218%22%20target%3D%2217%22%20parent%3D%221%22%3E%3CmxGeometry%20x%3D%22-0.9231%22%20y%3D%227%22%20relative%3D%221%22%20as%3D%22geometry%22%3E%3CmxPoint%20x%3D%22800%22%20y%3D%222218.5%22%20as%3D%22sourcePoint%22%2F%3E%3CmxPoint%20x%3D%22974%22%20y%3D%223471.5%22%20as%3D%22targetPoint%22%2F%3E%3CArray%20as%3D%22points%22%3E%3CmxPoint%20x%3D%22293%22%20y%3D%222850%22%2F%3E%3CmxPoint%20x%3D%22523%22%20y%3D%222850%22%2F%3E%3C%2FArray%3E%3CmxPoint%20as%3D%22offset%22%2F%3E%3C%2FmxGeometry%3E%3C%2FmxCell%3E%3CmxCell%20id%3D%2240%22%20value%3D%22n%22%20style%3D%22edgeLabel%3Bhtml%3D1%3Balign%3Dcenter%3BverticalAlign%3Dmiddle%3Bresizable%3D0%3Bpoints%3D%5B%5D%3Brotation%3D0%3B%22%20connectable%3D%220%22%20vertex%3D%221%22%20parent%3D%221%22%3E%3CmxGeometry%20x%3D%22484.995779736077%22%20y%3D%223000.001872082444%22%20as%3D%22geometry%22%3E%3CmxPoint%20x%3D%2245%22%20y%3D%2212.000000000000004%22%20as%3D%22offset%22%2F%3E%3C%2FmxGeometry%3E%3C%2FmxCell%3E%3CmxCell%20id%3D%2241%22%20value%3D%221%22%20style%3D%22endArrow%3Dopen%3Bhtml%3D1%3BendSize%3D12%3BstartArrow%3DdiamondThin%3BstartSize%3D14%3BstartFill%3D0%3BedgeStyle%3DorthogonalEdgeStyle%3Balign%3Dleft%3BverticalAlign%3Dbottom%3Brounded%3D0%3BentryX%3D0.5%3BentryY%3D0%3BentryDx%3D0%3BentryDy%3D0%3BexitX%3D0.75%3BexitY%3D1%3BexitDx%3D0%3BexitDy%3D0%3B%22%20edge%3D%221%22%20target%3D%2216%22%20parent%3D%221%22%3E%3CmxGeometry%20x%3D%22-0.8462%22%20y%3D%225%22%20relative%3D%221%22%20as%3D%22geometry%22%3E%3CmxPoint%20x%3D%22265%22%20y%3D%222930%22%20as%3D%22sourcePoint%22%2F%3E%3CmxPoint%20x%3D%22495%22%20y%3D%223220%22%20as%3D%22targetPoint%22%2F%3E%3CArray%20as%3D%22points%22%3E%3CmxPoint%20x%3D%22265%22%20y%3D%222970%22%2F%3E%3CmxPoint%20x%3D%22155%22%20y%3D%222970%22%2F%3E%3C%2FArray%3E%3CmxPoint%20as%3D%22offset%22%2F%3E%3C%2FmxGeometry%3E%3C%2FmxCell%3E%3CmxCell%20id%3D%2242%22%20value%3D%22n%22%20style%3D%22edgeLabel%3Bhtml%3D1%3Balign%3Dcenter%3BverticalAlign%3Dmiddle%3Bresizable%3D0%3Bpoints%3D%5B%5D%3Brotation%3D0%3B%22%20connectable%3D%220%22%20vertex%3D%221%22%20parent%3D%221%22%3E%3CmxGeometry%20x%3D%22129.995779736077%22%20y%3D%223055.001872082444%22%20as%3D%22geometry%22%3E%3CmxPoint%20x%3D%2245%22%20y%3D%2212.000000000000004%22%20as%3D%22offset%22%2F%3E%3C%2FmxGeometry%3E%3C%2FmxCell%3E%3CmxCell%20id%3D%2243%22%20value%3D%221%22%20style%3D%22endArrow%3Dopen%3Bhtml%3D1%3BendSize%3D12%3BstartArrow%3DdiamondThin%3BstartSize%3D14%3BstartFill%3D0%3BedgeStyle%3DorthogonalEdgeStyle%3Balign%3Dleft%3BverticalAlign%3Dbottom%3Brounded%3D0%3BexitX%3D0.5%3BexitY%3D1%3BexitDx%3D0%3BexitDy%3D0%3B%22%20edge%3D%221%22%20source%3D%2221%22%20parent%3D%221%22%3E%3CmxGeometry%20x%3D%22-0.937%22%20y%3D%225%22%20relative%3D%221%22%20as%3D%22geometry%22%3E%3CmxPoint%20x%3D%22300%22%20y%3D%222930%22%20as%3D%22sourcePoint%22%2F%3E%3CmxPoint%20x%3D%22190%22%20y%3D%223080%22%20as%3D%22targetPoint%22%2F%3E%3CArray%20as%3D%22points%22%3E%3CmxPoint%20x%3D%22485%22%20y%3D%222980%22%2F%3E%3CmxPoint%20x%3D%22190%22%20y%3D%222980%22%2F%3E%3C%2FArray%3E%3CmxPoint%20as%3D%22offset%22%2F%3E%3C%2FmxGeometry%3E%3C%2FmxCell%3E%3CmxCell%20id%3D%2244%22%20value%3D%22n%22%20style%3D%22edgeLabel%3Bhtml%3D1%3Balign%3Dcenter%3BverticalAlign%3Dmiddle%3Bresizable%3D0%3Bpoints%3D%5B%5D%3Brotation%3D0%3B%22%20connectable%3D%220%22%20vertex%3D%221%22%20parent%3D%221%22%3E%3CmxGeometry%20x%3D%22159.995779736077%22%20y%3D%223055.001872082444%22%20as%3D%22geometry%22%3E%3CmxPoint%20x%3D%2245%22%20y%3D%2212.000000000000004%22%20as%3D%22offset%22%2F%3E%3C%2FmxGeometry%3E%3C%2FmxCell%3E%3CmxCell%20id%3D%2245%22%20value%3D%221%22%20style%3D%22endArrow%3Dopen%3Bhtml%3D1%3BendSize%3D12%3BstartArrow%3DdiamondThin%3BstartSize%3D14%3BstartFill%3D1%3BedgeStyle%3DorthogonalEdgeStyle%3Balign%3Dleft%3BverticalAlign%3Dbottom%3Brounded%3D0%3BexitX%3D0.25%3BexitY%3D1%3BexitDx%3D0%3BexitDy%3D0%3BentryX%3D1%3BentryY%3D0.5%3BentryDx%3D0%3BentryDy%3D0%3B%22%20edge%3D%221%22%20source%3D%227%22%20target%3D%2218%22%20parent%3D%221%22%3E%3CmxGeometry%20x%3D%22-0.8215%22%20y%3D%22-10%22%20relative%3D%221%22%20as%3D%22geometry%22%3E%3CmxPoint%20x%3D%22439.47%22%20y%3D%222440%22%20as%3D%22sourcePoint%22%2F%3E%3CmxPoint%20x%3D%22439.47%22%20y%3D%222580%22%20as%3D%22targetPoint%22%2F%3E%3CmxPoint%20as%3D%22offset%22%2F%3E%3CArray%20as%3D%22points%22%3E%3CmxPoint%20x%3D%22488%22%20y%3D%222380%22%2F%3E%3CmxPoint%20x%3D%22450%22%20y%3D%222380%22%2F%3E%3CmxPoint%20x%3D%22450%22%20y%3D%222620%22%2F%3E%3CmxPoint%20x%3D%22410%22%20y%3D%222620%22%2F%3E%3CmxPoint%20x%3D%22410%22%20y%3D%222715%22%2F%3E%3C%2FArray%3E%3C%2FmxGeometry%3E%3C%2FmxCell%3E%3CmxCell%20id%3D%2246%22%20value%3D%22n%22%20style%3D%22edgeLabel%3Bhtml%3D1%3Balign%3Dcenter%3BverticalAlign%3Dmiddle%3Bresizable%3D0%3Bpoints%3D%5B%5D%3Brotation%3D0%3B%22%20connectable%3D%220%22%20vertex%3D%221%22%20parent%3D%221%22%3E%3CmxGeometry%20x%3D%22289.995779736077%22%20y%3D%222720.001872082444%22%20as%3D%22geometry%22%3E%3CmxPoint%20x%3D%2245%22%20y%3D%2212.000000000000004%22%20as%3D%22offset%22%2F%3E%3C%2FmxGeometry%3E%3C%2FmxCell%3E%3CmxCell%20id%3D%2247%22%20value%3D%22n%22%20style%3D%22edgeLabel%3Bhtml%3D1%3Balign%3Dcenter%3BverticalAlign%3Dmiddle%3Bresizable%3D0%3Bpoints%3D%5B%5D%3Brotation%3D0%3B%22%20connectable%3D%220%22%20vertex%3D%221%22%20parent%3D%221%22%3E%3CmxGeometry%20x%3D%22529.995779736077%22%20y%3D%223000.001872082444%22%20as%3D%22geometry%22%3E%3CmxPoint%20x%3D%2245%22%20y%3D%2212.000000000000004%22%20as%3D%22offset%22%2F%3E%3C%2FmxGeometry%3E%3C%2FmxCell%3E%3CmxCell%20id%3D%2248%22%20value%3D%221%22%20style%3D%22endArrow%3Dopen%3Bhtml%3D1%3BendSize%3D12%3BstartArrow%3DdiamondThin%3BstartSize%3D14%3BstartFill%3D0%3BedgeStyle%3DorthogonalEdgeStyle%3Balign%3Dleft%3BverticalAlign%3Dbottom%3Brounded%3D0%3BentryX%3D0.75%3BentryY%3D0%3BentryDx%3D0%3BentryDy%3D0%3BexitX%3D0.75%3BexitY%3D1%3BexitDx%3D0%3BexitDy%3D0%3B%22%20edge%3D%221%22%20target%3D%2217%22%20parent%3D%221%22%3E%3CmxGeometry%20x%3D%22-0.9231%22%20y%3D%227%22%20relative%3D%221%22%20as%3D%22geometry%22%3E%3CmxPoint%20x%3D%22519.95%22%20y%3D%222480%22%20as%3D%22sourcePoint%22%2F%3E%3CmxPoint%20x%3D%22749.95%22%20y%3D%222770%22%20as%3D%22targetPoint%22%2F%3E%3CArray%20as%3D%22points%22%3E%3CmxPoint%20x%3D%22520%22%20y%3D%222590%22%2F%3E%3CmxPoint%20x%3D%22551%22%20y%3D%222590%22%2F%3E%3C%2FArray%3E%3CmxPoint%20as%3D%22offset%22%2F%3E%3C%2FmxGeometry%3E%3C%2FmxCell%3E%3CmxCell%20id%3D%2249%22%20value%3D%221%22%20style%3D%22endArrow%3Dopen%3Bhtml%3D1%3BendSize%3D12%3BstartArrow%3DdiamondThin%3BstartSize%3D14%3BstartFill%3D0%3BedgeStyle%3DorthogonalEdgeStyle%3Balign%3Dleft%3BverticalAlign%3Dbottom%3Brounded%3D0%3BentryX%3D0.75%3BentryY%3D0%3BentryDx%3D0%3BentryDy%3D0%3BexitX%3D0.75%3BexitY%3D1%3BexitDx%3D0%3BexitDy%3D0%3B%22%20edge%3D%221%22%20target%3D%2218%22%20parent%3D%221%22%3E%3CmxGeometry%20x%3D%22-0.9446%22%20y%3D%225%22%20relative%3D%221%22%20as%3D%22geometry%22%3E%3CmxPoint%20x%3D%22805%22%20y%3D%222480%22%20as%3D%22sourcePoint%22%2F%3E%3CmxPoint%20x%3D%221035%22%20y%3D%222770%22%20as%3D%22targetPoint%22%2F%3E%3CArray%20as%3D%22points%22%3E%3CmxPoint%20x%3D%22805%22%20y%3D%222650%22%2F%3E%3CmxPoint%20x%3D%22293%22%20y%3D%222650%22%2F%3E%3C%2FArray%3E%3CmxPoint%20as%3D%22offset%22%2F%3E%3C%2FmxGeometry%3E%3C%2FmxCell%3E%3CmxCell%20id%3D%2250%22%20value%3D%221%22%20style%3D%22endArrow%3Dopen%3Bhtml%3D1%3BendSize%3D12%3BstartArrow%3DdiamondThin%3BstartSize%3D14%3BstartFill%3D0%3BedgeStyle%3DorthogonalEdgeStyle%3Balign%3Dleft%3BverticalAlign%3Dbottom%3Brounded%3D0%3BentryX%3D0.25%3BentryY%3D1%3BentryDx%3D0%3BentryDy%3D0%3BexitX%3D1%3BexitY%3D0.25%3BexitDx%3D0%3BexitDy%3D0%3B%22%20edge%3D%221%22%20source%3D%224%22%20target%3D%2218%22%20parent%3D%221%22%3E%3CmxGeometry%20x%3D%22-0.9838%22%20y%3D%225%22%20relative%3D%221%22%20as%3D%22geometry%22%3E%3CmxPoint%20x%3D%22920%22%20y%3D%222310%22%20as%3D%22sourcePoint%22%2F%3E%3CmxPoint%20x%3D%22951.05%22%20y%3D%222860%22%20as%3D%22targetPoint%22%2F%3E%3CArray%20as%3D%22points%22%3E%3CmxPoint%20x%3D%22920%22%20y%3D%222312%22%2F%3E%3CmxPoint%20x%3D%22920%22%20y%3D%222780%22%2F%3E%3CmxPoint%20x%3D%22237%22%20y%3D%222780%22%2F%3E%3C%2FArray%3E%3CmxPoint%20x%3D%22-1%22%20as%3D%22offset%22%2F%3E%3C%2FmxGeometry%3E%3C%2FmxCell%3E%3CmxCell%20id%3D%2251%22%20value%3D%22n%22%20style%3D%22edgeLabel%3Bhtml%3D1%3Balign%3Dcenter%3BverticalAlign%3Dmiddle%3Bresizable%3D0%3Bpoints%3D%5B%5D%3Brotation%3D0%3B%22%20connectable%3D%220%22%20vertex%3D%221%22%20parent%3D%221%22%3E%3CmxGeometry%20x%3D%22169.995779736077%22%20y%3D%222740.001872082444%22%20as%3D%22geometry%22%3E%3CmxPoint%20x%3D%2245%22%20y%3D%2212.000000000000004%22%20as%3D%22offset%22%2F%3E%3C%2FmxGeometry%3E%3C%2FmxCell%3E%3CmxCell%20id%3D%2252%22%20value%3D%221%22%20style%3D%22endArrow%3Dopen%3Bhtml%3D1%3BendSize%3D12%3BstartArrow%3DdiamondThin%3BstartSize%3D14%3BstartFill%3D0%3BedgeStyle%3DorthogonalEdgeStyle%3Balign%3Dleft%3BverticalAlign%3Dbottom%3Brounded%3D0%3BentryX%3D1%3BentryY%3D0.5%3BentryDx%3D0%3BentryDy%3D0%3BexitX%3D1%3BexitY%3D0.5%3BexitDx%3D0%3BexitDy%3D0%3B%22%20edge%3D%221%22%20target%3D%2221%22%20parent%3D%221%22%3E%3CmxGeometry%20x%3D%22-0.9838%22%20y%3D%225%22%20relative%3D%221%22%20as%3D%22geometry%22%3E%3CmxPoint%20x%3D%22862%22%20y%3D%222338%22%20as%3D%22sourcePoint%22%2F%3E%3CmxPoint%20x%3D%22240%22%20y%3D%222753%22%20as%3D%22targetPoint%22%2F%3E%3CArray%20as%3D%22points%22%3E%3CmxPoint%20x%3D%22900%22%20y%3D%222338%22%2F%3E%3CmxPoint%20x%3D%22900%22%20y%3D%222715%22%2F%3E%3C%2FArray%3E%3CmxPoint%20x%3D%22-1%22%20as%3D%22offset%22%2F%3E%3C%2FmxGeometry%3E%3C%2FmxCell%3E%3CmxCell%20id%3D%2253%22%20value%3D%221%22%20style%3D%22edgeLabel%3Bhtml%3D1%3Balign%3Dcenter%3BverticalAlign%3Dmiddle%3Bresizable%3D0%3Bpoints%3D%5B%5D%3Brotation%3D0%3B%22%20connectable%3D%220%22%20vertex%3D%221%22%20parent%3D%221%22%3E%3CmxGeometry%20x%3D%22514.9957797360771%22%20y%3D%222690.001872082444%22%20as%3D%22geometry%22%3E%3CmxPoint%20x%3D%2245%22%20y%3D%2212.000000000000004%22%20as%3D%22offset%22%2F%3E%3C%2FmxGeometry%3E%3C%2FmxCell%3E%3CmxCell%20id%3D%2254%22%20value%3D%221%22%20style%3D%22endArrow%3Dopen%3Bhtml%3D1%3BendSize%3D12%3BstartArrow%3DdiamondThin%3BstartSize%3D14%3BstartFill%3D1%3BedgeStyle%3DorthogonalEdgeStyle%3Balign%3Dleft%3BverticalAlign%3Dbottom%3Brounded%3D0%3BexitX%3D0%3BexitY%3D0.5%3BexitDx%3D0%3BexitDy%3D0%3BentryX%3D0.182%3BentryY%3D-0.018%3BentryDx%3D0%3BentryDy%3D0%3BentryPerimeter%3D0%3B%22%20edge%3D%221%22%20source%3D%225%22%20target%3D%2216%22%20parent%3D%221%22%3E%3CmxGeometry%20x%3D%22-0.9684%22%20y%3D%2225%22%20relative%3D%221%22%20as%3D%22geometry%22%3E%3CmxPoint%20x%3D%22330%22%20y%3D%222350%22%20as%3D%22sourcePoint%22%2F%3E%3CmxPoint%20x%3D%22162%22%20y%3D%222715%22%20as%3D%22targetPoint%22%2F%3E%3CmxPoint%20as%3D%22offset%22%2F%3E%3CArray%20as%3D%22points%22%3E%3CmxPoint%20x%3D%22250%22%20y%3D%222325%22%2F%3E%3CmxPoint%20x%3D%22250%22%20y%3D%222620%22%2F%3E%3CmxPoint%20x%3D%22120%22%20y%3D%222620%22%2F%3E%3C%2FArray%3E%3C%2FmxGeometry%3E%3C%2FmxCell%3E%3CmxCell%20id%3D%2255%22%20value%3D%22n%22%20style%3D%22edgeLabel%3Bhtml%3D1%3Balign%3Dcenter%3BverticalAlign%3Dmiddle%3Bresizable%3D0%3Bpoints%3D%5B%5D%3Brotation%3D0%3B%22%20connectable%3D%220%22%20vertex%3D%221%22%20parent%3D%221%22%3E%3CmxGeometry%20x%3D%2259.995779736077%22%20y%3D%223055.001872082444%22%20as%3D%22geometry%22%3E%3CmxPoint%20x%3D%2245%22%20y%3D%2212.000000000000004%22%20as%3D%22offset%22%2F%3E%3C%2FmxGeometry%3E%3C%2FmxCell%3E%3CmxCell%20id%3D%2256%22%20value%3D%221%22%20style%3D%22endArrow%3Dopen%3Bhtml%3D1%3BendSize%3D12%3BstartArrow%3DdiamondThin%3BstartSize%3D14%3BstartFill%3D0%3BedgeStyle%3DorthogonalEdgeStyle%3Balign%3Dleft%3BverticalAlign%3Dbottom%3Brounded%3D0%3BentryX%3D1%3BentryY%3D0.5%3BentryDx%3D0%3BentryDy%3D0%3BexitX%3D0%3BexitY%3D0.5%3BexitDx%3D0%3BexitDy%3D0%3B%22%20edge%3D%221%22%20source%3D%227%22%20target%3D%2216%22%20parent%3D%221%22%3E%3CmxGeometry%20x%3D%22-0.9231%22%20y%3D%227%22%20relative%3D%221%22%20as%3D%22geometry%22%3E%3CmxPoint%20x%3D%22438.95000000000005%22%20y%3D%222338%22%20as%3D%22sourcePoint%22%2F%3E%3CmxPoint%20x%3D%22470%22%20y%3D%222888%22%20as%3D%22targetPoint%22%2F%3E%3CArray%20as%3D%22points%22%3E%3CmxPoint%20x%3D%22430%22%20y%3D%222325%22%2F%3E%3CmxPoint%20x%3D%22430%22%20y%3D%223105%22%2F%3E%3C%2FArray%3E%3CmxPoint%20as%3D%22offset%22%2F%3E%3C%2FmxGeometry%3E%3C%2FmxCell%3E%3CmxCell%20id%3D%2257%22%20value%3D%22n%22%20style%3D%22edgeLabel%3Bhtml%3D1%3Balign%3Dcenter%3BverticalAlign%3Dmiddle%3Bresizable%3D0%3Bpoints%3D%5B%5D%3Brotation%3D0%3B%22%20connectable%3D%220%22%20vertex%3D%221%22%20parent%3D%221%22%3E%3CmxGeometry%20x%3D%22169.995779736077%22%20y%3D%223080.001872082444%22%20as%3D%22geometry%22%3E%3CmxPoint%20x%3D%2245%22%20y%3D%2212.000000000000004%22%20as%3D%22offset%22%2F%3E%3C%2FmxGeometry%3E%3C%2FmxCell%3E%3CmxCell%20id%3D%2258%22%20value%3D%221%22%20style%3D%22endArrow%3Dopen%3Bhtml%3D1%3BendSize%3D12%3BstartArrow%3DdiamondThin%3BstartSize%3D14%3BstartFill%3D0%3BedgeStyle%3DorthogonalEdgeStyle%3Balign%3Dleft%3BverticalAlign%3Dbottom%3Brounded%3D0%3BexitX%3D0%3BexitY%3D0.5%3BexitDx%3D0%3BexitDy%3D0%3B%22%20edge%3D%221%22%20source%3D%228%22%20parent%3D%221%22%3E%3CmxGeometry%20x%3D%22-0.9231%22%20y%3D%227%22%20relative%3D%221%22%20as%3D%22geometry%22%3E%3CmxPoint%20x%3D%22455%22%20y%3D%222365%22%20as%3D%22sourcePoint%22%2F%3E%3CmxPoint%20x%3D%22195%22%20y%3D%223130%22%20as%3D%22targetPoint%22%2F%3E%3CArray%20as%3D%22points%22%3E%3CmxPoint%20x%3D%22590%22%20y%3D%222325%22%2F%3E%3CmxPoint%20x%3D%22590%22%20y%3D%223170%22%2F%3E%3CmxPoint%20x%3D%22195%22%20y%3D%223170%22%2F%3E%3C%2FArray%3E%3CmxPoint%20as%3D%22offset%22%2F%3E%3C%2FmxGeometry%3E%3C%2FmxCell%3E%3CmxCell%20id%3D%2259%22%20value%3D%22n%22%20style%3D%22edgeLabel%3Bhtml%3D1%3Balign%3Dcenter%3BverticalAlign%3Dmiddle%3Bresizable%3D0%3Bpoints%3D%5B%5D%3Brotation%3D0%3B%22%20connectable%3D%220%22%20vertex%3D%221%22%20parent%3D%221%22%3E%3CmxGeometry%20x%3D%22139.995779736077%22%20y%3D%223130.001872082444%22%20as%3D%22geometry%22%3E%3CmxPoint%20x%3D%2245%22%20y%3D%2212.000000000000004%22%20as%3D%22offset%22%2F%3E%3C%2FmxGeometry%3E%3C%2FmxCell%3E%3CmxCell%20id%3D%2260%22%20value%3D%221%22%20style%3D%22endArrow%3Dopen%3Bhtml%3D1%3BendSize%3D12%3BstartArrow%3DdiamondThin%3BstartSize%3D14%3BstartFill%3D0%3BedgeStyle%3DorthogonalEdgeStyle%3Balign%3Dleft%3BverticalAlign%3Dbottom%3Brounded%3D0%3BexitX%3D0.5%3BexitY%3D1%3BexitDx%3D0%3BexitDy%3D0%3BentryX%3D1%3BentryY%3D0.25%3BentryDx%3D0%3BentryDy%3D0%3B%22%20edge%3D%221%22%20target%3D%2218%22%20parent%3D%221%22%3E%3CmxGeometry%20x%3D%22-0.937%22%20y%3D%225%22%20relative%3D%221%22%20as%3D%22geometry%22%3E%3CmxPoint%20x%3D%22625%22%20y%3D%222350%22%20as%3D%22sourcePoint%22%2F%3E%3CmxPoint%20x%3D%22330%22%20y%3D%222690%22%20as%3D%22targetPoint%22%2F%3E%3CArray%20as%3D%22points%22%3E%3CmxPoint%20x%3D%22625%22%20y%3D%222380%22%2F%3E%3CmxPoint%20x%3D%22590%22%20y%3D%222380%22%2F%3E%3CmxPoint%20x%3D%22590%22%20y%3D%222640%22%2F%3E%3CmxPoint%20x%3D%22350%22%20y%3D%222640%22%2F%3E%3CmxPoint%20x%3D%22350%22%20y%3D%222703%22%2F%3E%3C%2FArray%3E%3CmxPoint%20as%3D%22offset%22%2F%3E%3C%2FmxGeometry%3E%3C%2FmxCell%3E%3CmxCell%20id%3D%2261%22%20value%3D%221%22%20style%3D%22edgeLabel%3Bhtml%3D1%3Balign%3Dcenter%3BverticalAlign%3Dmiddle%3Bresizable%3D0%3Bpoints%3D%5B%5D%3Brotation%3D0%3B%22%20connectable%3D%220%22%20vertex%3D%221%22%20parent%3D%221%22%3E%3CmxGeometry%20x%3D%22259.99577973607705%22%20y%3D%222670.001872082444%22%20as%3D%22geometry%22%3E%3CmxPoint%20x%3D%2245%22%20y%3D%2212.000000000000004%22%20as%3D%22offset%22%2F%3E%3C%2FmxGeometry%3E%3C%2FmxCell%3E%3CmxCell%20id%3D%2262%22%20value%3D%22n%22%20style%3D%22edgeLabel%3Bhtml%3D1%3Balign%3Dcenter%3BverticalAlign%3Dmiddle%3Bresizable%3D0%3Bpoints%3D%5B%5D%3Brotation%3D0%3B%22%20connectable%3D%220%22%20vertex%3D%221%22%20parent%3D%221%22%3E%3CmxGeometry%20x%3D%22279.99577973607705%22%20y%3D%222680.001872082444%22%20as%3D%22geometry%22%3E%3CmxPoint%20x%3D%2245%22%20y%3D%2212.000000000000004%22%20as%3D%22offset%22%2F%3E%3C%2FmxGeometry%3E%3C%2FmxCell%3E%3CmxCell%20id%3D%2263%22%20value%3D%221%22%20style%3D%22endArrow%3Dopen%3Bhtml%3D1%3BendSize%3D12%3BstartArrow%3DdiamondThin%3BstartSize%3D14%3BstartFill%3D1%3BedgeStyle%3DorthogonalEdgeStyle%3Balign%3Dleft%3BverticalAlign%3Dbottom%3Brounded%3D0%3BexitX%3D1%3BexitY%3D0.5%3BexitDx%3D0%3BexitDy%3D0%3BentryX%3D0%3BentryY%3D0.5%3BentryDx%3D0%3BentryDy%3D0%3B%22%20edge%3D%221%22%20source%3D%2215%22%20target%3D%2218%22%20parent%3D%221%22%3E%3CmxGeometry%20x%3D%22-0.9344%22%20relative%3D%221%22%20as%3D%22geometry%22%3E%3CmxPoint%20x%3D%22-60%22%20y%3D%222550%22%20as%3D%22sourcePoint%22%2F%3E%3CmxPoint%20x%3D%22-120%22%20y%3D%222550%22%20as%3D%22targetPoint%22%2F%3E%3CmxPoint%20x%3D%22-1%22%20as%3D%22offset%22%2F%3E%3CArray%20as%3D%22points%22%3E%3CmxPoint%20x%3D%22160%22%20y%3D%222860%22%2F%3E%3CmxPoint%20x%3D%22160%22%20y%3D%222715%22%2F%3E%3C%2FArray%3E%3C%2FmxGeometry%3E%3C%2FmxCell%3E%3CmxCell%20id%3D%2264%22%20value%3D%221%22%20style%3D%22endArrow%3Dopen%3Bhtml%3D1%3BendSize%3D12%3BstartArrow%3DdiamondThin%3BstartSize%3D14%3BstartFill%3D1%3BedgeStyle%3DorthogonalEdgeStyle%3Balign%3Dleft%3BverticalAlign%3Dbottom%3Brounded%3D0%3BexitX%3D1%3BexitY%3D0.5%3BexitDx%3D0%3BexitDy%3D0%3BentryX%3D0%3BentryY%3D0.5%3BentryDx%3D0%3BentryDy%3D0%3B%22%20edge%3D%221%22%20target%3D%2216%22%20parent%3D%221%22%3E%3CmxGeometry%20x%3D%22-0.9344%22%20relative%3D%221%22%20as%3D%22geometry%22%3E%3CmxPoint%20x%3D%2250%22%20y%3D%222879.94%22%20as%3D%22sourcePoint%22%2F%3E%3CmxPoint%20x%3D%22210%22%20y%3D%222734.94%22%20as%3D%22targetPoint%22%2F%3E%3CmxPoint%20x%3D%22-1%22%20as%3D%22offset%22%2F%3E%3CArray%20as%3D%22points%22%3E%3CmxPoint%20x%3D%2280%22%20y%3D%222880%22%2F%3E%3CmxPoint%20x%3D%2280%22%20y%3D%223105%22%2F%3E%3C%2FArray%3E%3C%2FmxGeometry%3E%3C%2FmxCell%3E%3CmxCell%20id%3D%2265%22%20value%3D%22n%22%20style%3D%22edgeLabel%3Bhtml%3D1%3Balign%3Dcenter%3BverticalAlign%3Dmiddle%3Bresizable%3D0%3Bpoints%3D%5B%5D%3Brotation%3D0%3B%22%20connectable%3D%220%22%20vertex%3D%221%22%20parent%3D%221%22%3E%3CmxGeometry%20x%3D%2239.995779736077%22%20y%3D%223105.001872082444%22%20as%3D%22geometry%22%3E%3CmxPoint%20x%3D%2245%22%20y%3D%2212.000000000000004%22%20as%3D%22offset%22%2F%3E%3C%2FmxGeometry%3E%3C%2FmxCell%3E%3CmxCell%20id%3D%2266%22%20value%3D%22n%22%20style%3D%22edgeLabel%3Bhtml%3D1%3Balign%3Dcenter%3BverticalAlign%3Dmiddle%3Bresizable%3D0%3Bpoints%3D%5B%5D%3Brotation%3D0%3B%22%20connectable%3D%220%22%20vertex%3D%221%22%20parent%3D%221%22%3E%3CmxGeometry%20x%3D%22154.995779736077%22%20y%3D%222690.001872082444%22%20as%3D%22geometry%22%3E%3CmxPoint%20x%3D%2245%22%20y%3D%2212.000000000000004%22%20as%3D%22offset%22%2F%3E%3C%2FmxGeometry%3E%3C%2FmxCell%3E%3CmxCell%20id%3D%2267%22%20value%3D%22%26amp%3Blt%3Buse%26amp%3Bgt%3B%22%20style%3D%22html%3D1%3BverticalAlign%3Dbottom%3BendArrow%3Dopen%3Bcurved%3D0%3Brounded%3D0%3BendFill%3D0%3BentryX%3D1%3BentryY%3D0.5%3BentryDx%3D0%3BentryDy%3D0%3BexitX%3D0%3BexitY%3D0.75%3BexitDx%3D0%3BexitDy%3D0%3B%22%20edge%3D%221%22%20source%3D%2218%22%20target%3D%2213%22%20parent%3D%221%22%3E%3CmxGeometry%20x%3D%220.1429%22%20y%3D%2220%22%20width%3D%2280%22%20relative%3D%221%22%20as%3D%22geometry%22%3E%3CmxPoint%20x%3D%2250%22%20y%3D%222690%22%20as%3D%22sourcePoint%22%2F%3E%3CmxPoint%20x%3D%2250%22%20y%3D%222760%22%20as%3D%22targetPoint%22%2F%3E%3CmxPoint%20as%3D%22offset%22%2F%3E%3CArray%20as%3D%22points%22%3E%3CmxPoint%20x%3D%22150%22%20y%3D%222730%22%2F%3E%3CmxPoint%20x%3D%22150%22%20y%3D%222765%22%2F%3E%3C%2FArray%3E%3C%2FmxGeometry%3E%3C%2FmxCell%3E%3CmxCell%20id%3D%2268%22%20value%3D%22%26amp%3Blt%3Buse%26amp%3Bgt%3B%22%20style%3D%22html%3D1%3BverticalAlign%3Dbottom%3BendArrow%3Dopen%3Bcurved%3D0%3Brounded%3D0%3BendFill%3D0%3BentryX%3D1%3BentryY%3D0.75%3BentryDx%3D0%3BentryDy%3D0%3BexitX%3D0%3BexitY%3D0%3BexitDx%3D0%3BexitDy%3D0%3B%22%20edge%3D%221%22%20source%3D%2216%22%20target%3D%2213%22%20parent%3D%221%22%3E%3CmxGeometry%20x%3D%220.8851%22%20y%3D%2222%22%20width%3D%2280%22%20relative%3D%221%22%20as%3D%22geometry%22%3E%3CmxPoint%20x%3D%22100%22%20y%3D%222770%22%20as%3D%22sourcePoint%22%2F%3E%3CmxPoint%20x%3D%22100%22%20y%3D%222840%22%20as%3D%22targetPoint%22%2F%3E%3CmxPoint%20as%3D%22offset%22%2F%3E%3CArray%20as%3D%22points%22%3E%3CmxPoint%20x%3D%22100%22%20y%3D%222778%22%2F%3E%3C%2FArray%3E%3C%2FmxGeometry%3E%3C%2FmxCell%3E%3CmxCell%20id%3D%2269%22%20value%3D%22%26amp%3Blt%3Buse%26amp%3Bgt%3B%22%20style%3D%22html%3D1%3BverticalAlign%3Dbottom%3BendArrow%3Dopen%3Bcurved%3D0%3Brounded%3D0%3BendFill%3D0%3BentryX%3D0.5%3BentryY%3D0%3BentryDx%3D0%3BentryDy%3D0%3BexitX%3D0.25%3BexitY%3D0%3BexitDx%3D0%3BexitDy%3D0%3B%22%20edge%3D%221%22%20source%3D%2218%22%20parent%3D%221%22%3E%3CmxGeometry%20x%3D%220.6154%22%20y%3D%2220%22%20width%3D%2280%22%20relative%3D%221%22%20as%3D%22geometry%22%3E%3CmxPoint%20x%3D%22-30%22%20y%3D%222575%22%20as%3D%22sourcePoint%22%2F%3E%3CmxPoint%20x%3D%22-30%22%20y%3D%222645%22%20as%3D%22targetPoint%22%2F%3E%3CmxPoint%20x%3D%22-1%22%20as%3D%22offset%22%2F%3E%3CArray%20as%3D%22points%22%3E%3CmxPoint%20x%3D%22237%22%20y%3D%222580%22%2F%3E%3CmxPoint%20x%3D%22-30%22%20y%3D%222580%22%2F%3E%3C%2FArray%3E%3C%2FmxGeometry%3E%3C%2FmxCell%3E%3CmxCell%20id%3D%2270%22%20value%3D%22%26amp%3Blt%3Buse%26amp%3Bgt%3B%22%20style%3D%22html%3D1%3BverticalAlign%3Dbottom%3BendArrow%3Dopen%3Bcurved%3D0%3Brounded%3D0%3BendFill%3D0%3BentryX%3D0.5%3BentryY%3D0%3BentryDx%3D0%3BentryDy%3D0%3BexitX%3D0%3BexitY%3D0.5%3BexitDx%3D0%3BexitDy%3D0%3B%22%20edge%3D%221%22%20source%3D%2220%22%20parent%3D%221%22%3E%3CmxGeometry%20x%3D%220.1429%22%20y%3D%2220%22%20width%3D%2280%22%20relative%3D%221%22%20as%3D%22geometry%22%3E%3CmxPoint%20x%3D%2210%22%20y%3D%222575%22%20as%3D%22sourcePoint%22%2F%3E%3CmxPoint%20x%3D%2210%22%20y%3D%222645%22%20as%3D%22targetPoint%22%2F%3E%3CmxPoint%20as%3D%22offset%22%2F%3E%3CArray%20as%3D%22points%22%3E%3CmxPoint%20x%3D%2210%22%20y%3D%222555%22%2F%3E%3C%2FArray%3E%3C%2FmxGeometry%3E%3C%2FmxCell%3E%3CmxCell%20id%3D%2271%22%20value%3D%22%26amp%3Blt%3Buse%26amp%3Bgt%3B%22%20style%3D%22html%3D1%3BverticalAlign%3Dbottom%3BendArrow%3Dopen%3Bcurved%3D0%3Brounded%3D0%3BendFill%3D0%3BentryX%3D0.5%3BentryY%3D0%3BentryDx%3D0%3BentryDy%3D0%3BexitX%3D0.335%3BexitY%3D-0.012%3BexitDx%3D0%3BexitDy%3D0%3BexitPerimeter%3D0%3B%22%20edge%3D%221%22%20source%3D%2216%22%20parent%3D%221%22%3E%3CmxGeometry%20x%3D%220.1429%22%20y%3D%2220%22%20width%3D%2280%22%20relative%3D%221%22%20as%3D%22geometry%22%3E%3CmxPoint%20x%3D%2248.82000000000005%22%20y%3D%222575%22%20as%3D%22sourcePoint%22%2F%3E%3CmxPoint%20x%3D%2248.82000000000005%22%20y%3D%222645%22%20as%3D%22targetPoint%22%2F%3E%3CmxPoint%20as%3D%22offset%22%2F%3E%3CArray%20as%3D%22points%22%3E%3CmxPoint%20x%3D%22140%22%20y%3D%222600%22%2F%3E%3CmxPoint%20x%3D%2250%22%20y%3D%222600%22%2F%3E%3C%2FArray%3E%3C%2FmxGeometry%3E%3C%2FmxCell%3E%3C%2Froot%3E%3C%2FmxGraphModel%3E&lt;/span&gt;&lt;br&gt;&lt;/div&gt;" style="text;strokeColor=none;fillColor=none;align=left;verticalAlign=top;spacingLeft=4;spacingRight=4;overflow=hidden;rotatable=0;points=[[0,0.5],[1,0.5]];portConstraint=eastwest;whiteSpace=wrap;html=1;" parent="CBX8Peww-ikw76v_2hch-1" vertex="1">
          <mxGeometry y="110" width="200" height="210" as="geometry" />
        </mxCell>
        <mxCell id="CBX8Peww-ikw76v_2hch-14" value="Customer" style="swimlane;fontStyle=1;align=center;verticalAlign=top;childLayout=stackLayout;horizontal=1;startSize=26;horizontalStack=0;resizeParent=1;resizeParentMax=0;resizeLast=0;collapsible=1;marginBottom=0;whiteSpace=wrap;html=1;" parent="1" vertex="1">
          <mxGeometry x="370" y="70" width="210" height="280" as="geometry" />
        </mxCell>
        <mxCell id="CBX8Peww-ikw76v_2hch-15" value="- _id: int&lt;div&gt;- _fullname: string&lt;/div&gt;&lt;div&gt;- _address: Address&lt;/div&gt;&lt;div&gt;- _&lt;u&gt;allCustomersCount: int&amp;nbsp;&lt;/u&gt;&lt;br&gt;&lt;/div&gt;&lt;div&gt;-_cart:&amp;nbsp;&lt;span style=&quot;background-color: initial;&quot;&gt;Cart&amp;nbsp;&lt;/span&gt;&lt;span style=&quot;background-color: initial;&quot;&gt;;&lt;/span&gt;&lt;/div&gt;&lt;div&gt;&lt;span style=&quot;background-color: initial;&quot;&gt;- _orders:&amp;nbsp;&lt;/span&gt;&lt;span style=&quot;background-color: initial;&quot;&gt;List&amp;lt;Order&amp;gt;&amp;nbsp;&lt;/span&gt;&lt;/div&gt;&lt;div&gt;&lt;span style=&quot;background-color: initial;&quot;&gt;-_discounts:&amp;nbsp;&lt;/span&gt;&lt;u style=&quot;background-color: initial;&quot;&gt;List&amp;lt;IDiscount&amp;gt;&amp;nbsp;&lt;/u&gt;&lt;span style=&quot;background-color: initial;&quot;&gt;&lt;br&gt;&lt;/span&gt;&lt;/div&gt;" style="text;strokeColor=none;fillColor=none;align=left;verticalAlign=top;spacingLeft=4;spacingRight=4;overflow=hidden;rotatable=0;points=[[0,0.5],[1,0.5]];portConstraint=eastwest;whiteSpace=wrap;html=1;" parent="CBX8Peww-ikw76v_2hch-14" vertex="1">
          <mxGeometry y="26" width="210" height="124" as="geometry" />
        </mxCell>
        <mxCell id="CBX8Peww-ikw76v_2hch-16" value="" style="line;strokeWidth=1;fillColor=none;align=left;verticalAlign=middle;spacingTop=-1;spacingLeft=3;spacingRight=3;rotatable=0;labelPosition=right;points=[];portConstraint=eastwest;strokeColor=inherit;" parent="CBX8Peww-ikw76v_2hch-14" vertex="1">
          <mxGeometry y="150" width="210" height="10" as="geometry" />
        </mxCell>
        <mxCell id="CBX8Peww-ikw76v_2hch-17" value="+ Id {get;}: int&lt;div&gt;+ FullName {get;set;}: string&lt;/div&gt;&lt;div&gt;+ Address {get;set;}: Address&lt;/div&gt;&lt;div&gt;+ Cart { get; set; }:&amp;nbsp;&lt;span style=&quot;background-color: initial;&quot;&gt;Cart&lt;/span&gt;&lt;span style=&quot;background-color: initial;&quot;&gt;&amp;nbsp;&lt;/span&gt;&lt;/div&gt;&lt;div&gt;&lt;span style=&quot;background-color: initial;&quot;&gt;+&amp;nbsp;&lt;/span&gt;&lt;span style=&quot;background-color: initial;&quot;&gt;Orders { get; set; }:&amp;nbsp;&lt;/span&gt;&lt;span style=&quot;background-color: initial;&quot;&gt;List&amp;lt;Order&amp;gt;&lt;/span&gt;&lt;/div&gt;&lt;div&gt;+ Customer(fullname: string,)&lt;/div&gt;&lt;div&gt;+ Discounts{get;set;}:&amp;nbsp;&lt;span style=&quot;background-color: initial;&quot;&gt;List&amp;lt;IDiscount&amp;gt;&lt;/span&gt;&lt;/div&gt;" style="text;strokeColor=none;fillColor=none;align=left;verticalAlign=top;spacingLeft=4;spacingRight=4;overflow=hidden;rotatable=0;points=[[0,0.5],[1,0.5]];portConstraint=eastwest;whiteSpace=wrap;html=1;" parent="CBX8Peww-ikw76v_2hch-14" vertex="1">
          <mxGeometry y="160" width="210" height="120" as="geometry" />
        </mxCell>
        <mxCell id="CBX8Peww-ikw76v_2hch-33" value="ValueValidator" style="swimlane;fontStyle=0;childLayout=stackLayout;horizontal=1;startSize=26;fillColor=none;horizontalStack=0;resizeParent=1;resizeParentMax=0;resizeLast=0;collapsible=1;marginBottom=0;whiteSpace=wrap;html=1;" parent="1" vertex="1">
          <mxGeometry x="10" y="640" width="420" height="120" as="geometry" />
        </mxCell>
        <mxCell id="CBX8Peww-ikw76v_2hch-37" value="" style="endArrow=none;html=1;rounded=0;" parent="CBX8Peww-ikw76v_2hch-33" source="CBX8Peww-ikw76v_2hch-34" edge="1">
          <mxGeometry width="50" height="50" relative="1" as="geometry">
            <mxPoint x="10" y="52.5" as="sourcePoint" />
            <mxPoint x="400" y="52.5" as="targetPoint" />
          </mxGeometry>
        </mxCell>
        <mxCell id="CBX8Peww-ikw76v_2hch-34" value="&lt;u&gt;+ AssertStringOnLength(value: string, maxLength: int, propertyName: string)&lt;/u&gt;&lt;div&gt;&lt;u&gt;&lt;br&gt;&lt;/u&gt;&lt;/div&gt;&lt;div&gt;&lt;u&gt;+ AssertStringOnLength(value: int, maxLength: int, propertyName: string)&lt;/u&gt;&lt;u&gt;&lt;br&gt;&lt;/u&gt;&lt;/div&gt;" style="text;strokeColor=none;fillColor=none;align=left;verticalAlign=top;spacingLeft=4;spacingRight=4;overflow=hidden;rotatable=0;points=[[0,0.5],[1,0.5]];portConstraint=eastwest;whiteSpace=wrap;html=1;" parent="CBX8Peww-ikw76v_2hch-33" vertex="1">
          <mxGeometry y="26" width="420" height="94" as="geometry" />
        </mxCell>
        <mxCell id="CBX8Peww-ikw76v_2hch-41" value="" style="endArrow=classic;html=1;rounded=0;entryX=0.355;entryY=-0.012;entryDx=0;entryDy=0;entryPerimeter=0;exitX=0.48;exitY=1.011;exitDx=0;exitDy=0;exitPerimeter=0;dashed=1;dashPattern=8 8;" parent="1" source="CBX8Peww-ikw76v_2hch-4" target="CBX8Peww-ikw76v_2hch-33" edge="1">
          <mxGeometry width="50" height="50" relative="1" as="geometry">
            <mxPoint x="280" y="250" as="sourcePoint" />
            <mxPoint x="330" y="190" as="targetPoint" />
            <Array as="points" />
          </mxGeometry>
        </mxCell>
        <mxCell id="4SDJ4fhKCecKqSX8BGgf-19" value="Use" style="edgeLabel;html=1;align=center;verticalAlign=middle;resizable=0;points=[];" parent="CBX8Peww-ikw76v_2hch-41" vertex="1" connectable="0">
          <mxGeometry x="-0.0083" y="-1" relative="1" as="geometry">
            <mxPoint as="offset" />
          </mxGeometry>
        </mxCell>
        <mxCell id="CBX8Peww-ikw76v_2hch-44" value="" style="endArrow=classic;html=1;rounded=0;entryX=0.564;entryY=-0.014;entryDx=0;entryDy=0;entryPerimeter=0;exitX=0.474;exitY=1.026;exitDx=0;exitDy=0;exitPerimeter=0;dashed=1;dashPattern=12 12;" parent="1" source="CBX8Peww-ikw76v_2hch-17" target="CBX8Peww-ikw76v_2hch-33" edge="1">
          <mxGeometry width="50" height="50" relative="1" as="geometry">
            <mxPoint x="489.99999999999994" y="419.8039999999998" as="sourcePoint" />
            <mxPoint x="422.47999999999996" y="469.99999999999994" as="targetPoint" />
          </mxGeometry>
        </mxCell>
        <mxCell id="4SDJ4fhKCecKqSX8BGgf-18" value="Use" style="edgeLabel;html=1;align=center;verticalAlign=middle;resizable=0;points=[];" parent="CBX8Peww-ikw76v_2hch-44" vertex="1" connectable="0">
          <mxGeometry x="-0.1414" y="-3" relative="1" as="geometry">
            <mxPoint as="offset" />
          </mxGeometry>
        </mxCell>
        <mxCell id="-jvOCAUqFoUlGoQlLWJj-3" value="&lt;div&gt;&amp;lt;&amp;lt;enumeration&amp;gt;&amp;gt;&lt;/div&gt;Category" style="swimlane;fontStyle=0;childLayout=stackLayout;horizontal=1;startSize=30;horizontalStack=0;resizeParent=1;resizeParentMax=0;resizeLast=0;collapsible=1;marginBottom=0;whiteSpace=wrap;html=1;" parent="1" vertex="1">
          <mxGeometry x="-90" y="60" width="140" height="230" as="geometry" />
        </mxCell>
        <mxCell id="-jvOCAUqFoUlGoQlLWJj-4" value="Ноутбуки" style="text;strokeColor=none;fillColor=none;align=left;verticalAlign=middle;spacingLeft=4;spacingRight=4;overflow=hidden;points=[[0,0.5],[1,0.5]];portConstraint=eastwest;rotatable=0;whiteSpace=wrap;html=1;" parent="-jvOCAUqFoUlGoQlLWJj-3" vertex="1">
          <mxGeometry y="30" width="140" height="30" as="geometry" />
        </mxCell>
        <mxCell id="-jvOCAUqFoUlGoQlLWJj-5" value="Смартфоны" style="text;strokeColor=none;fillColor=none;align=left;verticalAlign=middle;spacingLeft=4;spacingRight=4;overflow=hidden;points=[[0,0.5],[1,0.5]];portConstraint=eastwest;rotatable=0;whiteSpace=wrap;html=1;" parent="-jvOCAUqFoUlGoQlLWJj-3" vertex="1">
          <mxGeometry y="60" width="140" height="30" as="geometry" />
        </mxCell>
        <mxCell id="-jvOCAUqFoUlGoQlLWJj-6" value="Колонки&lt;div&gt;&lt;br&gt;&lt;/div&gt;" style="text;strokeColor=none;fillColor=none;align=left;verticalAlign=middle;spacingLeft=4;spacingRight=4;overflow=hidden;points=[[0,0.5],[1,0.5]];portConstraint=eastwest;rotatable=0;whiteSpace=wrap;html=1;" parent="-jvOCAUqFoUlGoQlLWJj-3" vertex="1">
          <mxGeometry y="90" width="140" height="20" as="geometry" />
        </mxCell>
        <mxCell id="-jvOCAUqFoUlGoQlLWJj-7" value="&lt;div&gt;Мониторы&lt;/div&gt;" style="text;strokeColor=none;fillColor=none;align=left;verticalAlign=middle;spacingLeft=4;spacingRight=4;overflow=hidden;points=[[0,0.5],[1,0.5]];portConstraint=eastwest;rotatable=0;whiteSpace=wrap;html=1;" parent="-jvOCAUqFoUlGoQlLWJj-3" vertex="1">
          <mxGeometry y="110" width="140" height="30" as="geometry" />
        </mxCell>
        <mxCell id="-jvOCAUqFoUlGoQlLWJj-9" value="&lt;div&gt;Телевизоры&lt;/div&gt;" style="text;strokeColor=none;fillColor=none;align=left;verticalAlign=middle;spacingLeft=4;spacingRight=4;overflow=hidden;points=[[0,0.5],[1,0.5]];portConstraint=eastwest;rotatable=0;whiteSpace=wrap;html=1;" parent="-jvOCAUqFoUlGoQlLWJj-3" vertex="1">
          <mxGeometry y="140" width="140" height="30" as="geometry" />
        </mxCell>
        <mxCell id="-jvOCAUqFoUlGoQlLWJj-10" value="&lt;div&gt;Клавиатуры&lt;/div&gt;" style="text;strokeColor=none;fillColor=none;align=left;verticalAlign=middle;spacingLeft=4;spacingRight=4;overflow=hidden;points=[[0,0.5],[1,0.5]];portConstraint=eastwest;rotatable=0;whiteSpace=wrap;html=1;" parent="-jvOCAUqFoUlGoQlLWJj-3" vertex="1">
          <mxGeometry y="170" width="140" height="30" as="geometry" />
        </mxCell>
        <mxCell id="-jvOCAUqFoUlGoQlLWJj-8" value="&lt;div&gt;Мышки&lt;/div&gt;" style="text;strokeColor=none;fillColor=none;align=left;verticalAlign=middle;spacingLeft=4;spacingRight=4;overflow=hidden;points=[[0,0.5],[1,0.5]];portConstraint=eastwest;rotatable=0;whiteSpace=wrap;html=1;" parent="-jvOCAUqFoUlGoQlLWJj-3" vertex="1">
          <mxGeometry y="200" width="140" height="30" as="geometry" />
        </mxCell>
        <mxCell id="-jvOCAUqFoUlGoQlLWJj-11" value="1" style="endArrow=classic;startArrow=diamondThin;html=1;rounded=0;exitX=1.013;exitY=0.071;exitDx=0;exitDy=0;exitPerimeter=0;entryX=-0.012;entryY=0.104;entryDx=0;entryDy=0;entryPerimeter=0;startFill=1;labelPosition=right;verticalLabelPosition=middle;align=left;verticalAlign=middle;fontSize=16;horizontal=1;sourcePerimeterSpacing=6;endSize=10;startSize=15;" parent="1" source="-jvOCAUqFoUlGoQlLWJj-3" target="CBX8Peww-ikw76v_2hch-4" edge="1">
          <mxGeometry x="0.798" y="-15" width="50" height="50" relative="1" as="geometry">
            <mxPoint x="70.00000000000018" y="107.25" as="sourcePoint" />
            <mxPoint x="152.13999999999984" y="204.25" as="targetPoint" />
            <mxPoint as="offset" />
            <Array as="points" />
          </mxGeometry>
        </mxCell>
        <mxCell id="mxS2oQHGdXcPrg1Cj4dg-13" value="1" style="edgeLabel;html=1;align=center;verticalAlign=middle;resizable=0;points=[];" parent="-jvOCAUqFoUlGoQlLWJj-11" vertex="1" connectable="0">
          <mxGeometry x="-0.4699" relative="1" as="geometry">
            <mxPoint x="2" y="-16" as="offset" />
          </mxGeometry>
        </mxCell>
        <mxCell id="mxS2oQHGdXcPrg1Cj4dg-1" value="Address" style="swimlane;fontStyle=1;align=center;verticalAlign=top;childLayout=stackLayout;horizontal=1;startSize=26;horizontalStack=0;resizeParent=1;resizeParentMax=0;resizeLast=0;collapsible=1;marginBottom=0;whiteSpace=wrap;html=1;" parent="1" vertex="1">
          <mxGeometry x="650" y="60" width="170" height="370" as="geometry" />
        </mxCell>
        <mxCell id="mxS2oQHGdXcPrg1Cj4dg-2" value="- _index: int&lt;div&gt;- _country: string&lt;/div&gt;&lt;div&gt;- _city: string&lt;br&gt;&lt;/div&gt;&lt;div&gt;- _street: string&lt;br&gt;&lt;/div&gt;&lt;div&gt;- _building: string&lt;br&gt;&lt;/div&gt;&lt;div&gt;- _apartment: string&lt;br&gt;&lt;/div&gt;" style="text;strokeColor=none;fillColor=none;align=left;verticalAlign=top;spacingLeft=4;spacingRight=4;overflow=hidden;rotatable=0;points=[[0,0.5],[1,0.5]];portConstraint=eastwest;whiteSpace=wrap;html=1;" parent="mxS2oQHGdXcPrg1Cj4dg-1" vertex="1">
          <mxGeometry y="26" width="170" height="104" as="geometry" />
        </mxCell>
        <mxCell id="mxS2oQHGdXcPrg1Cj4dg-3" value="" style="line;strokeWidth=1;fillColor=none;align=left;verticalAlign=middle;spacingTop=-1;spacingLeft=3;spacingRight=3;rotatable=0;labelPosition=right;points=[];portConstraint=eastwest;strokeColor=inherit;" parent="mxS2oQHGdXcPrg1Cj4dg-1" vertex="1">
          <mxGeometry y="130" width="170" height="10" as="geometry" />
        </mxCell>
        <mxCell id="mxS2oQHGdXcPrg1Cj4dg-4" value="+ Index {get;}: int&lt;div&gt;+ Country {get;set;}: string&lt;/div&gt;&lt;div&gt;+ City {get;set;}: string&lt;/div&gt;&lt;div&gt;+ Street {get;set;}: string&lt;br&gt;&lt;/div&gt;&lt;div&gt;+ Building {get;set;}: string&lt;br&gt;&lt;/div&gt;&lt;div&gt;+ Apartment {get;set;}: string&lt;br&gt;&lt;/div&gt;&lt;div&gt;+Address()&lt;/div&gt;&lt;div&gt;+Address(index:int, country:string, city: string, street: string, building: string, apartment: string)&lt;br&gt;&lt;/div&gt;&lt;div&gt;&lt;div&gt;+Clone(): object&lt;/div&gt;&lt;div&gt;+Equals(other:object): bool&lt;/div&gt;&lt;/div&gt;&lt;div&gt;+ AddressChanged: EventHandler&lt;br&gt;&lt;/div&gt;" style="text;strokeColor=none;fillColor=none;align=left;verticalAlign=top;spacingLeft=4;spacingRight=4;overflow=hidden;rotatable=0;points=[[0,0.5],[1,0.5]];portConstraint=eastwest;whiteSpace=wrap;html=1;" parent="mxS2oQHGdXcPrg1Cj4dg-1" vertex="1">
          <mxGeometry y="140" width="170" height="230" as="geometry" />
        </mxCell>
        <mxCell id="mxS2oQHGdXcPrg1Cj4dg-7" value="1" style="endArrow=classic;startArrow=diamondThin;html=1;rounded=0;entryX=-0.017;entryY=0.055;entryDx=0;entryDy=0;entryPerimeter=0;exitX=1.006;exitY=0.047;exitDx=0;exitDy=0;exitPerimeter=0;startFill=1;startSize=12;fontSize=15;" parent="1" source="CBX8Peww-ikw76v_2hch-14" target="mxS2oQHGdXcPrg1Cj4dg-1" edge="1">
          <mxGeometry x="0.7474" y="1" width="50" height="50" relative="1" as="geometry">
            <mxPoint x="560" y="200" as="sourcePoint" />
            <mxPoint x="610" y="150" as="targetPoint" />
            <mxPoint as="offset" />
          </mxGeometry>
        </mxCell>
        <mxCell id="mxS2oQHGdXcPrg1Cj4dg-8" value="&lt;font style=&quot;font-size: 14px;&quot;&gt;1&lt;/font&gt;" style="text;html=1;align=center;verticalAlign=middle;whiteSpace=wrap;rounded=0;" parent="1" vertex="1">
          <mxGeometry x="600" y="60" width="20" height="20" as="geometry" />
        </mxCell>
        <mxCell id="yHyRr1Zge0281pwU12AB-2" value="1" style="endArrow=classic;startArrow=classic;html=1;rounded=0;entryX=0;entryY=0.5;entryDx=0;entryDy=0;exitX=0.75;exitY=0;exitDx=0;exitDy=0;" parent="1" source="CBX8Peww-ikw76v_2hch-33" target="mxS2oQHGdXcPrg1Cj4dg-4" edge="1">
          <mxGeometry x="-0.825" y="9" width="50" height="50" relative="1" as="geometry">
            <mxPoint x="550" y="370" as="sourcePoint" />
            <mxPoint x="600" y="320" as="targetPoint" />
            <mxPoint as="offset" />
          </mxGeometry>
        </mxCell>
        <mxCell id="yHyRr1Zge0281pwU12AB-3" value="n validation&lt;div&gt;&lt;br&gt;&lt;/div&gt;" style="edgeLabel;html=1;align=center;verticalAlign=middle;resizable=0;points=[];" parent="yHyRr1Zge0281pwU12AB-2" vertex="1" connectable="0">
          <mxGeometry x="0.0939" y="3" relative="1" as="geometry">
            <mxPoint x="33" y="-65" as="offset" />
          </mxGeometry>
        </mxCell>
        <mxCell id="yHyRr1Zge0281pwU12AB-4" value="Store" style="swimlane;fontStyle=1;align=center;verticalAlign=top;childLayout=stackLayout;horizontal=1;startSize=26;horizontalStack=0;resizeParent=1;resizeParentMax=0;resizeLast=0;collapsible=1;marginBottom=0;whiteSpace=wrap;html=1;" parent="1" vertex="1">
          <mxGeometry x="260" y="-240" width="230" height="140" as="geometry" />
        </mxCell>
        <mxCell id="yHyRr1Zge0281pwU12AB-5" value="- _items: List&amp;lt;Item&amp;gt;&lt;div&gt;- _customers: List&amp;lt;Customer&amp;gt;&lt;br&gt;&lt;/div&gt;&lt;div&gt;&lt;br&gt;&lt;/div&gt;" style="text;strokeColor=none;fillColor=none;align=left;verticalAlign=top;spacingLeft=4;spacingRight=4;overflow=hidden;rotatable=0;points=[[0,0.5],[1,0.5]];portConstraint=eastwest;whiteSpace=wrap;html=1;" parent="yHyRr1Zge0281pwU12AB-4" vertex="1">
          <mxGeometry y="26" width="230" height="44" as="geometry" />
        </mxCell>
        <mxCell id="yHyRr1Zge0281pwU12AB-6" value="" style="line;strokeWidth=1;fillColor=none;align=left;verticalAlign=middle;spacingTop=-1;spacingLeft=3;spacingRight=3;rotatable=0;labelPosition=right;points=[];portConstraint=eastwest;strokeColor=inherit;" parent="yHyRr1Zge0281pwU12AB-4" vertex="1">
          <mxGeometry y="70" width="230" height="8" as="geometry" />
        </mxCell>
        <mxCell id="yHyRr1Zge0281pwU12AB-7" value="+ Items {get;set;}: List&amp;lt;Item&amp;gt;&lt;div&gt;+ Customers {get;set;}: List&amp;lt;Customer&amp;gt;&lt;/div&gt;&lt;div&gt;+ Store()&lt;/div&gt;" style="text;strokeColor=none;fillColor=none;align=left;verticalAlign=top;spacingLeft=4;spacingRight=4;overflow=hidden;rotatable=0;points=[[0,0.5],[1,0.5]];portConstraint=eastwest;whiteSpace=wrap;html=1;" parent="yHyRr1Zge0281pwU12AB-4" vertex="1">
          <mxGeometry y="78" width="230" height="62" as="geometry" />
        </mxCell>
        <mxCell id="yHyRr1Zge0281pwU12AB-8" value="" style="endArrow=diamondThin;startArrow=classic;html=1;rounded=0;entryX=0.296;entryY=1.01;entryDx=0;entryDy=0;entryPerimeter=0;exitX=0.75;exitY=0;exitDx=0;exitDy=0;endFill=1;endSize=14;" parent="1" source="CBX8Peww-ikw76v_2hch-1" target="yHyRr1Zge0281pwU12AB-7" edge="1">
          <mxGeometry width="50" height="50" relative="1" as="geometry">
            <mxPoint x="290" y="-20" as="sourcePoint" />
            <mxPoint x="340" y="-70" as="targetPoint" />
          </mxGeometry>
        </mxCell>
        <mxCell id="yHyRr1Zge0281pwU12AB-10" value="1" style="edgeLabel;html=1;align=center;verticalAlign=middle;resizable=0;points=[];" parent="yHyRr1Zge0281pwU12AB-8" vertex="1" connectable="0">
          <mxGeometry x="0.0772" y="-1" relative="1" as="geometry">
            <mxPoint x="1" y="-64" as="offset" />
          </mxGeometry>
        </mxCell>
        <mxCell id="yHyRr1Zge0281pwU12AB-9" value="" style="endArrow=diamondThin;startArrow=classic;html=1;rounded=0;exitX=0.431;exitY=-0.005;exitDx=0;exitDy=0;exitPerimeter=0;endFill=1;endSize=14;" parent="1" source="CBX8Peww-ikw76v_2hch-14" edge="1">
          <mxGeometry width="50" height="50" relative="1" as="geometry">
            <mxPoint x="370" y="60" as="sourcePoint" />
            <mxPoint x="424" y="-101" as="targetPoint" />
          </mxGeometry>
        </mxCell>
        <mxCell id="yHyRr1Zge0281pwU12AB-12" value="1" style="edgeLabel;html=1;align=center;verticalAlign=middle;resizable=0;points=[];" parent="yHyRr1Zge0281pwU12AB-9" vertex="1" connectable="0">
          <mxGeometry x="0.2373" y="-3" relative="1" as="geometry">
            <mxPoint x="-3" y="-49" as="offset" />
          </mxGeometry>
        </mxCell>
        <mxCell id="yHyRr1Zge0281pwU12AB-13" value="n" style="edgeLabel;html=1;align=center;verticalAlign=middle;resizable=0;points=[];" parent="yHyRr1Zge0281pwU12AB-9" vertex="1" connectable="0">
          <mxGeometry x="0.0939" relative="1" as="geometry">
            <mxPoint x="26" y="68" as="offset" />
          </mxGeometry>
        </mxCell>
        <mxCell id="yHyRr1Zge0281pwU12AB-11" value="n" style="edgeLabel;html=1;align=center;verticalAlign=middle;resizable=0;points=[];" parent="1" vertex="1" connectable="0">
          <mxGeometry x="320.0021536680195" y="-70.00358108570482" as="geometry">
            <mxPoint x="-44" y="107" as="offset" />
          </mxGeometry>
        </mxCell>
        <mxCell id="4SDJ4fhKCecKqSX8BGgf-1" value="Order&lt;div&gt;&lt;br&gt;&lt;/div&gt;" style="swimlane;fontStyle=1;align=center;verticalAlign=top;childLayout=stackLayout;horizontal=1;startSize=26;horizontalStack=0;resizeParent=1;resizeParentMax=0;resizeLast=0;collapsible=1;marginBottom=0;whiteSpace=wrap;html=1;" parent="1" vertex="1">
          <mxGeometry x="900.03" y="28" width="220" height="370" as="geometry" />
        </mxCell>
        <mxCell id="4SDJ4fhKCecKqSX8BGgf-2" value="- _id: int&lt;br&gt;&lt;u&gt;- _allOrdersCount: int&lt;br&gt;&lt;/u&gt;- _status: OrderStatus&lt;br&gt;- _dateOfCreation: string&lt;br&gt;&lt;div&gt;- _deliveryAddress:&amp;nbsp;&lt;span style=&quot;background-color: initial;&quot;&gt;Address&lt;/span&gt;&lt;br&gt;&lt;/div&gt;&lt;div&gt;&lt;span style=&quot;background-color: initial;&quot;&gt;-&amp;nbsp;&lt;/span&gt;&lt;span style=&quot;background-color: initial;&quot;&gt;_items:&amp;nbsp;&lt;/span&gt;&lt;span style=&quot;background-color: initial;&quot;&gt;List&amp;lt;Item&amp;gt;&lt;/span&gt;&lt;/div&gt;&lt;div&gt;&lt;span style=&quot;background-color: initial;&quot;&gt;- _amount:&amp;nbsp;&lt;/span&gt;&lt;span style=&quot;background-color: initial;&quot;&gt;double&lt;/span&gt;&lt;span style=&quot;background-color: initial;&quot;&gt;&lt;br&gt;&lt;/span&gt;&lt;/div&gt;&lt;div&gt;- _discountAmount:&lt;span style=&quot;background-color: initial;&quot;&gt;double&lt;/span&gt;&lt;br&gt;&lt;/div&gt;" style="text;strokeColor=none;fillColor=none;align=left;verticalAlign=top;spacingLeft=4;spacingRight=4;overflow=hidden;rotatable=0;points=[[0,0.5],[1,0.5]];portConstraint=eastwest;whiteSpace=wrap;html=1;" parent="4SDJ4fhKCecKqSX8BGgf-1" vertex="1">
          <mxGeometry y="26" width="220" height="124" as="geometry" />
        </mxCell>
        <mxCell id="4SDJ4fhKCecKqSX8BGgf-3" value="" style="line;strokeWidth=1;fillColor=none;align=left;verticalAlign=middle;spacingTop=-1;spacingLeft=3;spacingRight=3;rotatable=0;labelPosition=right;points=[];portConstraint=eastwest;strokeColor=inherit;" parent="4SDJ4fhKCecKqSX8BGgf-1" vertex="1">
          <mxGeometry y="150" width="220" height="20" as="geometry" />
        </mxCell>
        <mxCell id="4SDJ4fhKCecKqSX8BGgf-4" value="&lt;div&gt;+ Id{get;}: int&lt;/div&gt;&lt;div&gt;+&amp;nbsp;Status { get; set;}:OrderStatus&lt;/div&gt;&lt;div&gt;+ DateOfCreation { get; }: string&lt;/div&gt;&lt;div&gt;+ DeliveryAddress {get;set;}: Address&lt;br&gt;&lt;/div&gt;&lt;div&gt;+ DiscountAmount{get;set;}:&amp;nbsp;&lt;span style=&quot;background-color: initial;&quot;&gt;double&lt;/span&gt;&lt;br&gt;&lt;/div&gt;&lt;div&gt;&lt;span style=&quot;background-color: initial;&quot;&gt;+Total{get;}: double&lt;/span&gt;&lt;/div&gt;&lt;div&gt;+ Amount{get;}: double&lt;/div&gt;&lt;div&gt;+ Items { get; set; }:&amp;nbsp;&lt;span style=&quot;background-color: initial;&quot;&gt;List&amp;lt;Item&amp;gt;&lt;/span&gt;&lt;span style=&quot;background-color: initial;&quot;&gt;&amp;nbsp;&lt;/span&gt;&lt;/div&gt;&lt;div&gt;&lt;span style=&quot;background-color: initial;&quot;&gt;+&amp;nbsp;&lt;/span&gt;&lt;span style=&quot;background-color: initial;&quot;&gt;Order()&lt;br&gt;+ Order(&lt;/span&gt;&lt;span style=&quot;background-color: initial;&quot;&gt;status:&lt;/span&gt;&lt;span style=&quot;background-color: initial;&quot;&gt;OrderStatus&lt;/span&gt;&lt;span style=&quot;background-color: initial;&quot;&gt;, dateOfCreation:&lt;/span&gt;&lt;span style=&quot;background-color: initial;&quot;&gt;string&lt;/span&gt;&lt;span style=&quot;background-color: initial;&quot;&gt;,&amp;nbsp; items:&lt;/span&gt;&lt;span style=&quot;background-color: initial;&quot;&gt;List&amp;lt;Item&amp;gt;&lt;/span&gt;&lt;span style=&quot;background-color: initial;&quot;&gt;,address:&lt;/span&gt;&lt;span style=&quot;background-color: initial;&quot;&gt;Address&lt;/span&gt;&lt;span style=&quot;background-color: initial;&quot;&gt;)&lt;/span&gt;&lt;/div&gt;&lt;div&gt;+Equals(other:object): bool&lt;span style=&quot;background-color: initial;&quot;&gt;&lt;br&gt;&lt;/span&gt;&lt;/div&gt;&lt;div&gt;&lt;br&gt;&lt;/div&gt;" style="text;strokeColor=none;fillColor=none;align=left;verticalAlign=top;spacingLeft=4;spacingRight=4;overflow=hidden;rotatable=0;points=[[0,0.5],[1,0.5]];portConstraint=eastwest;whiteSpace=wrap;html=1;" parent="4SDJ4fhKCecKqSX8BGgf-1" vertex="1">
          <mxGeometry y="170" width="220" height="200" as="geometry" />
        </mxCell>
        <mxCell id="4SDJ4fhKCecKqSX8BGgf-5" value="" style="endArrow=classicThin;startArrow=diamondThin;html=1;rounded=0;exitX=-0.009;exitY=0.827;exitDx=0;exitDy=0;exitPerimeter=0;entryX=1.023;entryY=0.83;entryDx=0;entryDy=0;entryPerimeter=0;endFill=1;startFill=1;sourcePerimeterSpacing=0;endSize=12;startSize=18;" parent="1" source="4SDJ4fhKCecKqSX8BGgf-4" target="mxS2oQHGdXcPrg1Cj4dg-4" edge="1">
          <mxGeometry width="50" height="50" relative="1" as="geometry">
            <mxPoint x="930" y="360" as="sourcePoint" />
            <mxPoint x="980" y="310" as="targetPoint" />
          </mxGeometry>
        </mxCell>
        <mxCell id="4SDJ4fhKCecKqSX8BGgf-6" value="1" style="edgeLabel;html=1;align=center;verticalAlign=middle;resizable=0;points=[];" parent="4SDJ4fhKCecKqSX8BGgf-5" vertex="1" connectable="0">
          <mxGeometry x="-0.1898" y="2" relative="1" as="geometry">
            <mxPoint x="-41" y="-19" as="offset" />
          </mxGeometry>
        </mxCell>
        <mxCell id="4SDJ4fhKCecKqSX8BGgf-16" value="1" style="edgeLabel;html=1;align=center;verticalAlign=middle;resizable=0;points=[];" parent="4SDJ4fhKCecKqSX8BGgf-5" vertex="1" connectable="0">
          <mxGeometry x="-0.1898" y="2" relative="1" as="geometry">
            <mxPoint x="22" y="-19" as="offset" />
          </mxGeometry>
        </mxCell>
        <mxCell id="4SDJ4fhKCecKqSX8BGgf-20" value="" style="endArrow=diamondThin;startArrow=classic;html=1;rounded=0;entryX=0.849;entryY=0.015;entryDx=0;entryDy=0;entryPerimeter=0;exitX=0.25;exitY=0;exitDx=0;exitDy=0;startFill=1;endFill=1;endSize=18;startSize=11;" parent="1" source="4SDJ4fhKCecKqSX8BGgf-1" target="CBX8Peww-ikw76v_2hch-14" edge="1">
          <mxGeometry width="50" height="50" relative="1" as="geometry">
            <mxPoint x="630" y="470" as="sourcePoint" />
            <mxPoint x="680" y="420" as="targetPoint" />
            <Array as="points">
              <mxPoint x="960" y="10" />
              <mxPoint x="850" y="10" />
              <mxPoint x="750" y="10" />
              <mxPoint x="560" y="10" />
            </Array>
          </mxGeometry>
        </mxCell>
        <mxCell id="4SDJ4fhKCecKqSX8BGgf-21" value="1" style="edgeLabel;html=1;align=center;verticalAlign=middle;resizable=0;points=[];" parent="4SDJ4fhKCecKqSX8BGgf-20" vertex="1" connectable="0">
          <mxGeometry x="-0.0241" y="-1" relative="1" as="geometry">
            <mxPoint x="-173" y="41" as="offset" />
          </mxGeometry>
        </mxCell>
        <mxCell id="4SDJ4fhKCecKqSX8BGgf-22" value="n" style="edgeLabel;html=1;align=center;verticalAlign=middle;resizable=0;points=[];" parent="4SDJ4fhKCecKqSX8BGgf-20" vertex="1" connectable="0">
          <mxGeometry x="-0.0241" y="-1" relative="1" as="geometry">
            <mxPoint x="226" y="1" as="offset" />
          </mxGeometry>
        </mxCell>
        <mxCell id="4SDJ4fhKCecKqSX8BGgf-23" value="&lt;div&gt;&amp;lt;&amp;lt;enumeration&amp;gt;&amp;gt;&lt;/div&gt;&lt;div&gt;OrderStatus&lt;/div&gt;" style="swimlane;fontStyle=0;childLayout=stackLayout;horizontal=1;startSize=30;horizontalStack=0;resizeParent=1;resizeParentMax=0;resizeLast=0;collapsible=1;marginBottom=0;whiteSpace=wrap;html=1;" parent="1" vertex="1">
          <mxGeometry x="1180.03" y="40" width="140" height="140" as="geometry" />
        </mxCell>
        <mxCell id="4SDJ4fhKCecKqSX8BGgf-30" value="&lt;div&gt;&amp;nbsp; &amp;nbsp; New&lt;/div&gt;&lt;div&gt;&amp;nbsp; &amp;nbsp; Processing&lt;/div&gt;&lt;div&gt;&amp;nbsp; &amp;nbsp; Assembly&lt;/div&gt;&lt;div&gt;&amp;nbsp; &amp;nbsp; ent&lt;/div&gt;&lt;div&gt;&amp;nbsp; &amp;nbsp; Delivered&lt;/div&gt;&lt;div&gt;&amp;nbsp; &amp;nbsp; Returned&lt;/div&gt;&lt;div&gt;&amp;nbsp; &amp;nbsp; Abandoned&lt;/div&gt;" style="text;strokeColor=none;fillColor=none;align=left;verticalAlign=middle;spacingLeft=4;spacingRight=4;overflow=hidden;points=[[0,0.5],[1,0.5]];portConstraint=eastwest;rotatable=0;whiteSpace=wrap;html=1;" parent="4SDJ4fhKCecKqSX8BGgf-23" vertex="1">
          <mxGeometry y="30" width="140" height="110" as="geometry" />
        </mxCell>
        <mxCell id="4SDJ4fhKCecKqSX8BGgf-32" value="" style="endArrow=classic;startArrow=diamondThin;html=1;rounded=0;entryX=-0.014;entryY=0.433;entryDx=0;entryDy=0;entryPerimeter=0;exitX=1;exitY=0.5;exitDx=0;exitDy=0;startFill=1;startSize=13;endSize=8;" parent="1" source="4SDJ4fhKCecKqSX8BGgf-2" target="4SDJ4fhKCecKqSX8BGgf-30" edge="1">
          <mxGeometry width="50" height="50" relative="1" as="geometry">
            <mxPoint x="1170.03" y="300" as="sourcePoint" />
            <mxPoint x="1220.03" y="250" as="targetPoint" />
          </mxGeometry>
        </mxCell>
        <mxCell id="4SDJ4fhKCecKqSX8BGgf-33" value="1" style="edgeLabel;html=1;align=center;verticalAlign=middle;resizable=0;points=[];" parent="4SDJ4fhKCecKqSX8BGgf-32" vertex="1" connectable="0">
          <mxGeometry x="0.0473" y="2" relative="1" as="geometry">
            <mxPoint x="-31" as="offset" />
          </mxGeometry>
        </mxCell>
        <mxCell id="4SDJ4fhKCecKqSX8BGgf-34" value="1" style="edgeLabel;html=1;align=center;verticalAlign=middle;resizable=0;points=[];" parent="4SDJ4fhKCecKqSX8BGgf-32" vertex="1" connectable="0">
          <mxGeometry x="0.0473" y="2" relative="1" as="geometry">
            <mxPoint x="29" y="-11" as="offset" />
          </mxGeometry>
        </mxCell>
        <mxCell id="4SDJ4fhKCecKqSX8BGgf-35" value="" style="endArrow=diamondThin;startArrow=classic;html=1;rounded=0;exitX=0.274;exitY=1.013;exitDx=0;exitDy=0;exitPerimeter=0;startFill=1;endFill=0;startSize=12;endSize=13;entryX=0.425;entryY=1.005;entryDx=0;entryDy=0;entryPerimeter=0;" parent="1" source="CBX8Peww-ikw76v_2hch-4" target="4SDJ4fhKCecKqSX8BGgf-4" edge="1">
          <mxGeometry width="50" height="50" relative="1" as="geometry">
            <mxPoint x="207.55999999999958" y="319.99999999999983" as="sourcePoint" />
            <mxPoint x="986.5299999999999" y="382.0760000000003" as="targetPoint" />
            <Array as="points">
              <mxPoint x="210" y="480" />
              <mxPoint x="650" y="490" />
              <mxPoint x="987" y="490" />
            </Array>
          </mxGeometry>
        </mxCell>
        <mxCell id="4SDJ4fhKCecKqSX8BGgf-36" value="1" style="edgeLabel;html=1;align=center;verticalAlign=middle;resizable=0;points=[];" parent="4SDJ4fhKCecKqSX8BGgf-35" vertex="1" connectable="0">
          <mxGeometry x="0.279" y="-1" relative="1" as="geometry">
            <mxPoint x="280" y="-211" as="offset" />
          </mxGeometry>
        </mxCell>
        <mxCell id="4SDJ4fhKCecKqSX8BGgf-37" value="n" style="edgeLabel;html=1;align=center;verticalAlign=middle;resizable=0;points=[];" parent="4SDJ4fhKCecKqSX8BGgf-35" vertex="1" connectable="0">
          <mxGeometry x="0.279" y="-1" relative="1" as="geometry">
            <mxPoint x="-570" y="-271" as="offset" />
          </mxGeometry>
        </mxCell>
        <mxCell id="4SDJ4fhKCecKqSX8BGgf-38" value="Cart" style="swimlane;fontStyle=1;align=center;verticalAlign=top;childLayout=stackLayout;horizontal=1;startSize=26;horizontalStack=0;resizeParent=1;resizeParentMax=0;resizeLast=0;collapsible=1;marginBottom=0;whiteSpace=wrap;html=1;" parent="1" vertex="1">
          <mxGeometry x="570" y="-240" width="230" height="130" as="geometry" />
        </mxCell>
        <mxCell id="4SDJ4fhKCecKqSX8BGgf-39" value="- _items: List&amp;lt;Item&amp;gt;&lt;div&gt;&lt;br&gt;&lt;/div&gt;&lt;div&gt;&lt;br&gt;&lt;/div&gt;" style="text;strokeColor=none;fillColor=none;align=left;verticalAlign=top;spacingLeft=4;spacingRight=4;overflow=hidden;rotatable=0;points=[[0,0.5],[1,0.5]];portConstraint=eastwest;whiteSpace=wrap;html=1;" parent="4SDJ4fhKCecKqSX8BGgf-38" vertex="1">
          <mxGeometry y="26" width="230" height="34" as="geometry" />
        </mxCell>
        <mxCell id="4SDJ4fhKCecKqSX8BGgf-40" value="" style="line;strokeWidth=1;fillColor=none;align=left;verticalAlign=middle;spacingTop=-1;spacingLeft=3;spacingRight=3;rotatable=0;labelPosition=right;points=[];portConstraint=eastwest;strokeColor=inherit;" parent="4SDJ4fhKCecKqSX8BGgf-38" vertex="1">
          <mxGeometry y="60" width="230" height="8" as="geometry" />
        </mxCell>
        <mxCell id="4SDJ4fhKCecKqSX8BGgf-41" value="+ Items {get;set;}: List&amp;lt;Item&amp;gt;&lt;div&gt;+ Amount{get;}:&amp;nbsp;&lt;span style=&quot;background-color: initial;&quot;&gt;double&lt;/span&gt;&lt;span style=&quot;background-color: initial;&quot;&gt;&amp;nbsp;&lt;/span&gt;&lt;/div&gt;&lt;div&gt;+Clone(): object&lt;span style=&quot;background-color: initial;&quot;&gt;&lt;br&gt;&lt;/span&gt;&lt;/div&gt;" style="text;strokeColor=none;fillColor=none;align=left;verticalAlign=top;spacingLeft=4;spacingRight=4;overflow=hidden;rotatable=0;points=[[0,0.5],[1,0.5]];portConstraint=eastwest;whiteSpace=wrap;html=1;" parent="4SDJ4fhKCecKqSX8BGgf-38" vertex="1">
          <mxGeometry y="68" width="230" height="62" as="geometry" />
        </mxCell>
        <mxCell id="4SDJ4fhKCecKqSX8BGgf-45" value="" style="endArrow=classicThin;startArrow=diamondThin;html=1;rounded=0;exitX=0.657;exitY=-0.007;exitDx=0;exitDy=0;entryX=-0.011;entryY=0.855;entryDx=0;entryDy=0;entryPerimeter=0;endFill=1;startFill=1;sourcePerimeterSpacing=0;endSize=12;startSize=18;exitPerimeter=0;" parent="1" source="CBX8Peww-ikw76v_2hch-14" target="4SDJ4fhKCecKqSX8BGgf-41" edge="1">
          <mxGeometry width="50" height="50" relative="1" as="geometry">
            <mxPoint x="915" y="105" as="sourcePoint" />
            <mxPoint x="827" y="-30" as="targetPoint" />
            <Array as="points">
              <mxPoint x="521" y="-119" />
            </Array>
          </mxGeometry>
        </mxCell>
        <mxCell id="4SDJ4fhKCecKqSX8BGgf-46" value="1" style="edgeLabel;html=1;align=center;verticalAlign=middle;resizable=0;points=[];" parent="4SDJ4fhKCecKqSX8BGgf-45" vertex="1" connectable="0">
          <mxGeometry x="-0.1898" y="2" relative="1" as="geometry">
            <mxPoint x="21" y="-107" as="offset" />
          </mxGeometry>
        </mxCell>
        <mxCell id="4SDJ4fhKCecKqSX8BGgf-47" value="1" style="edgeLabel;html=1;align=center;verticalAlign=middle;resizable=0;points=[];" parent="4SDJ4fhKCecKqSX8BGgf-45" vertex="1" connectable="0">
          <mxGeometry x="-0.1898" y="2" relative="1" as="geometry">
            <mxPoint x="11" y="63" as="offset" />
          </mxGeometry>
        </mxCell>
        <mxCell id="4SDJ4fhKCecKqSX8BGgf-48" value="" style="endArrow=classic;startArrow=diamondThin;html=1;rounded=0;exitX=0.463;exitY=1.018;exitDx=0;exitDy=0;startFill=0;endFill=1;startSize=12;endSize=13;exitPerimeter=0;entryX=0.442;entryY=-0.012;entryDx=0;entryDy=0;entryPerimeter=0;" parent="1" source="4SDJ4fhKCecKqSX8BGgf-41" target="CBX8Peww-ikw76v_2hch-1" edge="1">
          <mxGeometry width="50" height="50" relative="1" as="geometry">
            <mxPoint x="172" y="-370" as="sourcePoint" />
            <mxPoint x="170" y="-30" as="targetPoint" />
            <Array as="points">
              <mxPoint x="676" y="-20" />
              <mxPoint x="230" y="-20" />
            </Array>
          </mxGeometry>
        </mxCell>
        <mxCell id="4SDJ4fhKCecKqSX8BGgf-49" value="1" style="edgeLabel;html=1;align=center;verticalAlign=middle;resizable=0;points=[];" parent="4SDJ4fhKCecKqSX8BGgf-48" vertex="1" connectable="0">
          <mxGeometry x="0.279" y="-1" relative="1" as="geometry">
            <mxPoint x="287" y="-79" as="offset" />
          </mxGeometry>
        </mxCell>
        <mxCell id="4SDJ4fhKCecKqSX8BGgf-50" value="n" style="edgeLabel;html=1;align=center;verticalAlign=middle;resizable=0;points=[];" parent="4SDJ4fhKCecKqSX8BGgf-48" vertex="1" connectable="0">
          <mxGeometry x="0.279" y="-1" relative="1" as="geometry">
            <mxPoint x="-153" y="51" as="offset" />
          </mxGeometry>
        </mxCell>
        <mxCell id="4SDJ4fhKCecKqSX8BGgf-51" value="PriorityOrder&lt;div&gt;&lt;br&gt;&lt;/div&gt;" style="swimlane;fontStyle=1;align=center;verticalAlign=top;childLayout=stackLayout;horizontal=1;startSize=26;horizontalStack=0;resizeParent=1;resizeParentMax=0;resizeLast=0;collapsible=1;marginBottom=0;whiteSpace=wrap;html=1;" parent="1" vertex="1">
          <mxGeometry x="1180.03" y="200" width="450" height="130" as="geometry" />
        </mxCell>
        <mxCell id="4SDJ4fhKCecKqSX8BGgf-54" value="&lt;div&gt;+ DeliveryDateTime {get; set;}:&amp;nbsp;&lt;span style=&quot;background-color: initial;&quot;&gt;DateTime&lt;/span&gt;&lt;/div&gt;&lt;div&gt;+ DeliveryTimeRange { get; set;}:&amp;nbsp;&lt;span style=&quot;background-color: initial;&quot;&gt;DeliveryTimeRange&lt;/span&gt;&lt;/div&gt;&lt;div&gt;&lt;span style=&quot;background-color: initial;&quot;&gt;+&amp;nbsp;&lt;/span&gt;&lt;span style=&quot;background-color: initial;&quot;&gt;PriorityOrder(status:&amp;nbsp;&lt;/span&gt;&lt;span style=&quot;background-color: initial;&quot;&gt;OrderStatus&lt;/span&gt;&lt;span style=&quot;background-color: initial;&quot;&gt;,dateOfCreation:&amp;nbsp;&lt;/span&gt;&lt;span style=&quot;background-color: initial;&quot;&gt;string&lt;/span&gt;&lt;span style=&quot;background-color: initial;&quot;&gt;, items:&amp;nbsp;&lt;/span&gt;&lt;span style=&quot;background-color: initial;&quot;&gt;List&amp;lt;Item&amp;gt;&lt;/span&gt;&lt;span style=&quot;background-color: initial;&quot;&gt;&amp;nbsp;&lt;/span&gt;&lt;span style=&quot;background-color: initial;&quot;&gt;,address:&amp;nbsp;&lt;/span&gt;&lt;span style=&quot;background-color: initial;&quot;&gt;Address&lt;/span&gt;&lt;span style=&quot;background-color: initial;&quot;&gt;,&lt;/span&gt;&lt;span style=&quot;background-color: initial;&quot;&gt;discountAmount:&amp;nbsp;&lt;/span&gt;&lt;span style=&quot;background-color: initial;&quot;&gt;double &lt;/span&gt;&lt;span style=&quot;background-color: initial;&quot;&gt;,deliveryDateTime:&lt;/span&gt;&lt;span style=&quot;background-color: initial;&quot;&gt;&amp;nbsp;&lt;/span&gt;&lt;span style=&quot;background-color: initial;&quot;&gt;DateTime&lt;/span&gt;&lt;span style=&quot;background-color: initial;&quot;&gt;,&amp;nbsp; deliveryTimeRange:&amp;nbsp;&lt;/span&gt;&lt;span style=&quot;background-color: initial;&quot;&gt;DeliveryTimeRange&lt;/span&gt;&lt;span style=&quot;background-color: initial;&quot;&gt;)&lt;/span&gt;&lt;span style=&quot;background-color: initial;&quot;&gt;&amp;nbsp;&lt;/span&gt;&lt;/div&gt;" style="text;strokeColor=none;fillColor=none;align=left;verticalAlign=top;spacingLeft=4;spacingRight=4;overflow=hidden;rotatable=0;points=[[0,0.5],[1,0.5]];portConstraint=eastwest;whiteSpace=wrap;html=1;" parent="4SDJ4fhKCecKqSX8BGgf-51" vertex="1">
          <mxGeometry y="26" width="450" height="94" as="geometry" />
        </mxCell>
        <mxCell id="4SDJ4fhKCecKqSX8BGgf-52" value="&lt;div&gt;&lt;br&gt;&lt;/div&gt;" style="text;strokeColor=none;fillColor=none;align=left;verticalAlign=top;spacingLeft=4;spacingRight=4;overflow=hidden;rotatable=0;points=[[0,0.5],[1,0.5]];portConstraint=eastwest;whiteSpace=wrap;html=1;" parent="4SDJ4fhKCecKqSX8BGgf-51" vertex="1">
          <mxGeometry y="120" width="450" height="10" as="geometry" />
        </mxCell>
        <mxCell id="4SDJ4fhKCecKqSX8BGgf-56" value="" style="endArrow=block;html=1;rounded=0;entryX=0;entryY=0.5;entryDx=0;entryDy=0;exitX=1.011;exitY=0.402;exitDx=0;exitDy=0;exitPerimeter=0;endFill=0;startSize=8;endSize=16;" parent="1" source="4SDJ4fhKCecKqSX8BGgf-4" target="4SDJ4fhKCecKqSX8BGgf-54" edge="1">
          <mxGeometry width="50" height="50" relative="1" as="geometry">
            <mxPoint x="1140.03" y="300" as="sourcePoint" />
            <mxPoint x="1190.03" y="250" as="targetPoint" />
          </mxGeometry>
        </mxCell>
        <mxCell id="4SDJ4fhKCecKqSX8BGgf-57" value="Extends" style="edgeLabel;html=1;align=center;verticalAlign=middle;resizable=0;points=[];" parent="4SDJ4fhKCecKqSX8BGgf-56" vertex="1" connectable="0">
          <mxGeometry x="0.1255" y="2" relative="1" as="geometry">
            <mxPoint x="21" y="-21" as="offset" />
          </mxGeometry>
        </mxCell>
        <mxCell id="4SDJ4fhKCecKqSX8BGgf-58" value="&lt;div&gt;&amp;lt;&amp;lt;enumeration&amp;gt;&amp;gt;&lt;/div&gt;&lt;div&gt;DeliveryTimeRange&lt;/div&gt;" style="swimlane;fontStyle=0;childLayout=stackLayout;horizontal=1;startSize=30;horizontalStack=0;resizeParent=1;resizeParentMax=0;resizeLast=0;collapsible=1;marginBottom=0;whiteSpace=wrap;html=1;" parent="1" vertex="1">
          <mxGeometry x="1380" y="40" width="140" height="120" as="geometry" />
        </mxCell>
        <mxCell id="4SDJ4fhKCecKqSX8BGgf-59" value="&lt;div&gt;&amp;nbsp;Range9To11&lt;/div&gt;&lt;div&gt;&lt;span style=&quot;background-color: initial;&quot;&gt;&amp;nbsp;Range11To13&lt;/span&gt;&lt;/div&gt;&lt;div&gt;&amp;nbsp;Range13To15&lt;/div&gt;&lt;div&gt;&lt;span style=&quot;background-color: initial;&quot;&gt;&amp;nbsp;Range15To17&lt;/span&gt;&lt;/div&gt;&lt;div&gt;&amp;nbsp;Range17To19&lt;/div&gt;&lt;div&gt;&amp;nbsp;Range19To21&lt;/div&gt;" style="text;strokeColor=none;fillColor=none;align=left;verticalAlign=middle;spacingLeft=4;spacingRight=4;overflow=hidden;points=[[0,0.5],[1,0.5]];portConstraint=eastwest;rotatable=0;whiteSpace=wrap;html=1;" parent="4SDJ4fhKCecKqSX8BGgf-58" vertex="1">
          <mxGeometry y="30" width="140" height="90" as="geometry" />
        </mxCell>
        <mxCell id="4SDJ4fhKCecKqSX8BGgf-61" value="" style="endArrow=classic;startArrow=diamondThin;html=1;rounded=0;entryX=0.441;entryY=0.993;entryDx=0;entryDy=0;entryPerimeter=0;exitX=0.584;exitY=-0.023;exitDx=0;exitDy=0;startFill=0;startSize=13;endSize=8;exitPerimeter=0;" parent="1" source="4SDJ4fhKCecKqSX8BGgf-51" target="4SDJ4fhKCecKqSX8BGgf-59" edge="1">
          <mxGeometry width="50" height="50" relative="1" as="geometry">
            <mxPoint x="1590.03" y="160" as="sourcePoint" />
            <mxPoint x="1648.03" y="160" as="targetPoint" />
          </mxGeometry>
        </mxCell>
        <mxCell id="4SDJ4fhKCecKqSX8BGgf-62" value="1" style="edgeLabel;html=1;align=center;verticalAlign=middle;resizable=0;points=[];" parent="4SDJ4fhKCecKqSX8BGgf-61" vertex="1" connectable="0">
          <mxGeometry x="0.0473" y="2" relative="1" as="geometry">
            <mxPoint x="-8" y="13" as="offset" />
          </mxGeometry>
        </mxCell>
        <mxCell id="4SDJ4fhKCecKqSX8BGgf-63" value="1" style="edgeLabel;html=1;align=center;verticalAlign=middle;resizable=0;points=[];" parent="4SDJ4fhKCecKqSX8BGgf-61" vertex="1" connectable="0">
          <mxGeometry x="0.0473" y="2" relative="1" as="geometry">
            <mxPoint x="11" y="-11" as="offset" />
          </mxGeometry>
        </mxCell>
        <mxCell id="zur_gVyM3GfrkpR0P1LO-1" value="&lt;div&gt;PointsDiscount&lt;br&gt;&lt;/div&gt;" style="swimlane;fontStyle=1;align=center;verticalAlign=top;childLayout=stackLayout;horizontal=1;startSize=26;horizontalStack=0;resizeParent=1;resizeParentMax=0;resizeLast=0;collapsible=1;marginBottom=0;whiteSpace=wrap;html=1;" parent="1" vertex="1">
          <mxGeometry x="1180.03" y="590" width="260" height="210" as="geometry" />
        </mxCell>
        <mxCell id="zur_gVyM3GfrkpR0P1LO-2" value="- _accumulatedPoints:int&lt;br&gt;&lt;div&gt;&lt;span style=&quot;background-color: initial;&quot;&gt;&lt;br&gt;&lt;/span&gt;&lt;/div&gt;&lt;div&gt;&lt;br&gt;&lt;/div&gt;" style="text;strokeColor=none;fillColor=none;align=left;verticalAlign=top;spacingLeft=4;spacingRight=4;overflow=hidden;rotatable=0;points=[[0,0.5],[1,0.5]];portConstraint=eastwest;whiteSpace=wrap;html=1;" parent="zur_gVyM3GfrkpR0P1LO-1" vertex="1">
          <mxGeometry y="26" width="260" height="34" as="geometry" />
        </mxCell>
        <mxCell id="zur_gVyM3GfrkpR0P1LO-3" value="" style="line;strokeWidth=1;fillColor=none;align=left;verticalAlign=middle;spacingTop=-1;spacingLeft=3;spacingRight=3;rotatable=0;labelPosition=right;points=[];portConstraint=eastwest;strokeColor=inherit;" parent="zur_gVyM3GfrkpR0P1LO-1" vertex="1">
          <mxGeometry y="60" width="260" height="20" as="geometry" />
        </mxCell>
        <mxCell id="zur_gVyM3GfrkpR0P1LO-4" value="&lt;div&gt;&lt;span style=&quot;background-color: initial;&quot;&gt;+AccumulatedPoints{get;set;}: int&lt;/span&gt;&lt;br&gt;&lt;/div&gt;&lt;div&gt;+Info{get;}:string&lt;/div&gt;&lt;div&gt;-GetAmount(&lt;span style=&quot;background-color: initial;&quot;&gt;List&amp;lt;Item&amp;gt; items&lt;/span&gt;&lt;span style=&quot;background-color: initial;&quot;&gt;): double&lt;/span&gt;&lt;br&gt;&lt;/div&gt;&lt;div&gt;+Calculate(List&amp;lt;Item&amp;gt; items): double&lt;/div&gt;&lt;div&gt;+Apply(List&amp;lt;Item&amp;gt; items): double&lt;/div&gt;&lt;div&gt;+Update(List&amp;lt;Item&amp;gt; items): void&lt;/div&gt;&lt;div&gt;+CompareTo(discount2: PointsDiscount?): int&lt;br&gt;&lt;/div&gt;&lt;div&gt;&lt;br&gt;&lt;/div&gt;&lt;div&gt;&lt;br&gt;&lt;/div&gt;" style="text;strokeColor=none;fillColor=none;align=left;verticalAlign=top;spacingLeft=4;spacingRight=4;overflow=hidden;rotatable=0;points=[[0,0.5],[1,0.5]];portConstraint=eastwest;whiteSpace=wrap;html=1;" parent="zur_gVyM3GfrkpR0P1LO-1" vertex="1">
          <mxGeometry y="80" width="260" height="130" as="geometry" />
        </mxCell>
        <mxCell id="zur_gVyM3GfrkpR0P1LO-8" value="&lt;div&gt;PercentDiscount&lt;br&gt;&lt;/div&gt;" style="swimlane;fontStyle=1;align=center;verticalAlign=top;childLayout=stackLayout;horizontal=1;startSize=26;horizontalStack=0;resizeParent=1;resizeParentMax=0;resizeLast=0;collapsible=1;marginBottom=0;whiteSpace=wrap;html=1;" parent="1" vertex="1">
          <mxGeometry x="1470" y="590" width="260" height="290" as="geometry" />
        </mxCell>
        <mxCell id="zur_gVyM3GfrkpR0P1LO-9" value="- _currentDiscountPercent: int&lt;br&gt;&lt;div&gt;&lt;span style=&quot;background-color: initial;&quot;&gt;-&amp;nbsp;&lt;/span&gt;&lt;span style=&quot;background-color: initial;&quot;&gt;_discountCategory:Category&lt;/span&gt;&lt;/div&gt;&lt;div&gt;&lt;span style=&quot;background-color: initial;&quot;&gt;-&amp;nbsp;&lt;/span&gt;&lt;span style=&quot;background-color: initial;&quot;&gt;_accumulatedAmount: double&lt;/span&gt;&lt;/div&gt;&lt;div&gt;&lt;br&gt;&lt;/div&gt;" style="text;strokeColor=none;fillColor=none;align=left;verticalAlign=top;spacingLeft=4;spacingRight=4;overflow=hidden;rotatable=0;points=[[0,0.5],[1,0.5]];portConstraint=eastwest;whiteSpace=wrap;html=1;" parent="zur_gVyM3GfrkpR0P1LO-8" vertex="1">
          <mxGeometry y="26" width="260" height="64" as="geometry" />
        </mxCell>
        <mxCell id="zur_gVyM3GfrkpR0P1LO-10" value="" style="line;strokeWidth=1;fillColor=none;align=left;verticalAlign=middle;spacingTop=-1;spacingLeft=3;spacingRight=3;rotatable=0;labelPosition=right;points=[];portConstraint=eastwest;strokeColor=inherit;" parent="zur_gVyM3GfrkpR0P1LO-8" vertex="1">
          <mxGeometry y="90" width="260" height="20" as="geometry" />
        </mxCell>
        <mxCell id="zur_gVyM3GfrkpR0P1LO-11" value="&lt;div&gt;&lt;span style=&quot;background-color: initial;&quot;&gt;+CurrentDiscountPercent{get;set;}: int&lt;/span&gt;&lt;br&gt;&lt;/div&gt;&lt;div&gt;&lt;span style=&quot;background-color: initial;&quot;&gt;+&lt;/span&gt;&lt;span style=&quot;background-color: initial;&quot;&gt;DiscountCategory{get;set;}:&amp;nbsp;&lt;/span&gt;&lt;span style=&quot;background-color: initial;&quot;&gt;Category&lt;/span&gt;&lt;/div&gt;&lt;div&gt;&lt;span style=&quot;background-color: initial;&quot;&gt;+&lt;/span&gt;&lt;span style=&quot;background-color: initial;&quot;&gt;AccumulatedAmount{get;set;}: double&lt;/span&gt;&lt;/div&gt;&lt;div&gt;+Info{get;}:string&lt;/div&gt;&lt;div&gt;-GetAmount(&lt;span style=&quot;background-color: initial;&quot;&gt;List&amp;lt;Item&amp;gt; items&lt;/span&gt;&lt;span style=&quot;background-color: initial;&quot;&gt;): double&lt;/span&gt;&lt;br&gt;&lt;/div&gt;&lt;div&gt;+Calculate(List&amp;lt;Item&amp;gt; items): double&lt;/div&gt;&lt;div&gt;+Apply(List&amp;lt;Item&amp;gt; items): double&lt;/div&gt;&lt;div&gt;+Update(List&amp;lt;Item&amp;gt; items): void&lt;/div&gt;&lt;div&gt;+PercentDiscount()&lt;/div&gt;&lt;div&gt;+CompareTo(discount2: PercentDiscount?): int&lt;br&gt;&lt;/div&gt;&lt;div&gt;&lt;br&gt;&lt;/div&gt;" style="text;strokeColor=none;fillColor=none;align=left;verticalAlign=top;spacingLeft=4;spacingRight=4;overflow=hidden;rotatable=0;points=[[0,0.5],[1,0.5]];portConstraint=eastwest;whiteSpace=wrap;html=1;" parent="zur_gVyM3GfrkpR0P1LO-8" vertex="1">
          <mxGeometry y="110" width="260" height="180" as="geometry" />
        </mxCell>
        <mxCell id="zur_gVyM3GfrkpR0P1LO-12" value="&lt;div&gt;&lt;div style=&quot;font-weight: 400;&quot;&gt;&amp;lt;&amp;lt;interface&amp;gt;&amp;gt;&lt;/div&gt;&lt;div style=&quot;font-weight: 400;&quot;&gt;IDiscount&lt;/div&gt;&lt;/div&gt;" style="swimlane;fontStyle=1;align=center;verticalAlign=top;childLayout=stackLayout;horizontal=1;startSize=40;horizontalStack=0;resizeParent=1;resizeParentMax=0;resizeLast=0;collapsible=1;marginBottom=0;whiteSpace=wrap;html=1;" parent="1" vertex="1">
          <mxGeometry x="1320" y="350" width="250" height="120" as="geometry" />
        </mxCell>
        <mxCell id="zur_gVyM3GfrkpR0P1LO-15" value="&lt;div&gt;&amp;nbsp; &amp;nbsp; + Info { get; }:&lt;span style=&quot;background-color: initial;&quot;&gt;string&lt;/span&gt;&lt;/div&gt;&lt;div&gt;&amp;nbsp; &amp;nbsp; + Calculate(List&amp;lt;Item&amp;gt; items):&amp;nbsp;&lt;span style=&quot;background-color: initial;&quot;&gt;double&lt;/span&gt;&lt;span style=&quot;background-color: initial;&quot;&gt;&amp;nbsp;&lt;/span&gt;&lt;/div&gt;&lt;div&gt;&amp;nbsp; &amp;nbsp; + Apply(List&amp;lt;Item&amp;gt; items):&amp;nbsp;&lt;span style=&quot;background-color: initial;&quot;&gt;double&lt;/span&gt;&lt;/div&gt;&lt;div&gt;&amp;nbsp; &amp;nbsp; +Update(List&amp;lt;Item&amp;gt; items):&amp;nbsp;&lt;span style=&quot;background-color: initial;&quot;&gt;void&lt;/span&gt;&lt;span style=&quot;background-color: initial;&quot;&gt;&amp;nbsp;&lt;/span&gt;&lt;/div&gt;&lt;div&gt;&lt;br&gt;&lt;/div&gt;" style="text;strokeColor=none;fillColor=none;align=left;verticalAlign=top;spacingLeft=4;spacingRight=4;overflow=hidden;rotatable=0;points=[[0,0.5],[1,0.5]];portConstraint=eastwest;whiteSpace=wrap;html=1;" parent="zur_gVyM3GfrkpR0P1LO-12" vertex="1">
          <mxGeometry y="40" width="250" height="80" as="geometry" />
        </mxCell>
        <mxCell id="zur_gVyM3GfrkpR0P1LO-16" value="" style="endArrow=none;dashed=1;html=1;dashPattern=1 3;strokeWidth=2;rounded=0;entryX=0.5;entryY=0;entryDx=0;entryDy=0;endFill=0;startArrow=block;startFill=0;sourcePerimeterSpacing=4;targetPerimeterSpacing=7;startSize=15;exitX=0.436;exitY=1.003;exitDx=0;exitDy=0;exitPerimeter=0;" parent="1" source="zur_gVyM3GfrkpR0P1LO-15" target="zur_gVyM3GfrkpR0P1LO-1" edge="1">
          <mxGeometry width="50" height="50" relative="1" as="geometry">
            <mxPoint x="1270" y="510" as="sourcePoint" />
            <mxPoint x="1710" y="470" as="targetPoint" />
          </mxGeometry>
        </mxCell>
        <mxCell id="zur_gVyM3GfrkpR0P1LO-17" value="" style="endArrow=none;dashed=1;html=1;dashPattern=1 3;strokeWidth=2;rounded=0;exitX=0.612;exitY=0.966;exitDx=0;exitDy=0;endFill=0;startArrow=block;startFill=0;sourcePerimeterSpacing=4;targetPerimeterSpacing=7;startSize=15;exitPerimeter=0;entryX=0.5;entryY=0;entryDx=0;entryDy=0;" parent="1" source="zur_gVyM3GfrkpR0P1LO-15" target="zur_gVyM3GfrkpR0P1LO-8" edge="1">
          <mxGeometry width="50" height="50" relative="1" as="geometry">
            <mxPoint x="1331" y="599" as="sourcePoint" />
            <mxPoint x="1450" y="530" as="targetPoint" />
            <Array as="points" />
          </mxGeometry>
        </mxCell>
        <mxCell id="zur_gVyM3GfrkpR0P1LO-18" value="" style="endArrow=open;html=1;rounded=0;exitX=0.524;exitY=1.027;exitDx=0;exitDy=0;exitPerimeter=0;entryX=-0.012;entryY=0.266;entryDx=0;entryDy=0;entryPerimeter=0;endFill=0;startSize=10;endSize=14;sourcePerimeterSpacing=4;targetPerimeterSpacing=2;" parent="1" source="CBX8Peww-ikw76v_2hch-17" target="zur_gVyM3GfrkpR0P1LO-15" edge="1">
          <mxGeometry width="50" height="50" relative="1" as="geometry">
            <mxPoint x="870" y="600" as="sourcePoint" />
            <mxPoint x="1310" y="530" as="targetPoint" />
            <Array as="points">
              <mxPoint x="480" y="521" />
              <mxPoint x="1220" y="521" />
            </Array>
          </mxGeometry>
        </mxCell>
        <mxCell id="zur_gVyM3GfrkpR0P1LO-19" value="&lt;font style=&quot;font-size: 20px;&quot;&gt;n&lt;/font&gt;" style="edgeLabel;html=1;align=center;verticalAlign=middle;resizable=0;points=[];" parent="zur_gVyM3GfrkpR0P1LO-18" vertex="1" connectable="0">
          <mxGeometry x="0.6253" y="3" relative="1" as="geometry">
            <mxPoint x="112" y="-98" as="offset" />
          </mxGeometry>
        </mxCell>
        <mxCell id="zur_gVyM3GfrkpR0P1LO-20" value="&lt;font style=&quot;font-size: 20px;&quot;&gt;n&lt;/font&gt;" style="edgeLabel;html=1;align=center;verticalAlign=middle;resizable=0;points=[];" parent="zur_gVyM3GfrkpR0P1LO-18" vertex="1" connectable="0">
          <mxGeometry x="0.6253" y="3" relative="1" as="geometry">
            <mxPoint x="-678" y="-148" as="offset" />
          </mxGeometry>
        </mxCell>
        <mxCell id="gemHDAHIETOCOp2MblCy-7" value="" style="endArrow=none;dashed=1;html=1;dashPattern=1 3;strokeWidth=2;rounded=0;exitX=0;exitY=0.5;exitDx=0;exitDy=0;entryX=0.676;entryY=-0.005;entryDx=0;entryDy=0;entryPerimeter=0;startArrow=block;startFill=0;targetPerimeterSpacing=2;sourcePerimeterSpacing=3;endSize=10;startSize=15;" parent="1" source="gemHDAHIETOCOp2MblCy-11" target="mxS2oQHGdXcPrg1Cj4dg-1" edge="1">
          <mxGeometry width="50" height="50" relative="1" as="geometry">
            <mxPoint x="610" y="640" as="sourcePoint" />
            <mxPoint x="750" y="540" as="targetPoint" />
          </mxGeometry>
        </mxCell>
        <mxCell id="gemHDAHIETOCOp2MblCy-8" value="" style="endArrow=none;dashed=1;html=1;dashPattern=1 3;strokeWidth=2;rounded=0;startArrow=block;startFill=0;targetPerimeterSpacing=2;sourcePerimeterSpacing=3;endSize=10;startSize=15;entryX=1.017;entryY=0.831;entryDx=0;entryDy=0;entryPerimeter=0;exitX=0;exitY=0.5;exitDx=0;exitDy=0;" parent="1" source="gemHDAHIETOCOp2MblCy-11" target="4SDJ4fhKCecKqSX8BGgf-39" edge="1">
          <mxGeometry width="50" height="50" relative="1" as="geometry">
            <mxPoint x="900" y="-80" as="sourcePoint" />
            <mxPoint x="780" y="410" as="targetPoint" />
          </mxGeometry>
        </mxCell>
        <mxCell id="gemHDAHIETOCOp2MblCy-9" value="" style="endArrow=none;dashed=1;html=1;dashPattern=1 3;strokeWidth=2;rounded=0;exitX=0.128;exitY=1.042;exitDx=0;exitDy=0;startArrow=block;startFill=0;targetPerimeterSpacing=2;sourcePerimeterSpacing=3;endSize=10;startSize=15;entryX=0.583;entryY=0.009;entryDx=0;entryDy=0;entryPerimeter=0;exitPerimeter=0;" parent="1" source="gemHDAHIETOCOp2MblCy-12" target="CBX8Peww-ikw76v_2hch-1" edge="1">
          <mxGeometry width="50" height="50" relative="1" as="geometry">
            <mxPoint x="552.9399999999996" y="636.2200000000003" as="sourcePoint" />
            <mxPoint x="640" y="-95" as="targetPoint" />
            <Array as="points">
              <mxPoint x="890" y="30" />
              <mxPoint x="250" y="20" />
            </Array>
          </mxGeometry>
        </mxCell>
        <mxCell id="gemHDAHIETOCOp2MblCy-10" value="" style="endArrow=none;dashed=1;html=1;dashPattern=1 3;strokeWidth=2;rounded=0;exitX=0.645;exitY=0.967;exitDx=0;exitDy=0;startArrow=block;startFill=0;targetPerimeterSpacing=2;sourcePerimeterSpacing=3;endSize=10;startSize=15;exitPerimeter=0;entryX=0.524;entryY=1.044;entryDx=0;entryDy=0;entryPerimeter=0;" parent="1" source="gemHDAHIETOCOp2MblCy-16" target="zur_gVyM3GfrkpR0P1LO-4" edge="1">
          <mxGeometry width="50" height="50" relative="1" as="geometry">
            <mxPoint x="837.9299999999998" y="663.25" as="sourcePoint" />
            <mxPoint x="826" y="860" as="targetPoint" />
            <Array as="points">
              <mxPoint x="826" y="830" />
              <mxPoint x="1315" y="830" />
            </Array>
          </mxGeometry>
        </mxCell>
        <mxCell id="gemHDAHIETOCOp2MblCy-11" value="&lt;div style=&quot;font-weight: 400;&quot;&gt;&amp;lt;&amp;lt;interface&amp;gt;&amp;gt;&lt;/div&gt;&lt;div style=&quot;font-weight: 400;&quot;&gt;ICloneable&lt;/div&gt;" style="swimlane;fontStyle=1;align=center;verticalAlign=top;childLayout=stackLayout;horizontal=1;startSize=40;horizontalStack=0;resizeParent=1;resizeParentMax=0;resizeLast=0;collapsible=1;marginBottom=0;whiteSpace=wrap;html=1;" parent="1" vertex="1">
          <mxGeometry x="880" y="-232" width="180" height="70" as="geometry" />
        </mxCell>
        <mxCell id="gemHDAHIETOCOp2MblCy-12" value="&lt;div&gt;+Clone(): object&lt;/div&gt;" style="text;strokeColor=none;fillColor=none;align=left;verticalAlign=top;spacingLeft=4;spacingRight=4;overflow=hidden;rotatable=0;points=[[0,0.5],[1,0.5]];portConstraint=eastwest;whiteSpace=wrap;html=1;" parent="gemHDAHIETOCOp2MblCy-11" vertex="1">
          <mxGeometry y="40" width="180" height="30" as="geometry" />
        </mxCell>
        <mxCell id="gemHDAHIETOCOp2MblCy-13" value="&lt;div style=&quot;font-weight: 400;&quot;&gt;&amp;lt;&amp;lt;interface&amp;gt;&amp;gt;&lt;/div&gt;&lt;div style=&quot;font-weight: 400;&quot;&gt;IEquatable&lt;/div&gt;" style="swimlane;fontStyle=1;align=center;verticalAlign=top;childLayout=stackLayout;horizontal=1;startSize=40;horizontalStack=0;resizeParent=1;resizeParentMax=0;resizeLast=0;collapsible=1;marginBottom=0;whiteSpace=wrap;html=1;" parent="1" vertex="1">
          <mxGeometry x="1110" y="-232" width="180" height="70" as="geometry" />
        </mxCell>
        <mxCell id="gemHDAHIETOCOp2MblCy-14" value="&lt;div&gt;+Equals(other:T?): bool&lt;/div&gt;" style="text;strokeColor=none;fillColor=none;align=left;verticalAlign=top;spacingLeft=4;spacingRight=4;overflow=hidden;rotatable=0;points=[[0,0.5],[1,0.5]];portConstraint=eastwest;whiteSpace=wrap;html=1;" parent="gemHDAHIETOCOp2MblCy-13" vertex="1">
          <mxGeometry y="40" width="180" height="30" as="geometry" />
        </mxCell>
        <mxCell id="gemHDAHIETOCOp2MblCy-15" value="&lt;div style=&quot;font-weight: 400;&quot;&gt;&amp;lt;&amp;lt;interface&amp;gt;&amp;gt;&lt;/div&gt;&lt;div style=&quot;font-weight: 400;&quot;&gt;IComparable&lt;/div&gt;" style="swimlane;fontStyle=1;align=center;verticalAlign=top;childLayout=stackLayout;horizontal=1;startSize=40;horizontalStack=0;resizeParent=1;resizeParentMax=0;resizeLast=0;collapsible=1;marginBottom=0;whiteSpace=wrap;html=1;" parent="1" vertex="1">
          <mxGeometry x="710" y="685" width="180" height="70" as="geometry" />
        </mxCell>
        <mxCell id="gemHDAHIETOCOp2MblCy-16" value="&lt;div&gt;+CompareTo(other:T?): int&lt;/div&gt;" style="text;strokeColor=none;fillColor=none;align=left;verticalAlign=top;spacingLeft=4;spacingRight=4;overflow=hidden;rotatable=0;points=[[0,0.5],[1,0.5]];portConstraint=eastwest;whiteSpace=wrap;html=1;" parent="gemHDAHIETOCOp2MblCy-15" vertex="1">
          <mxGeometry y="40" width="180" height="30" as="geometry" />
        </mxCell>
        <mxCell id="gemHDAHIETOCOp2MblCy-17" value="" style="endArrow=none;dashed=1;html=1;dashPattern=1 3;strokeWidth=2;rounded=0;startArrow=block;startFill=0;targetPerimeterSpacing=2;sourcePerimeterSpacing=3;endSize=10;startSize=15;entryX=0.833;entryY=-0.011;entryDx=0;entryDy=0;entryPerimeter=0;exitX=0.411;exitY=1.042;exitDx=0;exitDy=0;exitPerimeter=0;" parent="1" source="gemHDAHIETOCOp2MblCy-14" target="CBX8Peww-ikw76v_2hch-1" edge="1">
          <mxGeometry width="50" height="50" relative="1" as="geometry">
            <mxPoint x="1126" y="-150" as="sourcePoint" />
            <mxPoint x="1050" y="-91" as="targetPoint" />
            <Array as="points">
              <mxPoint x="1170" y="-10" />
              <mxPoint x="310" />
            </Array>
          </mxGeometry>
        </mxCell>
        <mxCell id="gemHDAHIETOCOp2MblCy-18" value="" style="endArrow=none;dashed=1;html=1;dashPattern=1 3;strokeWidth=2;rounded=0;startArrow=block;startFill=0;targetPerimeterSpacing=2;sourcePerimeterSpacing=3;endSize=10;startSize=15;entryX=0.864;entryY=0.006;entryDx=0;entryDy=0;entryPerimeter=0;exitX=0.141;exitY=1.1;exitDx=0;exitDy=0;exitPerimeter=0;" parent="1" source="gemHDAHIETOCOp2MblCy-14" target="4SDJ4fhKCecKqSX8BGgf-1" edge="1">
          <mxGeometry width="50" height="50" relative="1" as="geometry">
            <mxPoint x="1100" y="-159" as="sourcePoint" />
            <mxPoint x="1024" y="-100" as="targetPoint" />
          </mxGeometry>
        </mxCell>
        <mxCell id="gemHDAHIETOCOp2MblCy-19" value="" style="endArrow=block;dashed=1;html=1;dashPattern=1 3;strokeWidth=2;rounded=0;startArrow=none;startFill=0;targetPerimeterSpacing=2;sourcePerimeterSpacing=3;endSize=17;startSize=15;entryX=0.322;entryY=0.875;entryDx=0;entryDy=0;entryPerimeter=0;exitX=0.25;exitY=0;exitDx=0;exitDy=0;endFill=0;" parent="1" source="mxS2oQHGdXcPrg1Cj4dg-1" target="gemHDAHIETOCOp2MblCy-14" edge="1">
          <mxGeometry width="50" height="50" relative="1" as="geometry">
            <mxPoint x="1031" y="36" as="sourcePoint" />
            <mxPoint x="1157" y="-198" as="targetPoint" />
            <Array as="points">
              <mxPoint x="693" y="-40" />
              <mxPoint x="1150" y="-40" />
            </Array>
          </mxGeometry>
        </mxCell>
        <mxCell id="gemHDAHIETOCOp2MblCy-20" value="" style="endArrow=none;dashed=1;html=1;dashPattern=1 3;strokeWidth=2;rounded=0;exitX=0.436;exitY=1.195;exitDx=0;exitDy=0;startArrow=block;startFill=0;targetPerimeterSpacing=2;sourcePerimeterSpacing=3;endSize=10;startSize=15;exitPerimeter=0;entryX=-0.004;entryY=0.931;entryDx=0;entryDy=0;entryPerimeter=0;" parent="1" source="gemHDAHIETOCOp2MblCy-16" target="zur_gVyM3GfrkpR0P1LO-11" edge="1">
          <mxGeometry width="50" height="50" relative="1" as="geometry">
            <mxPoint x="836" y="764" as="sourcePoint" />
            <mxPoint x="1325" y="795" as="targetPoint" />
            <Array as="points">
              <mxPoint x="788" y="870" />
              <mxPoint x="1080" y="870" />
              <mxPoint x="1340" y="870" />
              <mxPoint x="1440" y="870" />
            </Array>
          </mxGeometry>
        </mxCell>
        <mxCell id="gemHDAHIETOCOp2MblCy-21" value="" style="endArrow=none;dashed=1;html=1;dashPattern=1 3;strokeWidth=2;rounded=0;exitX=0.5;exitY=0;exitDx=0;exitDy=0;startArrow=block;startFill=0;targetPerimeterSpacing=2;sourcePerimeterSpacing=3;endSize=10;startSize=15;" parent="1" source="gemHDAHIETOCOp2MblCy-15" target="CBX8Peww-ikw76v_2hch-4" edge="1">
          <mxGeometry width="50" height="50" relative="1" as="geometry">
            <mxPoint x="500" y="514" as="sourcePoint" />
            <mxPoint x="989" y="545" as="targetPoint" />
            <Array as="points">
              <mxPoint x="800" y="460" />
              <mxPoint x="270" y="460" />
            </Array>
          </mxGeometry>
        </mxCell>
        <mxCell id="JatY_bgPFGaBBMHd4C7K-1" value="&lt;div style=&quot;font-weight: 400;&quot;&gt;&lt;u&gt;DataTools&lt;/u&gt;&lt;/div&gt;" style="swimlane;fontStyle=1;align=center;verticalAlign=top;childLayout=stackLayout;horizontal=1;startSize=40;horizontalStack=0;resizeParent=1;resizeParentMax=0;resizeLast=0;collapsible=1;marginBottom=0;whiteSpace=wrap;html=1;" parent="1" vertex="1">
          <mxGeometry x="1330" y="-232" width="390" height="100" as="geometry" />
        </mxCell>
        <mxCell id="JatY_bgPFGaBBMHd4C7K-2" value="&lt;div&gt;&lt;u&gt;+delegate&amp;nbsp;&lt;/u&gt;&lt;span style=&quot;background-color: initial;&quot;&gt;&lt;u&gt;&amp;nbsp;SortingCriteria(&lt;/u&gt;&lt;/span&gt;&lt;u style=&quot;background-color: initial;&quot;&gt;item1:&amp;nbsp;&lt;/u&gt;&lt;span style=&quot;background-color: initial;&quot;&gt;&lt;u&gt;Item ,&lt;/u&gt;&lt;/span&gt;&lt;u style=&quot;background-color: initial;&quot;&gt;item2:&amp;nbsp;&lt;/u&gt;&lt;span style=&quot;background-color: initial;&quot;&gt;&lt;u&gt;Item):&amp;nbsp;&lt;/u&gt;&lt;/span&gt;&lt;u style=&quot;background-color: initial;&quot;&gt;bool&lt;/u&gt;&lt;/div&gt;&lt;div&gt;&lt;u&gt;+Filter(&lt;span style=&quot;background-color: initial;&quot;&gt;items:&amp;nbsp;&lt;/span&gt;&lt;span style=&quot;background-color: initial;&quot;&gt;List&amp;lt;Item&amp;gt; ,&lt;/span&gt;&lt;span style=&quot;background-color: initial;&quot;&gt;sortingCriteria:&amp;nbsp;&lt;/span&gt;&lt;span style=&quot;background-color: initial;&quot;&gt;Func&amp;lt;Item,bool&amp;gt; ):&lt;/span&gt;&lt;span style=&quot;background-color: initial;&quot;&gt;List&amp;lt;Item&amp;gt;&lt;/span&gt;&lt;span style=&quot;background-color: initial;&quot;&gt;&amp;nbsp;&lt;/span&gt;&lt;/u&gt;&lt;/div&gt;&lt;div&gt;&lt;u&gt;&lt;span style=&quot;background-color: initial;&quot;&gt;+&lt;/span&gt;&lt;/u&gt;&lt;span style=&quot;background-color: initial;&quot;&gt;&lt;u&gt;SortBy(&lt;/u&gt;&lt;/span&gt;&lt;u style=&quot;background-color: initial;&quot;&gt;items:&amp;nbsp;&lt;/u&gt;&lt;span style=&quot;background-color: initial;&quot;&gt;&lt;u&gt;List&amp;lt;Item&amp;gt; ,&lt;/u&gt;&lt;/span&gt;&lt;u style=&quot;background-color: initial;&quot;&gt;sortingCriteria:&amp;nbsp;&lt;/u&gt;&lt;span style=&quot;background-color: initial;&quot;&gt;&lt;u&gt;SortingCriteria ):&lt;/u&gt;&lt;/span&gt;&lt;u style=&quot;background-color: initial;&quot;&gt;List&amp;lt;Item&amp;gt;&lt;/u&gt;&lt;/div&gt;" style="text;strokeColor=none;fillColor=none;align=left;verticalAlign=top;spacingLeft=4;spacingRight=4;overflow=hidden;rotatable=0;points=[[0,0.5],[1,0.5]];portConstraint=eastwest;whiteSpace=wrap;html=1;" parent="JatY_bgPFGaBBMHd4C7K-1" vertex="1">
          <mxGeometry y="40" width="390" height="60" as="geometry" />
        </mxCell>
        <mxCell id="4hl5G2Hhnl7sCE8NA_vK-1" value="MainForm" style="html=1;whiteSpace=wrap;" vertex="1" parent="1">
          <mxGeometry x="2625" y="-120" width="110" height="50" as="geometry" />
        </mxCell>
        <mxCell id="4hl5G2Hhnl7sCE8NA_vK-2" value="Program" style="html=1;whiteSpace=wrap;" vertex="1" parent="1">
          <mxGeometry x="2625" y="-240" width="110" height="50" as="geometry" />
        </mxCell>
        <mxCell id="4hl5G2Hhnl7sCE8NA_vK-3" value="OrdersTab" style="html=1;whiteSpace=wrap;" vertex="1" parent="1">
          <mxGeometry x="2840" y="-10" width="110" height="50" as="geometry" />
        </mxCell>
        <mxCell id="4hl5G2Hhnl7sCE8NA_vK-4" value="ItemsTab" style="html=1;whiteSpace=wrap;" vertex="1" parent="1">
          <mxGeometry x="2405" y="-10" width="110" height="50" as="geometry" />
        </mxCell>
        <mxCell id="4hl5G2Hhnl7sCE8NA_vK-5" value="DiscountsTab" style="html=1;whiteSpace=wrap;" vertex="1" parent="1">
          <mxGeometry x="2550" y="120" width="110" height="50" as="geometry" />
        </mxCell>
        <mxCell id="4hl5G2Hhnl7sCE8NA_vK-6" value="CustomersTab" style="html=1;whiteSpace=wrap;" vertex="1" parent="1">
          <mxGeometry x="2550" y="-10" width="110" height="50" as="geometry" />
        </mxCell>
        <mxCell id="4hl5G2Hhnl7sCE8NA_vK-7" value="CartsTab" style="html=1;whiteSpace=wrap;" vertex="1" parent="1">
          <mxGeometry x="2700" y="-10" width="110" height="50" as="geometry" />
        </mxCell>
        <mxCell id="4hl5G2Hhnl7sCE8NA_vK-8" value="CartDiscountPanel" style="html=1;whiteSpace=wrap;" vertex="1" parent="1">
          <mxGeometry x="2840" y="120" width="110" height="50" as="geometry" />
        </mxCell>
        <mxCell id="4hl5G2Hhnl7sCE8NA_vK-9" value="AddDiscountForm" style="html=1;whiteSpace=wrap;" vertex="1" parent="1">
          <mxGeometry x="2685" y="120" width="110" height="50" as="geometry" />
        </mxCell>
        <mxCell id="4hl5G2Hhnl7sCE8NA_vK-10" value="AddressControl" style="html=1;whiteSpace=wrap;" vertex="1" parent="1">
          <mxGeometry x="2405" y="120" width="110" height="50" as="geometry" />
        </mxCell>
        <mxCell id="4hl5G2Hhnl7sCE8NA_vK-11" value="DataTools" style="html=1;whiteSpace=wrap;" vertex="1" parent="1">
          <mxGeometry x="2220" y="120" width="110" height="50" as="geometry" />
        </mxCell>
        <mxCell id="4hl5G2Hhnl7sCE8NA_vK-13" value="ValueValidator" style="html=1;whiteSpace=wrap;" vertex="1" parent="1">
          <mxGeometry x="2040" y="335" width="110" height="50" as="geometry" />
        </mxCell>
        <mxCell id="4hl5G2Hhnl7sCE8NA_vK-14" value="Store" style="html=1;whiteSpace=wrap;" vertex="1" parent="1">
          <mxGeometry x="320.00000000000006" y="1755" width="110" height="50" as="geometry" />
        </mxCell>
        <mxCell id="4hl5G2Hhnl7sCE8NA_vK-15" value="Item" style="html=1;whiteSpace=wrap;" vertex="1" parent="1">
          <mxGeometry x="2190" y="770" width="110" height="50" as="geometry" />
        </mxCell>
        <mxCell id="4hl5G2Hhnl7sCE8NA_vK-16" value="IDiscount" style="html=1;whiteSpace=wrap;" vertex="1" parent="1">
          <mxGeometry x="2558.12" y="720" width="110" height="50" as="geometry" />
        </mxCell>
        <mxCell id="4hl5G2Hhnl7sCE8NA_vK-17" value="Customer" style="html=1;whiteSpace=wrap;" vertex="1" parent="1">
          <mxGeometry x="2300" y="380" width="110" height="50" as="geometry" />
        </mxCell>
        <mxCell id="4hl5G2Hhnl7sCE8NA_vK-18" value="Cart" style="html=1;whiteSpace=wrap;" vertex="1" parent="1">
          <mxGeometry x="2300" y="570" width="110" height="50" as="geometry" />
        </mxCell>
        <mxCell id="4hl5G2Hhnl7sCE8NA_vK-19" value="Address" style="html=1;whiteSpace=wrap;" vertex="1" parent="1">
          <mxGeometry x="2405" y="220" width="110" height="50" as="geometry" />
        </mxCell>
        <mxCell id="4hl5G2Hhnl7sCE8NA_vK-20" value="Order" style="html=1;whiteSpace=wrap;" vertex="1" parent="1">
          <mxGeometry x="2520" y="380" width="110" height="50" as="geometry" />
        </mxCell>
        <mxCell id="4hl5G2Hhnl7sCE8NA_vK-21" value="&amp;lt;use&amp;gt;" style="html=1;verticalAlign=bottom;endArrow=open;curved=0;rounded=0;endFill=0;entryX=0.5;entryY=0;entryDx=0;entryDy=0;exitX=0.5;exitY=1;exitDx=0;exitDy=0;" edge="1" parent="1" source="4hl5G2Hhnl7sCE8NA_vK-2" target="4hl5G2Hhnl7sCE8NA_vK-1">
          <mxGeometry x="0.1429" y="20" width="80" relative="1" as="geometry">
            <mxPoint x="2640" y="-170" as="sourcePoint" />
            <mxPoint x="2720" y="-170" as="targetPoint" />
            <mxPoint as="offset" />
          </mxGeometry>
        </mxCell>
        <mxCell id="4hl5G2Hhnl7sCE8NA_vK-22" value="" style="html=1;verticalAlign=bottom;endArrow=open;curved=0;rounded=0;endFill=0;entryX=0.5;entryY=0;entryDx=0;entryDy=0;exitX=0.5;exitY=1;exitDx=0;exitDy=0;" edge="1" parent="1" source="4hl5G2Hhnl7sCE8NA_vK-1">
          <mxGeometry x="0.037" y="20" width="80" relative="1" as="geometry">
            <mxPoint x="2604.5" y="-80" as="sourcePoint" />
            <mxPoint x="2604.5" y="-10" as="targetPoint" />
            <mxPoint as="offset" />
            <Array as="points">
              <mxPoint x="2680" y="-40" />
              <mxPoint x="2605" y="-40" />
            </Array>
          </mxGeometry>
        </mxCell>
        <mxCell id="4hl5G2Hhnl7sCE8NA_vK-23" value="" style="html=1;verticalAlign=bottom;endArrow=open;curved=0;rounded=0;endFill=0;entryX=0.5;entryY=0;entryDx=0;entryDy=0;" edge="1" parent="1">
          <mxGeometry x="0.037" y="-20" width="80" relative="1" as="geometry">
            <mxPoint x="2680" y="-70" as="sourcePoint" />
            <mxPoint x="2754.5" y="-10" as="targetPoint" />
            <mxPoint as="offset" />
            <Array as="points">
              <mxPoint x="2680" y="-40" />
              <mxPoint x="2755" y="-40" />
            </Array>
          </mxGeometry>
        </mxCell>
        <mxCell id="4hl5G2Hhnl7sCE8NA_vK-24" value="&amp;lt;use&amp;gt;" style="html=1;verticalAlign=bottom;endArrow=open;curved=0;rounded=0;endFill=0;entryX=0.5;entryY=0;entryDx=0;entryDy=0;" edge="1" parent="1">
          <mxGeometry x="-0.6364" y="10" width="80" relative="1" as="geometry">
            <mxPoint x="2680" y="-70" as="sourcePoint" />
            <mxPoint x="2895" y="-10" as="targetPoint" />
            <mxPoint as="offset" />
            <Array as="points">
              <mxPoint x="2680" y="-40" />
              <mxPoint x="2895" y="-40" />
            </Array>
          </mxGeometry>
        </mxCell>
        <mxCell id="4hl5G2Hhnl7sCE8NA_vK-25" value="" style="html=1;verticalAlign=bottom;endArrow=open;curved=0;rounded=0;endFill=0;entryX=0.5;entryY=0;entryDx=0;entryDy=0;" edge="1" parent="1">
          <mxGeometry x="0.1429" y="20" width="80" relative="1" as="geometry">
            <mxPoint x="2680" y="-70" as="sourcePoint" />
            <mxPoint x="2460" y="-10" as="targetPoint" />
            <mxPoint as="offset" />
            <Array as="points">
              <mxPoint x="2680" y="-40" />
              <mxPoint x="2460" y="-40" />
            </Array>
          </mxGeometry>
        </mxCell>
        <mxCell id="4hl5G2Hhnl7sCE8NA_vK-26" value="&amp;lt;use&amp;gt;" style="html=1;verticalAlign=bottom;endArrow=open;curved=0;rounded=0;endFill=0;entryX=0.5;entryY=0;entryDx=0;entryDy=0;exitX=0.5;exitY=1;exitDx=0;exitDy=0;" edge="1" parent="1" source="4hl5G2Hhnl7sCE8NA_vK-7">
          <mxGeometry x="-0.7273" y="15" width="80" relative="1" as="geometry">
            <mxPoint x="2680" y="60" as="sourcePoint" />
            <mxPoint x="2895" y="120" as="targetPoint" />
            <mxPoint as="offset" />
            <Array as="points">
              <mxPoint x="2755" y="90" />
              <mxPoint x="2895" y="90" />
            </Array>
          </mxGeometry>
        </mxCell>
        <mxCell id="4hl5G2Hhnl7sCE8NA_vK-27" value="&amp;lt;use&amp;gt;" style="html=1;verticalAlign=bottom;endArrow=open;curved=0;rounded=0;endFill=0;entryX=0.5;entryY=0;entryDx=0;entryDy=0;exitX=0.5;exitY=1;exitDx=0;exitDy=0;" edge="1" parent="1" target="4hl5G2Hhnl7sCE8NA_vK-9">
          <mxGeometry x="-0.3631" y="20" width="80" relative="1" as="geometry">
            <mxPoint x="2609.94" y="40" as="sourcePoint" />
            <mxPoint x="2749.94" y="120" as="targetPoint" />
            <mxPoint as="offset" />
            <Array as="points">
              <mxPoint x="2609.94" y="90" />
              <mxPoint x="2740" y="90" />
            </Array>
          </mxGeometry>
        </mxCell>
        <mxCell id="4hl5G2Hhnl7sCE8NA_vK-28" value="" style="html=1;verticalAlign=bottom;endArrow=open;curved=0;rounded=0;endFill=0;entryX=0.5;entryY=0;entryDx=0;entryDy=0;" edge="1" parent="1">
          <mxGeometry x="0.1429" y="20" width="80" relative="1" as="geometry">
            <mxPoint x="2610" y="40" as="sourcePoint" />
            <mxPoint x="2460" y="120" as="targetPoint" />
            <mxPoint as="offset" />
            <Array as="points">
              <mxPoint x="2610" y="90" />
              <mxPoint x="2460" y="90" />
            </Array>
          </mxGeometry>
        </mxCell>
        <mxCell id="4hl5G2Hhnl7sCE8NA_vK-29" value="" style="html=1;verticalAlign=bottom;endArrow=open;curved=0;rounded=0;endFill=0;entryX=0.5;entryY=0;entryDx=0;entryDy=0;" edge="1" parent="1">
          <mxGeometry x="0.1429" y="20" width="80" relative="1" as="geometry">
            <mxPoint x="2610" y="40" as="sourcePoint" />
            <mxPoint x="2609.94" y="120" as="targetPoint" />
            <mxPoint as="offset" />
          </mxGeometry>
        </mxCell>
        <mxCell id="4hl5G2Hhnl7sCE8NA_vK-30" value="&amp;lt;use&amp;gt;" style="html=1;verticalAlign=bottom;endArrow=open;curved=0;rounded=0;endFill=0;entryX=0.5;entryY=0;entryDx=0;entryDy=0;exitX=0.5;exitY=1;exitDx=0;exitDy=0;" edge="1" parent="1" source="4hl5G2Hhnl7sCE8NA_vK-4">
          <mxGeometry x="-0.5385" y="-10" width="80" relative="1" as="geometry">
            <mxPoint x="2140" y="40" as="sourcePoint" />
            <mxPoint x="2280" y="120" as="targetPoint" />
            <mxPoint as="offset" />
            <Array as="points">
              <mxPoint x="2460" y="80" />
              <mxPoint x="2280" y="80" />
            </Array>
          </mxGeometry>
        </mxCell>
        <mxCell id="4hl5G2Hhnl7sCE8NA_vK-31" value="1" style="endArrow=open;html=1;endSize=12;startArrow=diamondThin;startSize=14;startFill=1;edgeStyle=orthogonalEdgeStyle;align=left;verticalAlign=bottom;rounded=0;exitX=0.5;exitY=1;exitDx=0;exitDy=0;" edge="1" parent="1" source="4hl5G2Hhnl7sCE8NA_vK-10">
          <mxGeometry x="-0.2082" y="10" relative="1" as="geometry">
            <mxPoint x="2460" y="290" as="sourcePoint" />
            <mxPoint x="2460" y="220" as="targetPoint" />
            <mxPoint as="offset" />
          </mxGeometry>
        </mxCell>
        <mxCell id="4hl5G2Hhnl7sCE8NA_vK-32" value="1" style="edgeLabel;html=1;align=center;verticalAlign=middle;resizable=0;points=[];rotation=0;" connectable="0" vertex="1" parent="1">
          <mxGeometry x="2429.995779736077" y="200.00187208244415" as="geometry">
            <mxPoint x="45" y="12.000000000000004" as="offset" />
          </mxGeometry>
        </mxCell>
        <mxCell id="4hl5G2Hhnl7sCE8NA_vK-33" value="1" style="endArrow=open;html=1;endSize=12;startArrow=diamondThin;startSize=14;startFill=1;edgeStyle=orthogonalEdgeStyle;align=left;verticalAlign=bottom;rounded=0;exitX=0.5;exitY=0;exitDx=0;exitDy=0;entryX=0.5;entryY=1;entryDx=0;entryDy=0;" edge="1" parent="1" source="4hl5G2Hhnl7sCE8NA_vK-17" target="4hl5G2Hhnl7sCE8NA_vK-19">
          <mxGeometry x="-0.907" y="-5" relative="1" as="geometry">
            <mxPoint x="2429.16" y="290" as="sourcePoint" />
            <mxPoint x="2429.16" y="340" as="targetPoint" />
            <mxPoint y="-1" as="offset" />
          </mxGeometry>
        </mxCell>
        <mxCell id="4hl5G2Hhnl7sCE8NA_vK-34" value="1" style="edgeLabel;html=1;align=center;verticalAlign=middle;resizable=0;points=[];rotation=0;" connectable="0" vertex="1" parent="1">
          <mxGeometry x="2429.995779736077" y="270.00187208244415" as="geometry">
            <mxPoint x="45" y="12.000000000000004" as="offset" />
          </mxGeometry>
        </mxCell>
        <mxCell id="4hl5G2Hhnl7sCE8NA_vK-35" value="1" style="endArrow=open;html=1;endSize=12;startArrow=diamondThin;startSize=14;startFill=1;edgeStyle=orthogonalEdgeStyle;align=left;verticalAlign=bottom;rounded=0;exitX=0.5;exitY=0;exitDx=0;exitDy=0;entryX=0.5;entryY=1;entryDx=0;entryDy=0;" edge="1" parent="1" source="4hl5G2Hhnl7sCE8NA_vK-20" target="4hl5G2Hhnl7sCE8NA_vK-19">
          <mxGeometry x="-1" y="-15" relative="1" as="geometry">
            <mxPoint x="2365" y="390" as="sourcePoint" />
            <mxPoint x="2470" y="280" as="targetPoint" />
            <mxPoint as="offset" />
          </mxGeometry>
        </mxCell>
        <mxCell id="4hl5G2Hhnl7sCE8NA_vK-36" value="1" style="endArrow=open;html=1;endSize=12;startArrow=diamondThin;startSize=14;startFill=1;edgeStyle=orthogonalEdgeStyle;align=left;verticalAlign=bottom;rounded=0;exitX=0.5;exitY=1;exitDx=0;exitDy=0;entryX=0.5;entryY=0;entryDx=0;entryDy=0;" edge="1" parent="1" source="4hl5G2Hhnl7sCE8NA_vK-17" target="4hl5G2Hhnl7sCE8NA_vK-18">
          <mxGeometry x="-0.7143" y="-15" relative="1" as="geometry">
            <mxPoint x="2354.44" y="509.44000000000005" as="sourcePoint" />
            <mxPoint x="2459.44" y="399.44000000000005" as="targetPoint" />
            <mxPoint as="offset" />
          </mxGeometry>
        </mxCell>
        <mxCell id="4hl5G2Hhnl7sCE8NA_vK-37" value="1" style="edgeLabel;html=1;align=center;verticalAlign=middle;resizable=0;points=[];rotation=0;" connectable="0" vertex="1" parent="1">
          <mxGeometry x="2299.995779736077" y="550.0018720824442" as="geometry">
            <mxPoint x="45" y="12.000000000000004" as="offset" />
          </mxGeometry>
        </mxCell>
        <mxCell id="4hl5G2Hhnl7sCE8NA_vK-38" value="1" style="endArrow=open;html=1;endSize=12;startArrow=diamondThin;startSize=14;startFill=0;edgeStyle=orthogonalEdgeStyle;align=left;verticalAlign=bottom;rounded=0;entryX=0.5;entryY=0;entryDx=0;entryDy=0;exitX=0.75;exitY=1;exitDx=0;exitDy=0;" edge="1" parent="1" source="4hl5G2Hhnl7sCE8NA_vK-17" target="4hl5G2Hhnl7sCE8NA_vK-16">
          <mxGeometry x="-0.9231" y="7" relative="1" as="geometry">
            <mxPoint x="2890" y="-91.5" as="sourcePoint" />
            <mxPoint x="3064" y="1161.5" as="targetPoint" />
            <Array as="points">
              <mxPoint x="2383" y="540" />
              <mxPoint x="2613" y="540" />
            </Array>
            <mxPoint as="offset" />
          </mxGeometry>
        </mxCell>
        <mxCell id="4hl5G2Hhnl7sCE8NA_vK-39" value="n" style="edgeLabel;html=1;align=center;verticalAlign=middle;resizable=0;points=[];rotation=0;" connectable="0" vertex="1" parent="1">
          <mxGeometry x="2574.995779736077" y="690.0018720824442" as="geometry">
            <mxPoint x="45" y="12.000000000000004" as="offset" />
          </mxGeometry>
        </mxCell>
        <mxCell id="4hl5G2Hhnl7sCE8NA_vK-40" value="1" style="endArrow=open;html=1;endSize=12;startArrow=diamondThin;startSize=14;startFill=0;edgeStyle=orthogonalEdgeStyle;align=left;verticalAlign=bottom;rounded=0;entryX=0.5;entryY=0;entryDx=0;entryDy=0;exitX=0.75;exitY=1;exitDx=0;exitDy=0;" edge="1" parent="1" target="4hl5G2Hhnl7sCE8NA_vK-15">
          <mxGeometry x="-0.8462" y="5" relative="1" as="geometry">
            <mxPoint x="2355" y="620" as="sourcePoint" />
            <mxPoint x="2585" y="910" as="targetPoint" />
            <Array as="points">
              <mxPoint x="2355" y="660" />
              <mxPoint x="2245" y="660" />
            </Array>
            <mxPoint as="offset" />
          </mxGeometry>
        </mxCell>
        <mxCell id="4hl5G2Hhnl7sCE8NA_vK-41" value="n" style="edgeLabel;html=1;align=center;verticalAlign=middle;resizable=0;points=[];rotation=0;" connectable="0" vertex="1" parent="1">
          <mxGeometry x="2219.995779736077" y="745.0018720824442" as="geometry">
            <mxPoint x="45" y="12.000000000000004" as="offset" />
          </mxGeometry>
        </mxCell>
        <mxCell id="4hl5G2Hhnl7sCE8NA_vK-42" value="1" style="endArrow=open;html=1;endSize=12;startArrow=diamondThin;startSize=14;startFill=0;edgeStyle=orthogonalEdgeStyle;align=left;verticalAlign=bottom;rounded=0;exitX=0.5;exitY=1;exitDx=0;exitDy=0;" edge="1" parent="1" source="4hl5G2Hhnl7sCE8NA_vK-20">
          <mxGeometry x="-0.937" y="5" relative="1" as="geometry">
            <mxPoint x="2390" y="620" as="sourcePoint" />
            <mxPoint x="2280" y="770" as="targetPoint" />
            <Array as="points">
              <mxPoint x="2575" y="670" />
              <mxPoint x="2280" y="670" />
            </Array>
            <mxPoint as="offset" />
          </mxGeometry>
        </mxCell>
        <mxCell id="4hl5G2Hhnl7sCE8NA_vK-43" value="n" style="edgeLabel;html=1;align=center;verticalAlign=middle;resizable=0;points=[];rotation=0;" connectable="0" vertex="1" parent="1">
          <mxGeometry x="2249.995779736077" y="745.0018720824442" as="geometry">
            <mxPoint x="45" y="12.000000000000004" as="offset" />
          </mxGeometry>
        </mxCell>
        <mxCell id="4hl5G2Hhnl7sCE8NA_vK-44" value="1" style="endArrow=open;html=1;endSize=12;startArrow=diamondThin;startSize=14;startFill=1;edgeStyle=orthogonalEdgeStyle;align=left;verticalAlign=bottom;rounded=0;exitX=0.25;exitY=1;exitDx=0;exitDy=0;entryX=1;entryY=0.5;entryDx=0;entryDy=0;" edge="1" parent="1" source="4hl5G2Hhnl7sCE8NA_vK-6" target="4hl5G2Hhnl7sCE8NA_vK-17">
          <mxGeometry x="-0.8215" y="-10" relative="1" as="geometry">
            <mxPoint x="2529.4700000000003" y="130" as="sourcePoint" />
            <mxPoint x="2529.4700000000003" y="270" as="targetPoint" />
            <mxPoint as="offset" />
            <Array as="points">
              <mxPoint x="2578" y="70" />
              <mxPoint x="2540" y="70" />
              <mxPoint x="2540" y="310" />
              <mxPoint x="2500" y="310" />
              <mxPoint x="2500" y="405" />
            </Array>
          </mxGeometry>
        </mxCell>
        <mxCell id="4hl5G2Hhnl7sCE8NA_vK-45" value="n" style="edgeLabel;html=1;align=center;verticalAlign=middle;resizable=0;points=[];rotation=0;" connectable="0" vertex="1" parent="1">
          <mxGeometry x="2379.995779736077" y="410.00187208244415" as="geometry">
            <mxPoint x="45" y="12.000000000000004" as="offset" />
          </mxGeometry>
        </mxCell>
        <mxCell id="4hl5G2Hhnl7sCE8NA_vK-46" value="n" style="edgeLabel;html=1;align=center;verticalAlign=middle;resizable=0;points=[];rotation=0;" connectable="0" vertex="1" parent="1">
          <mxGeometry x="2619.995779736077" y="690.0018720824442" as="geometry">
            <mxPoint x="45" y="12.000000000000004" as="offset" />
          </mxGeometry>
        </mxCell>
        <mxCell id="4hl5G2Hhnl7sCE8NA_vK-47" value="1" style="endArrow=open;html=1;endSize=12;startArrow=diamondThin;startSize=14;startFill=0;edgeStyle=orthogonalEdgeStyle;align=left;verticalAlign=bottom;rounded=0;entryX=0.75;entryY=0;entryDx=0;entryDy=0;exitX=0.75;exitY=1;exitDx=0;exitDy=0;" edge="1" parent="1" target="4hl5G2Hhnl7sCE8NA_vK-16">
          <mxGeometry x="-0.9231" y="7" relative="1" as="geometry">
            <mxPoint x="2609.95" y="170" as="sourcePoint" />
            <mxPoint x="2839.95" y="460" as="targetPoint" />
            <Array as="points">
              <mxPoint x="2610" y="280" />
              <mxPoint x="2641" y="280" />
            </Array>
            <mxPoint as="offset" />
          </mxGeometry>
        </mxCell>
        <mxCell id="4hl5G2Hhnl7sCE8NA_vK-48" value="1" style="endArrow=open;html=1;endSize=12;startArrow=diamondThin;startSize=14;startFill=0;edgeStyle=orthogonalEdgeStyle;align=left;verticalAlign=bottom;rounded=0;entryX=0.75;entryY=0;entryDx=0;entryDy=0;exitX=0.75;exitY=1;exitDx=0;exitDy=0;" edge="1" parent="1" target="4hl5G2Hhnl7sCE8NA_vK-17">
          <mxGeometry x="-0.9446" y="5" relative="1" as="geometry">
            <mxPoint x="2895" y="170" as="sourcePoint" />
            <mxPoint x="3125" y="460" as="targetPoint" />
            <Array as="points">
              <mxPoint x="2895" y="340" />
              <mxPoint x="2383" y="340" />
            </Array>
            <mxPoint as="offset" />
          </mxGeometry>
        </mxCell>
        <mxCell id="4hl5G2Hhnl7sCE8NA_vK-49" value="1" style="endArrow=open;html=1;endSize=12;startArrow=diamondThin;startSize=14;startFill=0;edgeStyle=orthogonalEdgeStyle;align=left;verticalAlign=bottom;rounded=0;entryX=0.25;entryY=1;entryDx=0;entryDy=0;exitX=1;exitY=0.25;exitDx=0;exitDy=0;" edge="1" parent="1" source="4hl5G2Hhnl7sCE8NA_vK-3" target="4hl5G2Hhnl7sCE8NA_vK-17">
          <mxGeometry x="-0.9838" y="5" relative="1" as="geometry">
            <mxPoint x="3010" as="sourcePoint" />
            <mxPoint x="3041.05" y="550" as="targetPoint" />
            <Array as="points">
              <mxPoint x="3010" y="2" />
              <mxPoint x="3010" y="470" />
              <mxPoint x="2327" y="470" />
            </Array>
            <mxPoint x="-1" as="offset" />
          </mxGeometry>
        </mxCell>
        <mxCell id="4hl5G2Hhnl7sCE8NA_vK-50" value="n" style="edgeLabel;html=1;align=center;verticalAlign=middle;resizable=0;points=[];rotation=0;" connectable="0" vertex="1" parent="1">
          <mxGeometry x="2259.995779736077" y="430.00187208244415" as="geometry">
            <mxPoint x="45" y="12.000000000000004" as="offset" />
          </mxGeometry>
        </mxCell>
        <mxCell id="4hl5G2Hhnl7sCE8NA_vK-51" value="1" style="endArrow=open;html=1;endSize=12;startArrow=diamondThin;startSize=14;startFill=0;edgeStyle=orthogonalEdgeStyle;align=left;verticalAlign=bottom;rounded=0;entryX=1;entryY=0.5;entryDx=0;entryDy=0;exitX=1;exitY=0.5;exitDx=0;exitDy=0;" edge="1" parent="1" target="4hl5G2Hhnl7sCE8NA_vK-20">
          <mxGeometry x="-0.9838" y="5" relative="1" as="geometry">
            <mxPoint x="2952" y="28" as="sourcePoint" />
            <mxPoint x="2330" y="443" as="targetPoint" />
            <Array as="points">
              <mxPoint x="2990" y="28" />
              <mxPoint x="2990" y="405" />
            </Array>
            <mxPoint x="-1" as="offset" />
          </mxGeometry>
        </mxCell>
        <mxCell id="4hl5G2Hhnl7sCE8NA_vK-52" value="1" style="edgeLabel;html=1;align=center;verticalAlign=middle;resizable=0;points=[];rotation=0;" connectable="0" vertex="1" parent="1">
          <mxGeometry x="2604.995779736077" y="380.00187208244415" as="geometry">
            <mxPoint x="45" y="12.000000000000004" as="offset" />
          </mxGeometry>
        </mxCell>
        <mxCell id="4hl5G2Hhnl7sCE8NA_vK-53" value="1" style="endArrow=open;html=1;endSize=12;startArrow=diamondThin;startSize=14;startFill=1;edgeStyle=orthogonalEdgeStyle;align=left;verticalAlign=bottom;rounded=0;exitX=0;exitY=0.5;exitDx=0;exitDy=0;entryX=0.182;entryY=-0.018;entryDx=0;entryDy=0;entryPerimeter=0;" edge="1" parent="1" source="4hl5G2Hhnl7sCE8NA_vK-4" target="4hl5G2Hhnl7sCE8NA_vK-15">
          <mxGeometry x="-0.9684" y="25" relative="1" as="geometry">
            <mxPoint x="2420" y="40" as="sourcePoint" />
            <mxPoint x="2252" y="405" as="targetPoint" />
            <mxPoint as="offset" />
            <Array as="points">
              <mxPoint x="2340" y="15" />
              <mxPoint x="2340" y="310" />
              <mxPoint x="2210" y="310" />
            </Array>
          </mxGeometry>
        </mxCell>
        <mxCell id="4hl5G2Hhnl7sCE8NA_vK-54" value="n" style="edgeLabel;html=1;align=center;verticalAlign=middle;resizable=0;points=[];rotation=0;" connectable="0" vertex="1" parent="1">
          <mxGeometry x="2149.995779736077" y="745.0018720824442" as="geometry">
            <mxPoint x="45" y="12.000000000000004" as="offset" />
          </mxGeometry>
        </mxCell>
        <mxCell id="4hl5G2Hhnl7sCE8NA_vK-55" value="1" style="endArrow=open;html=1;endSize=12;startArrow=diamondThin;startSize=14;startFill=0;edgeStyle=orthogonalEdgeStyle;align=left;verticalAlign=bottom;rounded=0;entryX=1;entryY=0.5;entryDx=0;entryDy=0;exitX=0;exitY=0.5;exitDx=0;exitDy=0;" edge="1" parent="1" source="4hl5G2Hhnl7sCE8NA_vK-6" target="4hl5G2Hhnl7sCE8NA_vK-15">
          <mxGeometry x="-0.9231" y="7" relative="1" as="geometry">
            <mxPoint x="2528.95" y="28" as="sourcePoint" />
            <mxPoint x="2560" y="578" as="targetPoint" />
            <Array as="points">
              <mxPoint x="2520" y="15" />
              <mxPoint x="2520" y="795" />
            </Array>
            <mxPoint as="offset" />
          </mxGeometry>
        </mxCell>
        <mxCell id="4hl5G2Hhnl7sCE8NA_vK-56" value="n" style="edgeLabel;html=1;align=center;verticalAlign=middle;resizable=0;points=[];rotation=0;" connectable="0" vertex="1" parent="1">
          <mxGeometry x="2259.995779736077" y="770.0018720824442" as="geometry">
            <mxPoint x="45" y="12.000000000000004" as="offset" />
          </mxGeometry>
        </mxCell>
        <mxCell id="4hl5G2Hhnl7sCE8NA_vK-57" value="1" style="endArrow=open;html=1;endSize=12;startArrow=diamondThin;startSize=14;startFill=0;edgeStyle=orthogonalEdgeStyle;align=left;verticalAlign=bottom;rounded=0;exitX=0;exitY=0.5;exitDx=0;exitDy=0;" edge="1" parent="1" source="4hl5G2Hhnl7sCE8NA_vK-7">
          <mxGeometry x="-0.9231" y="7" relative="1" as="geometry">
            <mxPoint x="2545" y="55" as="sourcePoint" />
            <mxPoint x="2285" y="820" as="targetPoint" />
            <Array as="points">
              <mxPoint x="2680" y="15" />
              <mxPoint x="2680" y="860" />
              <mxPoint x="2285" y="860" />
            </Array>
            <mxPoint as="offset" />
          </mxGeometry>
        </mxCell>
        <mxCell id="4hl5G2Hhnl7sCE8NA_vK-58" value="n" style="edgeLabel;html=1;align=center;verticalAlign=middle;resizable=0;points=[];rotation=0;" connectable="0" vertex="1" parent="1">
          <mxGeometry x="2229.995779736077" y="820.0018720824442" as="geometry">
            <mxPoint x="45" y="12.000000000000004" as="offset" />
          </mxGeometry>
        </mxCell>
        <mxCell id="4hl5G2Hhnl7sCE8NA_vK-59" value="1" style="endArrow=open;html=1;endSize=12;startArrow=diamondThin;startSize=14;startFill=0;edgeStyle=orthogonalEdgeStyle;align=left;verticalAlign=bottom;rounded=0;exitX=0.5;exitY=1;exitDx=0;exitDy=0;entryX=1;entryY=0.25;entryDx=0;entryDy=0;" edge="1" parent="1" target="4hl5G2Hhnl7sCE8NA_vK-17">
          <mxGeometry x="-0.937" y="5" relative="1" as="geometry">
            <mxPoint x="2715" y="40" as="sourcePoint" />
            <mxPoint x="2420" y="380" as="targetPoint" />
            <Array as="points">
              <mxPoint x="2715" y="70" />
              <mxPoint x="2680" y="70" />
              <mxPoint x="2680" y="330" />
              <mxPoint x="2440" y="330" />
              <mxPoint x="2440" y="393" />
            </Array>
            <mxPoint as="offset" />
          </mxGeometry>
        </mxCell>
        <mxCell id="4hl5G2Hhnl7sCE8NA_vK-60" value="1" style="edgeLabel;html=1;align=center;verticalAlign=middle;resizable=0;points=[];rotation=0;" connectable="0" vertex="1" parent="1">
          <mxGeometry x="2349.995779736077" y="360.00187208244415" as="geometry">
            <mxPoint x="45" y="12.000000000000004" as="offset" />
          </mxGeometry>
        </mxCell>
        <mxCell id="4hl5G2Hhnl7sCE8NA_vK-61" value="n" style="edgeLabel;html=1;align=center;verticalAlign=middle;resizable=0;points=[];rotation=0;" connectable="0" vertex="1" parent="1">
          <mxGeometry x="2369.995779736077" y="370.00187208244415" as="geometry">
            <mxPoint x="45" y="12.000000000000004" as="offset" />
          </mxGeometry>
        </mxCell>
        <mxCell id="4hl5G2Hhnl7sCE8NA_vK-62" value="1" style="endArrow=open;html=1;endSize=12;startArrow=diamondThin;startSize=14;startFill=1;edgeStyle=orthogonalEdgeStyle;align=left;verticalAlign=bottom;rounded=0;exitX=1;exitY=0.5;exitDx=0;exitDy=0;entryX=0;entryY=0.5;entryDx=0;entryDy=0;" edge="1" parent="1" target="4hl5G2Hhnl7sCE8NA_vK-17">
          <mxGeometry x="-0.9344" relative="1" as="geometry">
            <mxPoint x="2140" y="550" as="sourcePoint" />
            <mxPoint x="1970" y="240" as="targetPoint" />
            <mxPoint x="-1" as="offset" />
            <Array as="points">
              <mxPoint x="2250" y="550" />
              <mxPoint x="2250" y="405" />
            </Array>
          </mxGeometry>
        </mxCell>
        <mxCell id="4hl5G2Hhnl7sCE8NA_vK-63" value="1" style="endArrow=open;html=1;endSize=12;startArrow=diamondThin;startSize=14;startFill=1;edgeStyle=orthogonalEdgeStyle;align=left;verticalAlign=bottom;rounded=0;exitX=1;exitY=0.5;exitDx=0;exitDy=0;entryX=0;entryY=0.5;entryDx=0;entryDy=0;" edge="1" parent="1" target="4hl5G2Hhnl7sCE8NA_vK-15">
          <mxGeometry x="-0.9344" relative="1" as="geometry">
            <mxPoint x="2140" y="569.94" as="sourcePoint" />
            <mxPoint x="2300" y="424.94000000000005" as="targetPoint" />
            <mxPoint x="-1" as="offset" />
            <Array as="points">
              <mxPoint x="2170" y="570" />
              <mxPoint x="2170" y="795" />
            </Array>
          </mxGeometry>
        </mxCell>
        <mxCell id="4hl5G2Hhnl7sCE8NA_vK-64" value="n" style="edgeLabel;html=1;align=center;verticalAlign=middle;resizable=0;points=[];rotation=0;" connectable="0" vertex="1" parent="1">
          <mxGeometry x="2129.995779736077" y="795.0018720824442" as="geometry">
            <mxPoint x="45" y="12.000000000000004" as="offset" />
          </mxGeometry>
        </mxCell>
        <mxCell id="4hl5G2Hhnl7sCE8NA_vK-65" value="n" style="edgeLabel;html=1;align=center;verticalAlign=middle;resizable=0;points=[];rotation=0;" connectable="0" vertex="1" parent="1">
          <mxGeometry x="2244.995779736077" y="380.00187208244415" as="geometry">
            <mxPoint x="45" y="12.000000000000004" as="offset" />
          </mxGeometry>
        </mxCell>
        <mxCell id="4hl5G2Hhnl7sCE8NA_vK-68" value="&amp;lt;use&amp;gt;" style="html=1;verticalAlign=bottom;endArrow=open;curved=0;rounded=0;endFill=0;entryX=0.5;entryY=0;entryDx=0;entryDy=0;exitX=0.25;exitY=0;exitDx=0;exitDy=0;" edge="1" parent="1" source="4hl5G2Hhnl7sCE8NA_vK-17">
          <mxGeometry x="0.6154" y="20" width="80" relative="1" as="geometry">
            <mxPoint x="2060" y="265" as="sourcePoint" />
            <mxPoint x="2060" y="335" as="targetPoint" />
            <mxPoint x="-1" as="offset" />
            <Array as="points">
              <mxPoint x="2327" y="270" />
              <mxPoint x="2060" y="270" />
            </Array>
          </mxGeometry>
        </mxCell>
        <mxCell id="4hl5G2Hhnl7sCE8NA_vK-69" value="&amp;lt;use&amp;gt;" style="html=1;verticalAlign=bottom;endArrow=open;curved=0;rounded=0;endFill=0;entryX=0.5;entryY=0;entryDx=0;entryDy=0;exitX=0;exitY=0.5;exitDx=0;exitDy=0;" edge="1" parent="1" source="4hl5G2Hhnl7sCE8NA_vK-19">
          <mxGeometry x="0.1429" y="20" width="80" relative="1" as="geometry">
            <mxPoint x="2100" y="265" as="sourcePoint" />
            <mxPoint x="2100" y="335" as="targetPoint" />
            <mxPoint as="offset" />
            <Array as="points">
              <mxPoint x="2100" y="245" />
            </Array>
          </mxGeometry>
        </mxCell>
        <mxCell id="4hl5G2Hhnl7sCE8NA_vK-70" value="&amp;lt;use&amp;gt;" style="html=1;verticalAlign=bottom;endArrow=open;curved=0;rounded=0;endFill=0;entryX=0.5;entryY=0;entryDx=0;entryDy=0;exitX=0.335;exitY=-0.012;exitDx=0;exitDy=0;exitPerimeter=0;" edge="1" parent="1" source="4hl5G2Hhnl7sCE8NA_vK-15">
          <mxGeometry x="0.1429" y="20" width="80" relative="1" as="geometry">
            <mxPoint x="2138.82" y="265" as="sourcePoint" />
            <mxPoint x="2138.82" y="335" as="targetPoint" />
            <mxPoint as="offset" />
            <Array as="points">
              <mxPoint x="2230" y="290" />
              <mxPoint x="2140" y="290" />
            </Array>
          </mxGeometry>
        </mxCell>
      </root>
    </mxGraphModel>
  </diagram>
</mxfile>
